<?xml version="1.0" standalone="no"?>
<!DOCTYPE svg PUBLIC "-//W3C//DTD SVG 1.1//EN" "http://www.w3.org/Graphics/SVG/1.1/DTD/svg11.dtd" >
<svg xmlns="http://www.w3.org/2000/svg" xmlns:xlink="http://www.w3.org/1999/xlink" version="1.1">
<metadata>
Created by FontForge 20170731 at Fri Mar  3 03:11:17 2023
 By Aleksey,,,
Copyright Greg Nicholls 2016
</metadata>
<defs>
<font id="Revelstoke-Bold" horiz-adv-x="1097" >
  <font-face 
    font-family="Revelstoke Bold"
    font-weight="700"
    font-stretch="normal"
    units-per-em="2048"
    panose-1="0 0 8 0 0 0 0 0 0 0"
    ascent="1638"
    descent="-410"
    x-height="1348"
    cap-height="1368"
    bbox="-1072.05 -492.391 1069 1849"
    underline-thickness="102"
    underline-position="-307"
    unicode-range="U+0020-2212"
  />
<missing-glyph horiz-adv-x="1024" 
d="M840 1638v-2048h-650v2048h650zM682 242h-340v-232h340v232zM614 174v-96h-204v96h204zM682 596h-205v-115h70v47h67v-96h-204v164h-68v-231h340v231zM682 846h-68v-135h-272v-70h340v205zM682 969h-340v-68h135v-76h-135v-67h205v143h135v68zM477 1167v-73h-67v73h67z
M547 1237h-205v-213h340v70h-135v143zM682 1501h-338v-67h133v-76h-135v-68h340v68h-135v76h135v67zM682 -37h-340v-67h143l-143 -97v-67h340v67h-209l143 97h66v67z" />
    <glyph glyph-name=".notdef" horiz-adv-x="1024" 
d="M840 1638v-2048h-650v2048h650zM682 242h-340v-232h340v232zM614 174v-96h-204v96h204zM682 596h-205v-115h70v47h67v-96h-204v164h-68v-231h340v231zM682 846h-68v-135h-272v-70h340v205zM682 969h-340v-68h135v-76h-135v-67h205v143h135v68zM477 1167v-73h-67v73h67z
M547 1237h-205v-213h340v70h-135v143zM682 1501h-338v-67h133v-76h-135v-68h340v68h-135v76h135v67zM682 -37h-340v-67h143l-143 -97v-67h340v67h-209l143 97h66v67z" />
    <glyph glyph-name=".null" horiz-adv-x="0" 
 />
    <glyph glyph-name="nonmarkingreturn" horiz-adv-x="682" 
 />
    <glyph glyph-name="space" unicode=" " horiz-adv-x="614" 
 />
    <glyph glyph-name="exclam" unicode="!" horiz-adv-x="649" 
d="M92 428q-28 -3 -40 9.5t-15 39.5v29v788q0 29 2 43q6 37 43 37h123q47 3 47 -51q-1 -62 -1 -131.5t0.5 -155t0.5 -131.5v-424q-2 -32 -12.5 -42.5t-42.5 -10.5h-105zM145 0q-63 -1 -103 42t-42 103q0 58 43.5 102.5t99.5 43.5q68 -3 108.5 -43.5t39.5 -104.5
q-1 -67 -41 -104t-105 -39z" />
    <glyph glyph-name="quotedbl" unicode="&#x22;" horiz-adv-x="854" 
d="M449 1034q-37 -2 -107 2q-41 3 -41 49v150l1 73q0 74 -1 74q0 49 51 52h88q31 -1 43.5 -15t12.5 -45v-282q3 -55 -47 -58zM150 1036q-63 -3 -113 2q-11 2 -23 14.5t-12 22.5q-2 104 -2 318q0 39 45 39q44 5 96 2q29 -1 41.5 -15.5t12.5 -44.5v-141v-141q0 -53 -45 -56z
" />
    <glyph glyph-name="numbersign" unicode="#" horiz-adv-x="1218" 
d="M606 0h-112q-46 0 -43 45q13 146 16 207q3 32 -4.5 41t-40.5 14q-75 7 -96.5 -12t-24.5 -96q-2 -55 -14 -152q-6 -47 -51 -47h-121q-46 0 -43 47q2 22 6.5 93t9.5 110q6 54 -43 57q-45 5 -45 58v104q0 46 45 51q53 7 63 18.5t15 67.5q8 105 14 152q3 41 -37 47
q-43 5 -43 51v111q0 47 47 53q41 6 52.5 16.5t15.5 50.5q12 114 21 228q6 49 49 49h125q47 0 41 -45q-9 -142 -17 -191q-12 -76 0.5 -92t85.5 -16q44 0 57.5 13t16.5 57q16 155 22 227q3 47 45 47h130q43 0 40 -43q-3 -31 -9 -95.5t-9 -95.5q0 -7 -1 -19.5t-1 -18.5
q-2 -44 5 -54t50 -20q40 -10 37 -45v-64v-57q0 -47 -49 -47q-51 -1 -64.5 -16t-15.5 -68q-1 -29 -7 -82t-7 -70q-3 -41 37 -47q54 -3 51 -65q-2 -17 -2 -103q0 -42 -39 -45q-29 0 -39 -6q-32 -18 -35 -37q-17 -114 -22 -205q-3 -36 -15 -48t-47 -13zM414 522q52 0 67 7.5
t19 37.5q8 67 16 197q0 9 -5.5 20t-10.5 13q-68 3 -123 -2q-4 0 -10.5 -10.5t-8.5 -18.5q-16 -117 -20 -176q-5 -43 6 -55t55 -13h15z" />
    <glyph glyph-name="dollar" unicode="$" horiz-adv-x="1046" 
d="M289 -135q-29 0 -42 11.5t-18 39.5v6q8 51 -12.5 83t-69.5 61q-125 73 -141 231q-3 32 8 42.5t45 12.5h50h28q66 8 92 -57q19 -49 68 -68t98 2q47 19 66 62t4 94q-18 63 -98 135q-28 26 -110.5 98.5t-125.5 114.5q-128 125 -131 289q0 187 158 291q6 4 19.5 11t19.5 11
q30 16 30 56q1 29 1 42.5t5.5 27.5t9 18t19 8t27.5 4h43q70 0 94 -10q15 -7 18.5 -20.5t1 -34t-1.5 -29.5q5 -43 48 -62q153 -70 190 -235q1 -8 2 -24.5t2 -24.5q3 -44 -45 -47h-119q-39 2 -53 53q-24 89 -119 92q-101 0 -125 -82q-27 -94 45 -166q38 -38 112 -104t99 -90
q82 -75 131.5 -139.5t67.5 -147.5q26 -120 -22.5 -224.5t-157.5 -156.5q-33 -17 -45.5 -39t-10.5 -57q0 -53 -12.5 -65.5t-66.5 -12.5h-76z" />
    <glyph glyph-name="percent" unicode="%" horiz-adv-x="1210" 
d="M217 0h-67v2h-72q-46 3 -29 45q91 221 125 301q67 157 200 474t199 474q22 48 38 59t69 11q65 0 96 -2t39 -14t-2 -41q-15 -34 -43.5 -101.5t-42.5 -101.5q-50 -120 -150.5 -359.5t-150.5 -359.5q-24 -59 -147 -346q-19 -44 -62 -41zM631 23q-88 -3 -155 65.5t-60 179.5
q3 73 72.5 133.5t148.5 57.5q93 -3 158.5 -70.5t56.5 -169.5q-5 -77 -68.5 -138.5t-152.5 -57.5zM635 180q22 0 40.5 20t18.5 42q-2 22 -19 37.5t-40 15.5t-39.5 -15t-17.5 -38q0 -25 17 -43.5t40 -18.5zM217 895q-87 3 -152 65.5t-65 153.5q0 89 65 155t154 66
q92 -2 157 -67t62 -160q7 -84 -66.5 -149.5t-154.5 -63.5zM219 1055q22 0 41.5 19.5t18.5 39.5q0 25 -18 40.5t-44 14.5q-25 0 -39 -15t-14 -40q0 -24 15.5 -40.5t39.5 -18.5z" />
    <glyph glyph-name="ampersand" unicode="&#x26;" horiz-adv-x="1218" 
d="M322 0q-111 -1 -199 72t-113 182q-3 17 -6 49.5t-4 42.5q3 192 156 336q37 34 39.5 46.5t-21.5 57.5q-81 141 -70 267q9 127 92.5 215.5t206.5 87.5q85 -2 157 -61.5t95 -149.5q56 -232 -112 -422q-25 -26 -25.5 -41.5t19.5 -44.5q10 -18 32 -50t27 -40q17 -23 28.5 -23
t28.5 23q26 37 38.5 40t53.5 -16q34 -15 80 -39q28 -13 33.5 -29t-8.5 -44q-20 -41 -66 -119q-23 -39 0 -76q9 -14 28 -42t28 -42q24 -37 -11 -61q-11 -7 -48.5 -33t-57.5 -39q-36 -18 -68 23q-18 22 -24.5 29.5t-18.5 9.5t-20.5 -3.5t-32.5 -21.5q-123 -84 -237 -84z
M344 219q41 12 115 62q41 24 8 69q-82 125 -107 160q-27 43 -67 6q-76 -76 -76 -172q-6 -57 36 -98.5t91 -26.5zM406 899q34 31 43.5 100t-13.5 109q-14 24 -37 27.5t-41 -17.5q-9 -12 -17 -26t-18 -35.5t-14 -28.5q32 -91 47 -121q6 -17 20.5 -19.5t29.5 11.5z" />
    <glyph glyph-name="quotesingle" unicode="'" horiz-adv-x="552" 
d="M147 1038q-36 -2 -106 2q-41 3 -41 50v149v147q0 49 51 52h88q31 -1 43.5 -15t12.5 -45v-282q3 -55 -48 -58z" />
    <glyph glyph-name="parenleft" unicode="(" horiz-adv-x="743" 
d="M322 51q-21 -29 -35.5 -42t-30.5 -8.5t-28.5 16t-37.5 40.5q-125 154 -167 361q-84 438 139 805q10 18 47 71q30 37 61 13q41 -34 97 -90q1 -2 18 -35q-1 -2 -6 -15t-10 -18q-128 -188 -150 -428q-22 -292 121 -504q38 -54 38 -71.5t-40 -71.5q-9 -9 -16 -23z" />
    <glyph glyph-name="parenright" unicode=")" horiz-adv-x="741" 
d="M96 20q-15 13 -42 39.5t-36 34.5q-32 30 -6 74q100 140 135 321q65 346 -96 594q-25 35 -33 43q-37 40 0 86q6 7 27 32.5t31 39.5q25 30 43 30.5t45 -28.5q137 -145 186 -360q9 -38 15.5 -77t11.5 -84.5t6 -49.5q-5 -213 -54 -379t-153 -309q-36 -48 -80 -7z" />
    <glyph glyph-name="asterisk" unicode="*" horiz-adv-x="985" 
d="M420 739q-2 1 -9.5 6t-14.5 10.5t-11 10.5q-9 11 -25.5 33l-19.5 26q-26 37 -53 2q-25 -28 -51 -65q-30 -37 -70 -10q-16 11 -44.5 32t-31.5 23q-41 30 -10 72q1 1 51 71q24 38 -16 54q-15 6 -44 14.5t-32 9.5q-52 17 -35 66q22 73 31 96q15 41 57 27q13 -4 36.5 -11.5
t35.5 -11.5q25 -6 35.5 2t11.5 35q3 47 6 96q3 40 45 37h94q30 0 42.5 -11t13.5 -40v-80q0 -51 49 -39q61 20 71 23q42 17 58 -27q27 -77 35 -107q10 -35 -31 -49q-12 -5 -37.5 -14t-38.5 -14q-27 -9 -31.5 -23t11.5 -39q44 -62 51 -72q11 -13 10.5 -29t-12.5 -26
q-19 -15 -54 -40t-47 -34q-1 0 -26 -4z" />
    <glyph glyph-name="plus" unicode="+" horiz-adv-x="1120" 
d="M137 565h86q27 0 38 -11t11 -38q1 -28 1 -83t1 -81q0 -32 13.5 -44.5t46.5 -12.5q53 -3 106 0q50 0 47 47q0 111 2 166q0 33 13 45t47 12q27 1 81.5 1t80.5 1q26 0 37.5 11.5t11.5 37.5q3 56 0 111q0 31 -11.5 42t-43.5 11h-154q-37 0 -49.5 12.5t-12.5 49.5q-1 27 -1 81
t-1 81q0 26 -11.5 37.5t-37.5 11.5h-100q-37 0 -50.5 -13.5t-13.5 -50.5q-1 -26 -1 -78.5t-1 -79.5q0 -28 -11 -39.5t-38 -11.5h-170q-51 0 -51 -49q-3 -59 0 -117q0 -49 49 -49h86z" />
    <glyph glyph-name="comma" unicode="," horiz-adv-x="651" 
d="M63 -166q-26 1 -34 22t6 44q11 15 41 49q14 20 12 35t-22 32q-62 51 -66 115t51 115q66 56 146 26q78 -29 90 -108q1 -4 2.5 -10.5t2.5 -11t1 -7.5q-6 -194 -156 -285q-32 -19 -74 -16z" />
    <glyph glyph-name="hyphen" unicode="-" horiz-adv-x="780" 
d="M49 545q-46 -3 -49 39q0 92 4 135q2 15 33 35q8 4 43 4q178 3 356 0q51 0 63.5 -12t14.5 -60v-92q0 -52 -51 -49h-207h-207z" />
    <glyph glyph-name="period" unicode="." horiz-adv-x="649" 
d="M147 0q-66 0 -105 38.5t-42 106.5q-1 58 42.5 102t102.5 44q57 0 101.5 -44.5t44.5 -101.5q0 -58 -40 -101.5t-104 -43.5z" />
    <glyph glyph-name="slash" unicode="/" horiz-adv-x="1132" 
d="M104 0v2h-63q-30 2 -37.5 13.5t4.5 39.5q24 59 115 279q395 933 407 962q22 52 36 61t73 9h96q29 -1 36.5 -14t-3.5 -39q-19 -48 -53.5 -132.5t-46.5 -113.5q-70 -165 -209.5 -493.5t-208.5 -493.5q-25 -60 -39.5 -70t-79.5 -10h-27z" />
    <glyph glyph-name="zero" unicode="0" horiz-adv-x="1083" 
d="M416 2q-43 -1 -81 -1.5t-79 8.5t-76 28q-178 102 -178 295q-1 114 -1 342t-1 342q-2 124 74 219.5t200 118.5q200 39 332 -74q117 -96 117 -238q2 -121 2 -364v-359q-1 -124 -93.5 -218t-215.5 -99zM365 213q37 0 55 6q27 7 49.5 26.5t30 45.5t-14.5 53
q-23 27 -102 119.5t-123 142.5q-5 6 -18.5 12.5t-14.5 6.5q-1 -2 -6 -15t-6 -20v-225q-3 -69 33.5 -110t116.5 -42zM500 686q1 5 5 15.5t5 15.5v155v150v4q-2 39 -22.5 69.5t-55.5 37.5q-77 18 -131 2q-62 -15 -78.5 -70.5t23.5 -106.5q5 -6 16.5 -18t16.5 -18
q31 -37 94 -111t94 -111q3 -4 33 -14z" />
    <glyph glyph-name="one" unicode="1" horiz-adv-x="806" 
d="M289 2q-31 0 -43.5 12.5t-12.5 44.5v244v672v29q-4 17 -12 22q-4 4 -22 -8q-2 -1 -9 -9.5t-12 -9.5q-43 -11 -53 -6q-43 23 -105 74q-35 25 -10 61q99 142 150 205q9 12 26.5 21.5t32.5 9.5q30 2 178 2q29 -2 40.5 -14t11.5 -43v-627v-623q0 -34 -10 -45t-44 -12
q-53 -3 -106 0z" />
    <glyph glyph-name="two" unicode="2" horiz-adv-x="1083" 
d="M461 0h-80h-289q-44 0 -55.5 12.5t-11.5 57.5q0 29 -2 34q-10 61 11.5 111t69.5 111q131 168 381 512q64 87 50 180q-18 126 -146 129q-110 0 -143 -88q-14 -39 -60 -39h-106q-30 2 -41 13t-8 38q18 175 178 252q73 35 154 39.5t153.5 -18.5t131.5 -81.5t87 -144.5
q64 -204 -63 -389q-61 -89 -178.5 -248.5t-149.5 -204.5q-15 -20 -16 -22q-15 -23 -10.5 -33.5t32.5 -11.5h248q12 -1 35 -1t35 -1q49 0 60 -12t13 -60q0 -53 -2 -78q0 -34 -10 -44.5t-43 -10.5q-76 -2 -225 -2z" />
    <glyph glyph-name="three" unicode="3" horiz-adv-x="1083" 
d="M358 0q-97 -4 -174 35t-120.5 99t-59.5 134q-9 37 4.5 54.5t52.5 17.5q5 0 14 -0.5t17 -0.5t14 1q47 5 78 -9.5t52 -58.5q27 -65 135 -57q71 3 105 40.5t34 111.5v21.5v23t-0.5 20.5t-2.5 23.5t-4.5 20.5t-7 22t-10.5 20q-39 63 -125 66l-46 1q-46 1 -46 -1
q-48 -3 -51 45q-3 61 0 119q0 51 55 51h101q58 0 93.5 29.5t41.5 84.5q5 55 -6 140q-6 37 -35 61t-70 29q-38 8 -80.5 0.5t-70.5 -39.5q-13 -13 -29 -45q-14 -39 -61 -39q-16 1 -50 1t-51 1q-68 0 -53 65q50 204 231 256q203 59 351 -47q139 -97 139 -266q3 -90 -14 -203
q-2 -11 -5 -21t-10 -23t-10 -19t-13 -22t-12 -19q-24 -41 0 -78q66 -100 66 -221v-30v-32t-0.5 -28.5t-2 -31t-4 -28t-6.5 -31t-10 -28.5q-25 -60 -66 -107t-114 -79.5t-164 -28.5z" />
    <glyph glyph-name="four" unicode="4" horiz-adv-x="1101" 
d="M625 0q-70 0 -105 2q-30 1 -39.5 11t-9.5 40q-1 0 -1 85l1 85q-2 39 -15.5 52.5t-52.5 13.5h-340q-34 0 -45 12t-14 47q-3 23 -3 46.5t2 43.5t7.5 44.5t10 41.5t14 42.5t15 40t16.5 42.5t16 41q10 26 235 623q21 56 74 53l117 1q117 1 117 -1q36 0 47.5 -13.5t11.5 -52.5
v-372v-373q0 -30 10 -39.5t41 -11.5q30 -1 42.5 -1t27.5 -5t18.5 -8.5t8 -18.5t4.5 -27.5v-42.5q0 -69 -11 -94q-8 -16 -22.5 -19t-35.5 -0.5t-30 1.5q-33 -5 -43 -15.5t-10 -42.5q0 -18 0.5 -52.5t0.5 -63t-1 -52.5q0 -35 -12 -48.5t-47 -14.5zM410 504q36 0 47.5 12
t11.5 49q3 193 0 387q0 22 -8 72q-2 1 -5 2t-5 2q-17 -21 -21 -33q-29 -75 -86 -224t-86 -224q-14 -40 31 -43h121z" />
    <glyph glyph-name="five" unicode="5" horiz-adv-x="1075" 
d="M442 2q-86 -5 -152.5 5.5t-125.5 51.5q-117 78 -148 220q-12 61 50 61q11 0 38 1t45.5 0.5t36.5 -3.5q14 -2 30.5 -11.5t19.5 -19.5q12 -36 39 -58t59.5 -28.5t66 -4.5t62.5 13q70 25 74 113q3 123 -7 217q-4 49 -37.5 76t-84.5 27q-35 1 -105.5 1t-105.5 1q-63 0 -125 6
q-34 1 -45 13t-11 46v297v266q0 33 11.5 46t44.5 16q39 2 116 2h463h29q46 -3 57 -14.5t11 -55.5q3 -45 0 -90q-1 -37 -13.5 -48t-50.5 -11h-254h-147q-45 0 -45 -47v-160q0 -47 41 -47q98 -4 149 -4q126 -2 225.5 -95.5t100.5 -216.5q4 -215 -11 -311
q-15 -101 -103.5 -174.5t-197.5 -79.5z" />
    <glyph glyph-name="six" unicode="6" horiz-adv-x="1091" 
d="M412 2q-81 -5 -145.5 5.5t-119.5 49.5q-144 104 -147 273v354v326q0 130 70.5 222.5t195.5 119.5q133 29 246.5 -13t175.5 -161q21 -44 33 -93q15 -62 -51 -65q-10 0 -28 0.5t-33 0.5t-29 -1q-61 -3 -80 49q-17 48 -73.5 67.5t-113 5.5t-75.5 -52q-20 -42 -23 -78
q-4 -56 0 -168q0 -31 10.5 -41.5t42.5 -11.5q159 -10 187 -15q166 -26 235 -190q81 -198 10 -379q-79 -193 -288 -205zM354 213q56 -5 96.5 18.5t53.5 69.5q30 97 -12 199q-9 26 -30 44t-48 21q-51 6 -160 6q-39 0 -39 -49v-88v-69q0 -74 33 -110t106 -42z" />
    <glyph glyph-name="seven" unicode="7" horiz-adv-x="952" 
d="M236 0q-78 0 -115 2q-28 2 -36 13t-1 38q191 718 199 748q16 56 43 163t32 128q9 29 0 42t-41 13q-26 2 -153 2h-119q-45 0 -45 43q0 104 2 125q0 10 10 23t21 16q25 8 80 8h215v2l129 1q129 1 129 -1q44 0 53.5 -13.5t-2.5 -56.5q-163 -618 -330 -1239q-9 -35 -21.5 -45
t-49.5 -12z" />
    <glyph glyph-name="eight" unicode="8" horiz-adv-x="1091" 
d="M367 0q-141 -3 -235.5 75t-115.5 183q-14 77 -16.5 136t14.5 128.5t60 126.5q29 37 -6 78q-65 76 -64.5 247t62.5 249q113 142 296 145q127 0 218 -58t131 -165q28 -76 20 -225q-3 -111 -72 -205q-6 -11 -7 -29t5 -27q54 -71 66.5 -152t5.5 -194q-6 -101 -71.5 -184
t-161.5 -109q-19 -5 -40 -8.5t-49.5 -6.5t-39.5 -5zM358 217q57 -5 102.5 24t51.5 74q7 69 2 121q-6 70 -39.5 100.5t-105.5 30.5q-60 5 -99.5 -25t-48.5 -89q-3 -13 -3.5 -26t0.5 -31.5t1 -26.5q0 -72 33.5 -109t105.5 -43zM487 846q21 37 25 57q1 2 6 76q-1 7 -1.5 24.5
t-1.5 31.5t-5 26q-25 80 -123 90q-55 3 -96 -14t-55 -54q-43 -114 2 -215q17 -42 69.5 -58.5t105.5 -5t74 41.5z" />
    <glyph glyph-name="nine" unicode="9" horiz-adv-x="1087" 
d="M422 2q-44 -1 -82 -1.5t-80 9t-78 29.5q-147 81 -174 246q-6 50 43 53q63 3 125 0q21 0 32.5 -12t22.5 -37q31 -76 136 -76q96 0 131 61q10 20 10 25q4 164 4 246q0 6 -14.5 13t-26.5 9q-7 1 -82.5 5.5t-112.5 11.5q-211 37 -262 274q-32 161 11 275q71 201 286 225
q187 20 301 -78q114 -97 117 -236q1 -54 1 -114.5t-0.5 -135t-0.5 -114.5v-363q-2 -122 -92.5 -216.5t-214.5 -98.5zM479 788q35 0 35 41v101v96q0 38 -21 68.5t-57 40.5q-40 10 -104 6q-86 -3 -105 -86q-24 -106 11 -193q25 -63 77 -69q46 -5 164 -5z" />
    <glyph glyph-name="colon" unicode=":" horiz-adv-x="653" 
d="M152 0q-58 0 -100 43t-44 102q-3 57 38 102t104 46q64 0 107 -45t38 -103q0 -60 -42 -102.5t-101 -42.5zM145 745q-64 0 -105.5 47t-39.5 103q2 54 41.5 97.5t101.5 43.5q62 2 105.5 -40.5t40.5 -104.5q1 -61 -40.5 -103.5t-103.5 -42.5z" />
    <glyph glyph-name="semicolon" unicode=";" horiz-adv-x="659" 
d="M74 -164q-29 1 -38.5 24t7.5 46q6 8 20.5 24.5t20.5 24.5q27 38 -10 63q-75 51 -66 136q12 101 117 129q55 14 117 -23.5t59 -87.5q-4 -119 -41.5 -193.5t-112.5 -121.5q-30 -21 -73 -21zM147 737q-57 0 -102.5 45.5t-44.5 102.5q2 59 45 102.5t100 42.5
q59 0 102.5 -43.5t43.5 -101.5q0 -57 -43 -102t-101 -46z" />
    <glyph glyph-name="less" unicode="&#x3c;" horiz-adv-x="962" 
d="M442 252q-16 13 -47.5 41t-46.5 41q-53 49 -158.5 147.5t-158.5 147.5q-31 29 -31 43.5t31 42.5q66 62 197 183t196 183q30 26 46 25t44 -29q41 -41 72 -80q3 -3 5.5 -7.5t6 -12t6.5 -12.5q-25 -35 -33 -43q-32 -30 -68.5 -63.5t-80.5 -73.5t-70 -64q-35 -31 -35.5 -47.5
t33.5 -48.5q113 -101 217 -199q29 -26 31 -43.5t-23 -48.5q-13 -13 -36.5 -39t-36.5 -39q-31 -31 -60 -4z" />
    <glyph glyph-name="equal" unicode="=" horiz-adv-x="960" 
d="M553 784q-253 -3 -506 0q-47 0 -47 50v114q2 28 13 38.5t40 10.5q36 1 77.5 1t92.5 -0.5t78 -0.5l123 1q123 0 123 -1q31 0 43 -12t12 -43v-104q0 -54 -49 -54zM299 354h-248q-29 0 -39 10.5t-12 41.5v102q2 36 13 47.5t46 11.5h205h264q47 0 60.5 -12.5t13.5 -58.5v-93
q0 -26 -11.5 -37.5t-37.5 -11.5h-254z" />
    <glyph glyph-name="greater" unicode="&#x3e;" horiz-adv-x="960" 
d="M96 260q-28 28 -82 90q-30 37 6 68q39 36 117 108.5t117 108.5q29 28 29.5 42t-27.5 40q-39 36 -115.5 107.5t-115.5 107.5q-25 23 -25 39t23 41q34 40 67 73q23 25 39 26t39 -21q124 -113 403 -371q5 -4 10 -10.5t11.5 -16.5t9.5 -14q-3 -4 -9 -15t-10.5 -17t-9.5 -11
q-135 -125 -409 -375q-36 -36 -68 0z" />
    <glyph glyph-name="question" unicode="?" horiz-adv-x="1081" 
d="M242 422q-31 0 -42.5 16t-6.5 49q12 95 66 166.5t144 145.5q117 99 103 243q-5 38 -37 71.5t-70 39.5q-69 8 -115.5 -11t-72.5 -81q-8 -18 -51 -31q-7 -2 -16.5 -2t-21.5 1t-18 1h-32q-50 0 -64 18t-2 66q26 105 110.5 175.5t188.5 78.5q174 14 277 -65
q150 -117 141 -310q-11 -157 -68 -235q-50 -63 -131 -137q-32 -30 -50.5 -49t-39 -50.5t-28.5 -64.5q-10 -35 -52 -35q-56 -3 -112 0zM301 0q-63 2 -103 40.5t-40 104.5q0 67 42 105.5t103 40.5q58 1 100.5 -44t42.5 -104t-41 -101.5t-104 -41.5z" />
    <glyph glyph-name="at" unicode="@" horiz-adv-x="1419" 
d="M655 16q-205 -50 -363.5 49t-236.5 295q-58 144 -55 271q3 346 186 579q89 113 216 153.5t247.5 11t210.5 -112.5q137 -126 180 -359q18 -115 21 -276q3 -61 -23 -140q-21 -67 -74 -107.5t-118 -42t-133 33.5q-30 18 -54.5 18t-54.5 -18q-71 -39 -145.5 -21t-128.5 86
q-79 100 -76.5 244t84.5 235q82 88 186 79.5t170 -109.5q39 -55 68 -111q3 -5 8 -41q9 -96 14 -137q3 -21 15 -35q11 -19 28.5 -18t26.5 20q8 12 8 19q2 89 0.5 167t-24 161.5t-66.5 152.5q-33 52 -87.5 85t-115.5 41.5t-126.5 -20.5t-114.5 -96q-106 -147 -127 -334
q-23 -227 82 -393q88 -142 225 -147q53 -4 156 28q56 19 96 -4q15 -9 63 -33q30 -17 33 -34t-20 -43q-58 -68 -181 -97zM506 555q8 0 19 9t14 18q8 18 26 88q-20 78 -26 92q-12 26 -33 26t-33 -26q-46 -88 -2 -182q5 -8 16 -16.5t19 -8.5z" />
    <glyph glyph-name="A" unicode="A" 
d="M51 0q-32 0 -42.5 11t-6.5 42q9 65 45 248q18 89 53 267.5t52 267.5q16 81 47.5 241.5t46.5 241.5q10 57 65 51q18 -2 58 -2h47q43 0 57 -11t23 -54q126 -656 192 -984q9 -50 27 -141.5t22 -114.5q12 -63 -53 -63h-96q-34 0 -49 12.5t-21 46.5q-9 38 -20 101
q-8 41 -54 41h-147q-50 0 -59 -49q-3 -16 -10.5 -50.5t-10.5 -50.5q-8 -51 -65 -51h-101zM367 416h20q35 0 45.5 13t3.5 48q-19 109 -26 144q-5 21 -15.5 64t-15.5 65q-6 -2 -14 -2q-17 -34 -19 -41q-3 -19 -19.5 -99t-23.5 -123q-9 -46 2 -57.5t62 -11.5z" />
    <glyph glyph-name="B" unicode="B" horiz-adv-x="1060" 
d="M342 0q-150 3 -297 6q-25 1 -35 13t-10 38v631v617q0 38 13 50.5t53 12.5q30 -1 104.5 -1.5t127.5 -1.5t103 -5q128 -9 222 -117q76 -93 79 -239q0 -6 0.5 -31.5t0 -36t-1.5 -30.5t-4.5 -36t-8.5 -32q-14 -42 -47 -107q-26 -44 -2 -78q60 -84 63 -221q0 -128 -14 -180
q-58 -194 -258 -244q-29 -8 -88 -8zM256 215q96 0 141 8q32 7 53 30t29 56q17 85 0 183q-6 31 -34.5 58t-57.5 30q-45 2 -133 2q-23 -1 -31 -10.5t-8 -32.5v-136v-141q0 -44 41 -47zM367 803q41 -1 75 31t39 69q9 72 0 144q-6 39 -37.5 69t-70.5 31h-115q-25 -2 -34 -10.5
t-9 -32.5v-129v-129q0 -26 9 -34.5t36 -8.5h107z" />
    <glyph glyph-name="C" unicode="C" horiz-adv-x="1073" 
d="M469 18q-184 -41 -319 50q-124 82 -142 223q-8 58 -8 92v647q2 130 82 223.5t209 112.5q178 25 287 -53q138 -97 147 -258q1 -32 -11 -45t-44 -15h-97q-31 2 -45 13.5t-18 40.5q-13 85 -88 100q-39 6 -63 7.5t-55.5 -8.5t-53.5 -36q-35 -38 -35 -98v-326q0 -213 2 -319
q0 -40 16 -80q22 -55 107 -66q70 -10 119 25q38 22 51 74q8 29 20 39t43 10q47 3 97 0q32 0 43.5 -13t11.5 -47q-3 -96 -74 -180q-74 -90 -182 -113z" />
    <glyph glyph-name="D" unicode="D" horiz-adv-x="1058" 
d="M80 0q-51 0 -65.5 14.5t-14.5 65.5v604v596v29q3 38 15 48.5t51 10.5q270 -5 346 -10q103 -8 189.5 -94.5t90.5 -188.5q8 -166 8 -497q0 -189 -8 -283q-7 -101 -79.5 -181t-172.5 -102q-50 -8 -71 -8q-192 -4 -289 -4zM244 221q108 -4 149 4q92 20 92 146v313v307
q0 85 -43 123q-19 17 -45.5 26t-44.5 10t-51 1q-57 0 -70.5 -12.5t-13.5 -69.5v-768q0 -35 4 -53q11 -27 23 -27z" />
    <glyph glyph-name="E" unicode="E" horiz-adv-x="950" 
d="M57 0q-29 0 -40 9t-15 40q-2 16 -2 49v588v588q0 17 4 49q3 24 12.5 34t32.5 11q54 2 162 -2q13 0 37 -2t37 -2h284q33 0 43 -8.5t11 -38.5v-125q-3 -33 -37 -39q-6 0 -20 -2t-21 -2h-277q-33 0 -41 -7.5t-8 -39.5q-3 -135 0 -273q0 -26 10.5 -35.5t38.5 -11.5h129
q30 0 41.5 -9.5t12.5 -39.5q3 -59 0 -117q-1 -27 -13.5 -37t-40.5 -10q-21 -1 -63 -1t-62 -1q-34 0 -44 -9t-11 -42q0 -166 2 -250q0 -32 9 -40.5t42 -8.5h234q35 0 49 -14t16 -49q3 -46 0 -91q-2 -34 -15.5 -47.5t-47.5 -13.5h-449z" />
    <glyph glyph-name="F" unicode="F" horiz-adv-x="952" 
d="M168 0h-121q-44 3 -47 47v98v541v617q0 35 13.5 51t54.5 16q169 -4 507 -8q48 0 48 -45q3 -59 0 -119q0 -22 -7.5 -31t-27.5 -14q-14 -4 -43 -4q-46 -1 -139.5 -1t-139.5 -1q-29 0 -40 -11t-11 -40v-260q0 -29 11.5 -41.5t39.5 -12.5q22 -1 66.5 -1t66.5 -1
q28 0 40 -11.5t12 -39.5q3 -53 0 -106q0 -30 -12.5 -43t-41.5 -13q0 -1 -65 -1l-64 1q-29 0 -41 -12t-12 -43v-440v-25q-3 -44 -47 -47z" />
    <glyph glyph-name="G" unicode="G" horiz-adv-x="1089" 
d="M496 23q-203 -61 -351 45q-122 86 -137 227q-4 39 -8 117v272q0 223 2 334q0 112 53 192q105 151 279 154q6 0 31 0.5t35 0l30 -1.5t35.5 -4.5t30.5 -8.5q180 -64 227 -252q3 -15 8 -60q2 -31 -9.5 -45.5t-41.5 -17.5q-68 -3 -123 2q-22 1 -29 8.5t-12 30.5
q-10 60 -25 82q-7 10 -16 18q-44 35 -80 33q-9 -1 -30.5 -1.5t-36.5 -1.5t-29 -5q-33 -9 -53 -33t-23 -59q-8 -54 -8 -78v-586q0 -41 8 -74q16 -65 80 -84q62 -21 127 0q68 22 80 92q0 4 6 89q3 48 -41 59q-37 8 -37 51q-3 54 0 109q0 25 10.5 37.5t36.5 13.5q111 3 199 -2
q24 0 31 -7.5t10 -31.5q1 -10 2.5 -29t2.5 -34t1 -29l1 -99q0 -98 -1 -98q-3 -121 -66.5 -207.5t-168.5 -117.5z" />
    <glyph glyph-name="H" unicode="H" horiz-adv-x="1050" 
d="M158 2q-22 -1 -63 0.5t-54 1.5q-39 0 -39 41q0 8 -1 25.5t-1 25.5v1186v21q2 43 13 54.5t55 12.5q17 0 49 -1t47 -1q49 0 49 -43q4 -28 4 -43v-504q0 -45 9 -54t53 -11h141q38 2 47.5 11.5t9.5 47.5v522q0 47 13.5 60.5t60.5 15.5q15 0 46 -1t48 -1q47 0 47 -51
q-3 -316 0 -631q0 -418 -2 -627q0 -35 -8 -44.5t-41 -12.5q-53 -3 -106 0q-33 1 -45.5 15.5t-12.5 48.5v372q0 36 -9 46.5t-42 11.5q-71 5 -158 2q-32 -1 -41.5 -12.5t-9.5 -45.5v-346v-33q-3 -36 -13.5 -47t-45.5 -12z" />
    <glyph glyph-name="I" unicode="I" horiz-adv-x="575" 
d="M174 0h-129q-33 3 -39 35q-6 48 -6 49v1200q0 15 4 35q3 28 15 38.5t40 10.5q52 3 101 0q31 0 42 -11t13 -42q2 -14 2 -45v-584v-588q0 -39 -2 -57q-3 -38 -41 -41z" />
    <glyph glyph-name="J" unicode="J" horiz-adv-x="868" 
d="M39 4q-37 0 -37 47q-2 39 -2 115q3 48 53 51q50 4 99 0q62 -5 102.5 33.5t40.5 109.5q1 0 1 248l-1 248v453q0 35 11.5 46t47.5 11h90q40 0 53 -12t13 -51v-418v-47v-494q0 -119 -70 -211.5t-182 -118.5q-22 -5 -54.5 -7.5t-50.5 -3t-63.5 0t-50.5 0.5z" />
    <glyph glyph-name="K" unicode="K" horiz-adv-x="1060" 
d="M57 0q-33 2 -45 13.5t-12 41.5v1258q0 31 12 43t43 12q0 2 49 1l50 -1q36 0 48.5 -12t12.5 -47v-355q0 -10 3.5 -28.5t4.5 -22.5q2 0 7 -1t8 -1q4 6 16 23.5t18 27.5q34 62 100.5 185t100.5 184q28 52 82 49q23 -2 62.5 -1.5t62.5 -0.5q65 0 33 -55q-88 -166 -170 -316
q-1 -1 -3 -4t-3 -4q-14 -26 -30.5 -57t-22.5 -40t-12.5 -27.5t-6 -22t3 -22.5t8 -30t16 -42.5t19.5 -61.5q29 -93 63.5 -199t76.5 -232t65 -198q18 -54 -41 -57h-109q-57 0 -73 53q-95 288 -144 432q-7 30 -18 50q-7 17 -18.5 18t-18.5 -14q-6 -10 -28 -46.5t-30 -53
t-16.5 -47.5t-7.5 -60q3 -40 3.5 -83.5t-0.5 -103t-1 -82.5q0 -36 -13 -49.5t-48 -13.5h-97z" />
    <glyph glyph-name="L" unicode="L" horiz-adv-x="927" 
d="M63 0q-35 0 -46.5 13t-14.5 46q-2 10 -2 31v596q0 397 2 598q0 33 2 39q5 25 16.5 35t36.5 10q53 3 107 0q29 -1 39 -12t12 -41q2 -16 2 -49v-965q0 -17 4 -49q3 -22 11.5 -29.5t31.5 -7.5h221h37q22 -2 33 -12t12 -33q3 -62 0 -127q-3 -37 -41 -43h-24h-439z" />
    <glyph glyph-name="M" unicode="M" horiz-adv-x="1214" 
d="M145 0q-34 0 -108 4q-32 3 -35 37q0 9 -1 26.5t-1 26.5v1186v10q0 54 12 66t66 12h201q43 0 55 -45q39 -161 72 -281q1 -6 16 -41q8 0 10 -2q22 49 23 54q12 43 33 130t32 130q8 33 21.5 44t46.5 11q104 3 209 0q35 0 47 -13t12 -50v-1035v-211q0 -27 -11 -41.5
t-38 -15.5h-117q-27 1 -38 15.5t-11 41.5v408v334q0 13 -3.5 36t-4.5 31q-2 0 -7.5 1t-7.5 1q-2 -8 -12.5 -39t-13.5 -49q-10 -38 -30 -114.5t-30 -114.5q-7 -33 -20 -43t-47 -10h-84q-43 -3 -55 43q-34 138 -72 276q-1 3 -18 49h-11q-6 -42 -6 -45q-2 -242 -2 -723v-24
q-1 -47 -14.5 -60.5t-57.5 -15.5z" />
    <glyph glyph-name="N" unicode="N" horiz-adv-x="1083" 
d="M174 0h-129q-19 1 -26.5 8.5t-12.5 26.5q-6 21 -6 41v1212v15q1 38 16.5 51.5t55.5 15.5q80 0 121 -2q31 0 46 -10.5t25 -40.5q27 -80 79.5 -239.5t78.5 -239.5q26 -82 51 -148q2 -8 9.5 -21t9.5 -18q6 5 9.5 9.5t5 10.5t2 9t0 11t-0.5 9v580q0 5 6 53q3 29 33 29h143
q13 0 22 -8.5t11 -22.5q0 -9 1 -26t1 -25v-1194q0 -7 -1 -22.5t-1 -22.5q-3 -39 -39 -39q-89 -3 -182 0q-36 0 -51 51q-9 30 -29 89.5t-29 88.5q-21 65 -64 196.5t-65 197.5q-4 12 -14.5 33.5t-11.5 23.5q-2 0 -6.5 -1t-6.5 -1q-4 -20 -4 -31q-4 -94 -4 -143v-412
q0 -8 -1 -26t-1 -27q-6 -38 -41 -41z" />
    <glyph glyph-name="O" unicode="O" horiz-adv-x="1077" 
d="M299 6q-95 13 -160 64q-122 91 -133 231q-6 73 -6 143v549q0 154 80 248q71 88 164 107q170 43 295 -19q160 -79 184 -252q6 -41 6 -78v-319q0 -38 0.5 -106.5t0.5 -124.5t-1 -105q-2 -110 -59.5 -195.5t-157.5 -123.5q-90 -36 -213 -19zM338 217q156 -16 176 117v35
q2 104 2 313q0 217 -2 326q0 111 -96 137q-11 3 -24 3.5t-31.5 -0.5t-26.5 -1q-38 0 -71 -24.5t-42 -61.5q-3 -12 -8 -68q0 -411 2 -616q0 -43 8 -74q23 -76 113 -86z" />
    <glyph glyph-name="P" unicode="P" horiz-adv-x="1040" 
d="M162 0q-86 0 -127 6q-9 1 -18.5 11t-12.5 20q-4 11 -4 53v592v594q0 61 12 73.5t72 12.5q232 0 297 -4q131 -6 222.5 -97t94.5 -214q0 -15 1.5 -66t2 -75t-0.5 -63t-5 -71q-12 -107 -88 -183.5t-182 -94.5q-25 -4 -150 -9q-39 -2 -49 -11t-10 -48v-338q0 -23 -2 -35
q0 -53 -53 -53zM264 700q46 -3 96 0q56 3 89 36.5t34 88.5q3 101 0 203q0 37 -23.5 69t-56.5 38q-51 8 -153 8q-33 0 -33 -43q1 -26 1 -56t-0.5 -66t-0.5 -56v-166v-11q-1 -24 11.5 -34.5t35.5 -10.5z" />
    <glyph glyph-name="Q" unicode="Q" horiz-adv-x="1093" 
d="M633 -14q-42 -33 -74 4q-33 36 -82 22q-68 -15 -139 -12q-115 6 -201.5 71t-118.5 169q-16 51 -16 137q-2 203 -2 612q4 132 49 209q104 161 281 164q10 0 37 0.5t41.5 0.5t36 -2.5t38.5 -8.5q206 -67 240 -273q6 -30 6 -65q2 -111 2 -330q0 -35 -0.5 -100t-0.5 -118.5
t1 -100.5q0 -90 -26 -154q-17 -36 10 -78q22 -28 21 -40.5t-27 -37.5q-29 -29 -76 -69zM324 231q-1 6 -4 15.5t-3 11.5q-12 30 -9.5 40t24.5 32q62 55 63 57q45 45 88 16q21 -15 29 15q4 12 4 20q0 387 -2 580q0 49 -24.5 81.5t-69.5 43.5q-11 4 -23 5t-32 0t-25 -1
q-42 0 -74 -24.5t-41 -63.5q-8 -24 -8 -64v-626q0 -53 16 -86q34 -55 91 -52z" />
    <glyph glyph-name="R" unicode="R" horiz-adv-x="1067" 
d="M549 0q-55 0 -70 57q-23 72 -69 206t-60 177q-12 37 -42.5 50.5t-65.5 -3.5q-8 -3 -14.5 -12t-6.5 -16q-4 -43 -4 -129q-2 -92 -2 -277q0 -43 -41 -43q-112 0 -135 2q-8 0 -18 10.5t-15 22.5q-6 14 -6 49v594v588v24q2 43 14.5 55.5t53.5 12.5q28 0 98.5 1t121.5 0.5
t99 -3.5q131 -7 222 -102t91 -220q4 -167 0 -251q-9 -132 -112 -215q-45 -39 -23 -99q51 -150 60 -180q18 -53 77 -236q11 -32 3 -45t-41 -16q-18 -2 -115 -2zM264 707q11 0 31 -0.5t37 -0.5t33 1q55 4 87.5 39.5t32.5 91.5q3 93 0 186q0 47 -24.5 79.5t-69.5 41.5
q-17 4 -37.5 5t-46 0.5t-39.5 0.5q-49 3 -49 -45v-176v-178q0 -42 45 -45z" />
    <glyph glyph-name="S" unicode="S" horiz-adv-x="1028" 
d="M313 0q-108 6 -197 82t-110 188q-8 45 4.5 60.5t57.5 15.5h43h30q64 9 84 -51q18 -53 65.5 -71.5t102.5 1.5q51 18 71 65.5t-5 98.5q-33 65 -105 137q-30 30 -90 80t-74 62q-155 134 -184 288q-28 151 57.5 266t223.5 136q71 11 137 -4.5t115 -49.5t83 -79.5t48 -94.5
q14 -42 16 -75q3 -24 -9 -38.5t-38 -15.5q-39 -4 -117 0q-41 0 -55 52q-18 82 -107 92q-74 12 -122 -49q-43 -63 -5 -144q14 -28 38 -58t41.5 -46t52.5 -47q12 -10 62 -52t70.5 -60.5t54.5 -54t58 -67.5q75 -103 79 -218t-66 -212q-109 -146 -310 -137z" />
    <glyph glyph-name="T" unicode="T" horiz-adv-x="983" 
d="M274 0q-35 3 -41 39q-2 12 -2 33v497v500v29q-8 28 -30 28q-12 1 -36 2t-36 2q-45 0 -88 3q-36 3 -39 41v129q3 35 39 38q50 5 63 5h478q13 0 63 -5q31 -3 31 -32q0 -16 0.5 -44.5t0.5 -52t-1 -43.5t-9 -27t-28 -7q-46 -5 -111 -5q-56 0 -69 -13t-13 -68v-981v-25
q-3 -41 -38 -41q-45 -2 -134 -2z" />
    <glyph glyph-name="U" unicode="U" horiz-adv-x="1085" 
d="M438 -8q-122 -17 -211 16q-183 64 -221 256q-6 40 -6 78v936v25q2 25 11.5 37.5t31.5 13.5q64 3 125 0q26 -1 36.5 -15t10.5 -43v-426v-532q0 -83 61 -117q44 -25 107.5 -18.5t93.5 39.5q31 43 31 82q0 106 1 316t1 316v310q0 29 2 41q5 27 16 37t37 10q55 3 111 0
q26 -1 36 -11.5t13 -37.5q0 -8 1 -25t1 -25v-469h-2v-444q3 -128 -66 -217q-83 -112 -221 -133z" />
    <glyph glyph-name="V" unicode="V" horiz-adv-x="1105" 
d="M438 0h-125q-51 0 -59 49q-7 36 -21.5 107.5t-21.5 107.5q-47 238 -53 275q-9 46 -28 137t-28 137q-6 31 -25.5 128t-29.5 151q-5 25 -20 103.5t-23 121.5q-9 38 31 47q12 4 20 4h107q52 0 61 -51q12 -62 36.5 -187.5t37.5 -187.5q27 -144 57 -285q1 -10 17 -41
q4 -2 12 -2l18 60q55 277 60 303q12 58 33 170t32 166q6 29 21.5 42t46.5 13q49 3 100 0q63 0 51 -65q-46 -238 -69 -355q-8 -40 -30 -146t-32 -163q-10 -51 -30.5 -154.5t-30.5 -154.5q-8 -42 -17.5 -89t-20.5 -104t-17 -88q-6 -29 -19 -39t-41 -10z" />
    <glyph glyph-name="W" unicode="W" horiz-adv-x="1323" 
d="M340 0q-170 0 -254 2q-39 0 -39 45q-6 125 -14 389q-5 115 -14.5 345t-14.5 345q-2 59 -2 177q0 29 12 41t41 12q81 4 119 0q17 -3 37 -31q6 -8 6 -37q4 -94 8 -282q3 -97 23 -580q0 -8 3.5 -23.5t4.5 -19.5q2 -1 6 -2t6 -2q2 5 10.5 25t10.5 32q28 103 88 346
q9 37 23.5 48.5t52.5 11.5h61q37 0 53 -12.5t23 -49.5q76 -303 88 -346q4 -20 20 -55q2 2 11 2q10 45 10 53q3 75 8 224.5t8 224.5q6 209 15 417q2 34 14 46t45 12h96q35 -2 47.5 -14.5t12.5 -47.5q-12 -302 -21 -589q-4 -76 -8 -232q-6 -141 -14 -426q-3 -47 -43 -47h-258
q-39 0 -52 45q-36 153 -63 250q-2 7 -8.5 20.5t-8.5 20.5q-3 0 -8.5 -1t-7.5 -1q-4 -16 -16 -54t-17 -59q-7 -29 -21.5 -86.5t-21.5 -85.5q-10 -51 -57 -51z" />
    <glyph glyph-name="X" unicode="X" horiz-adv-x="1077" 
d="M178 0h-129q-30 2 -38.5 15t1.5 42q11 30 35 91t35 90q91 236 149 378q22 56 0 117l-93.5 238t-127.5 319q-16 50 -3.5 65t59.5 15q45 -3 90 0q56 0 75 -51q56 -143 107 -268q3 -9 13.5 -25t13.5 -22q12 5 19.5 14t9.5 14t7 19q17 42 50.5 127t50.5 127t34 53.5t62 11.5
h86q40 -2 50 -17t-3 -53q-23 -60 -69.5 -178t-69.5 -178q-8 -21 -38 -98t-48 -119q-20 -53 0 -106q44 -107 124 -312t91 -233q7 -16 10 -37q3 -37 -31 -37q-74 -3 -147 0q-34 0 -51 43q-24 63 -66 164q-6 15 -17.5 45.5t-17.5 46.5q-1 2 -5 11.5t-6.5 13.5t-9 9.5t-15.5 8.5
q-20 -28 -27 -47q-16 -38 -45.5 -113.5t-44.5 -113.5q-5 -15 -17 -35q-15 -35 -53 -35z" />
    <glyph glyph-name="Y" unicode="Y" horiz-adv-x="1124" 
d="M338 0q-49 0 -49 51v211v160q3 71 -27 149q-42 120 -126 359.5t-126 359.5q-15 47 -4 62.5t62 15.5h86q33 0 49 -11t28 -42l129 -369q8 -24 17 -35q17 -23 35 2q7 11 14 33q24 66 67 189.5t60 171.5q15 39 30.5 50t57.5 11q1 0 45 1t45 -1q11 0 31 -4q17 -6 22 -15t0 -26
q-2 -8 -41 -127q-38 -107 -112.5 -320t-112.5 -319q-16 -50 -16 -96q2 -129 2 -387q0 -23 -2 -33q-3 -21 -14 -30t-35 -11h-115z" />
    <glyph glyph-name="Z" unicode="Z" horiz-adv-x="929" 
d="M78 0h-23q-28 4 -41 15t-12 42q3 23 0 45q-2 16 -3 32t1 33.5t3.5 30t7 32t8 29t10.5 31t10.5 28.5t12 30.5t11.5 28.5q34 89 126 329.5t141 372.5q15 41 6.5 54.5t-51.5 13.5h-209q-47 0 -59.5 13t-12.5 63v86q0 29 12 41t41 12h240h235q58 3 58 -55q3 -67 0 -133
q-1 -8 -17 -62q-176 -467 -315 -829q-15 -29 -9 -44t19 -19.5t39 -4.5q25 0 71.5 -0.5t85 -0.5t73.5 1q50 3 53 -49q3 -56 0 -113q0 -47 -51 -53h-25h-436z" />
    <glyph glyph-name="bracketleft" unicode="[" horiz-adv-x="724" 
d="M297 0q-160 0 -240 2q-36 0 -46.5 10.5t-10.5 46.5v625v623q0 37 9.5 48t43.5 11q128 3 256 0q32 0 44 -13t12 -46q3 -49 0 -97q0 -56 -56 -53q-24 1 -40 0t-27 -4t-16 -8.5t-8 -13.5t-3 -19.5v-26.5v-22v-807q0 -38 10.5 -48.5t48.5 -10.5h25q37 0 51.5 -14.5
t14.5 -49.5q1 -9 1 -19t-0.5 -22.5t-0.5 -19.5q0 -43 -13 -57t-55 -15z" />
    <glyph glyph-name="backslash" unicode="\" horiz-adv-x="1110" 
d="M721 0q-105 0 -158 2q-14 0 -25 10t-13.5 16t-10.5 27q-104 254 -143 346q-119 297 -361 887q-8 23 -10 37q-6 37 29 37h75h18q65 2 81 -7t36 -57q3 -5 7 -16q5 -12 8 -18q48 -118 219.5 -540t265.5 -650q10 -31 11 -35q8 -39 -29 -39z" />
    <glyph glyph-name="bracketright" unicode="]" horiz-adv-x="724" 
d="M293 0q-160 0 -240 2q-33 0 -42 10t-11 43v90q-3 45 51 52h39q36 0 48 12t14 49v143v680q0 49 -13 62.5t-61 13.5q-4 0 -11.5 -0.5t-14 -0.5t-11.5 1q-38 3 -41 41v129q3 37 39 37q31 0 89.5 0.5t106.5 0.5t91 -1q17 0 26.5 -10t11.5 -20t3 -29v-203v-420v-606
q0 -47 -14 -61.5t-60 -14.5z" />
    <glyph glyph-name="asciicircum" unicode="^" horiz-adv-x="1056" 
d="M545 958q-29 24 -85 66t-73 55q-28 23 -43 23t-43 -23q-23 -18 -68 -52.5t-67 -51.5q-31 -24 -49 -21.5t-43 33.5q-6 8 -28 36.5t-34 45.5q-27 38 6 64q48 38 145.5 113.5t145.5 113.5q5 4 33 18l19 -9.5t20 -10.5q48 -38 145.5 -114t145.5 -114q44 -32 12 -69
q-38 -49 -78 -96q-24 -34 -61 -7z" />
    <glyph glyph-name="underscore" unicode="_" horiz-adv-x="1269" 
d="M698 -215h-626q-46 0 -59 13t-13 59v90q2 31 13 42t40 11h402h397q34 0 46.5 -12t12.5 -47v-97q-1 -32 -14 -45t-45 -14h-154z" />
    <glyph glyph-name="grave" unicode="`" horiz-adv-x="614" 
d="M489 1430q-47 15 -96 30q-198 65 -315 107q-31 10 -38 23t1 42q14 46 29 78q3 5 8 11t12.5 12t9.5 8q22 -4 23 -4q69 -23 416 -140q41 -13 32 -59q-9 -33 -28 -84q-15 -35 -54 -24z" />
    <glyph glyph-name="a" unicode="a" 
d="M51 0q-32 0 -42.5 11t-6.5 42q9 65 45 248q18 89 53 267.5t52 267.5q16 81 47.5 241.5t46.5 241.5q10 57 65 51q18 -2 58 -2h47q43 0 57 -11t23 -54q126 -656 192 -984q9 -50 27 -141.5t22 -114.5q12 -63 -53 -63h-96q-34 0 -49 12.5t-21 46.5q-9 38 -20 101
q-8 41 -54 41h-147q-50 0 -59 -49q-3 -16 -10.5 -50.5t-10.5 -50.5q-8 -51 -65 -51h-101zM367 416h20q35 0 45.5 13t3.5 48q-19 109 -26 144q-5 21 -15.5 64t-15.5 65q-6 -2 -14 -2q-17 -34 -19 -41q-3 -19 -19.5 -99t-23.5 -123q-9 -46 2 -57.5t62 -11.5z" />
    <glyph glyph-name="b" unicode="b" horiz-adv-x="1060" 
d="M342 0q-150 3 -297 6q-25 1 -35 13t-10 38v631v617q0 38 13 50.5t53 12.5q30 -1 104.5 -1.5t127.5 -1.5t103 -5q128 -9 222 -117q76 -93 79 -239q0 -6 0.5 -31.5t0 -36t-1.5 -30.5t-4.5 -36t-8.5 -32q-14 -42 -47 -107q-26 -44 -2 -78q60 -84 63 -221q0 -128 -14 -180
q-58 -194 -258 -244q-29 -8 -88 -8zM256 215q96 0 141 8q32 7 53 30t29 56q17 85 0 183q-6 31 -34.5 58t-57.5 30q-45 2 -133 2q-23 -1 -31 -10.5t-8 -32.5v-136v-141q0 -44 41 -47zM367 803q41 -1 75 31t39 69q9 72 0 144q-6 39 -37.5 69t-70.5 31h-115q-25 -2 -34 -10.5
t-9 -32.5v-129v-129q0 -26 9 -34.5t36 -8.5h107z" />
    <glyph glyph-name="c" unicode="c" horiz-adv-x="1073" 
d="M469 18q-184 -41 -319 50q-124 82 -142 223q-8 58 -8 92v647q2 130 82 223.5t209 112.5q178 25 287 -53q138 -97 147 -258q1 -32 -11 -45t-44 -15h-97q-31 2 -45 13.5t-18 40.5q-13 85 -88 100q-39 6 -63 7.5t-55.5 -8.5t-53.5 -36q-35 -38 -35 -98v-326q0 -213 2 -319
q0 -40 16 -80q22 -55 107 -66q70 -10 119 25q38 22 51 74q8 29 20 39t43 10q47 3 97 0q32 0 43.5 -13t11.5 -47q-3 -96 -74 -180q-74 -90 -182 -113z" />
    <glyph glyph-name="d" unicode="d" horiz-adv-x="1058" 
d="M80 0q-51 0 -65.5 14.5t-14.5 65.5v604v596v29q3 38 15 48.5t51 10.5q270 -5 346 -10q103 -8 189.5 -94.5t90.5 -188.5q8 -166 8 -497q0 -189 -8 -283q-7 -101 -79.5 -181t-172.5 -102q-50 -8 -71 -8q-192 -4 -289 -4zM244 221q108 -4 149 4q92 20 92 146v313v307
q0 85 -43 123q-19 17 -45.5 26t-44.5 10t-51 1q-57 0 -70.5 -12.5t-13.5 -69.5v-768q0 -35 4 -53q11 -27 23 -27z" />
    <glyph glyph-name="e" unicode="e" horiz-adv-x="950" 
d="M57 0q-29 0 -40 9t-15 40q-2 16 -2 49v588v588q0 17 4 49q3 24 12.5 34t32.5 11q54 2 162 -2q13 0 37 -2t37 -2h284q33 0 43 -8.5t11 -38.5v-125q-3 -33 -37 -39q-6 0 -20 -2t-21 -2h-277q-33 0 -41 -7.5t-8 -39.5q-3 -135 0 -273q0 -26 10.5 -35.5t38.5 -11.5h129
q30 0 41.5 -9.5t12.5 -39.5q3 -59 0 -117q-1 -27 -13.5 -37t-40.5 -10q-21 -1 -63 -1t-62 -1q-34 0 -44 -9t-11 -42q0 -166 2 -250q0 -32 9 -40.5t42 -8.5h234q35 0 49 -14t16 -49q3 -46 0 -91q-2 -34 -15.5 -47.5t-47.5 -13.5h-449z" />
    <glyph glyph-name="f" unicode="f" horiz-adv-x="952" 
d="M168 0h-121q-44 3 -47 47v98v541v617q0 35 13.5 51t54.5 16q169 -4 507 -8q48 0 48 -45q3 -59 0 -119q0 -22 -7.5 -31t-27.5 -14q-14 -4 -43 -4q-46 -1 -139.5 -1t-139.5 -1q-29 0 -40 -11t-11 -40v-260q0 -29 11.5 -41.5t39.5 -12.5q22 -1 66.5 -1t66.5 -1
q28 0 40 -11.5t12 -39.5q3 -53 0 -106q0 -30 -12.5 -43t-41.5 -13q0 -1 -65 -1l-64 1q-29 0 -41 -12t-12 -43v-440v-25q-3 -44 -47 -47z" />
    <glyph glyph-name="g" unicode="g" horiz-adv-x="1089" 
d="M496 23q-203 -61 -351 45q-122 86 -137 227q-4 39 -8 117v272q0 223 2 334q0 112 53 192q105 151 279 154q6 0 31 0.5t35 0l30 -1.5t35.5 -4.5t30.5 -8.5q180 -64 227 -252q3 -15 8 -60q2 -31 -9.5 -45.5t-41.5 -17.5q-68 -3 -123 2q-22 1 -29 8.5t-12 30.5
q-10 60 -25 82q-7 10 -16 18q-44 35 -80 33q-9 -1 -30.5 -1.5t-36.5 -1.5t-29 -5q-33 -9 -53 -33t-23 -59q-8 -54 -8 -78v-586q0 -41 8 -74q16 -65 80 -84q62 -21 127 0q68 22 80 92q0 4 6 89q3 48 -41 59q-37 8 -37 51q-3 54 0 109q0 25 10.5 37.5t36.5 13.5q111 3 199 -2
q24 0 31 -7.5t10 -31.5q1 -10 2.5 -29t2.5 -34t1 -29l1 -99q0 -98 -1 -98q-3 -121 -66.5 -207.5t-168.5 -117.5z" />
    <glyph glyph-name="h" unicode="h" horiz-adv-x="1050" 
d="M158 2q-22 -1 -63 0.5t-54 1.5q-39 0 -39 41q0 8 -1 25.5t-1 25.5v1186v21q2 43 13 54.5t55 12.5q17 0 49 -1t47 -1q49 0 49 -43q4 -28 4 -43v-504q0 -45 9 -54t53 -11h141q38 2 47.5 11.5t9.5 47.5v522q0 47 13.5 60.5t60.5 15.5q15 0 46 -1t48 -1q47 0 47 -51
q-3 -316 0 -631q0 -418 -2 -627q0 -35 -8 -44.5t-41 -12.5q-53 -3 -106 0q-33 1 -45.5 15.5t-12.5 48.5v372q0 36 -9 46.5t-42 11.5q-71 5 -158 2q-32 -1 -41.5 -12.5t-9.5 -45.5v-346v-33q-3 -36 -13.5 -47t-45.5 -12z" />
    <glyph glyph-name="i" unicode="i" horiz-adv-x="575" 
d="M174 0h-129q-33 3 -39 35q-6 48 -6 49v1200q0 15 4 35q3 28 15 38.5t40 10.5q52 3 101 0q31 0 42 -11t13 -42q2 -14 2 -45v-584v-588q0 -39 -2 -57q-3 -38 -41 -41z" />
    <glyph glyph-name="j" unicode="j" horiz-adv-x="868" 
d="M39 4q-37 0 -37 47q-2 39 -2 115q3 48 53 51q50 4 99 0q62 -5 102.5 33.5t40.5 109.5q1 0 1 248l-1 248v453q0 35 11.5 46t47.5 11h90q40 0 53 -12t13 -51v-418v-47v-494q0 -119 -70 -211.5t-182 -118.5q-22 -5 -54.5 -7.5t-50.5 -3t-63.5 0t-50.5 0.5z" />
    <glyph glyph-name="k" unicode="k" horiz-adv-x="1060" 
d="M57 0q-33 2 -45 13.5t-12 41.5v1258q0 31 12 43t43 12q0 2 49 1l50 -1q36 0 48.5 -12t12.5 -47v-355q0 -10 3.5 -28.5t4.5 -22.5q2 0 7 -1t8 -1q4 6 16 23.5t18 27.5q34 62 100.5 185t100.5 184q28 52 82 49q23 -2 62.5 -1.5t62.5 -0.5q65 0 33 -55q-88 -166 -170 -316
q-1 -1 -3 -4t-3 -4q-14 -26 -30.5 -57t-22.5 -40t-12.5 -27.5t-6 -22t3 -22.5t8 -30t16 -42.5t19.5 -61.5q29 -93 63.5 -199t76.5 -232t65 -198q18 -54 -41 -57h-109q-57 0 -73 53q-95 288 -144 432q-7 30 -18 50q-7 17 -18.5 18t-18.5 -14q-6 -10 -28 -46.5t-30 -53
t-16.5 -47.5t-7.5 -60q3 -40 3.5 -83.5t-0.5 -103t-1 -82.5q0 -36 -13 -49.5t-48 -13.5h-97z" />
    <glyph glyph-name="l" unicode="l" horiz-adv-x="927" 
d="M63 0q-35 0 -46.5 13t-14.5 46q-2 10 -2 31v596q0 397 2 598q0 33 2 39q5 25 16.5 35t36.5 10q53 3 107 0q29 -1 39 -12t12 -41q2 -16 2 -49v-965q0 -17 4 -49q3 -22 11.5 -29.5t31.5 -7.5h221h37q22 -2 33 -12t12 -33q3 -62 0 -127q-3 -37 -41 -43h-24h-439z" />
    <glyph glyph-name="m" unicode="m" horiz-adv-x="1214" 
d="M145 0q-34 0 -108 4q-32 3 -35 37q0 9 -1 26.5t-1 26.5v1186v10q0 54 12 66t66 12h201q43 0 55 -45q39 -161 72 -281q1 -6 16 -41q8 0 10 -2q22 49 23 54q12 43 33 130t32 130q8 33 21.5 44t46.5 11q104 3 209 0q35 0 47 -13t12 -50v-1035v-211q0 -27 -11 -41.5
t-38 -15.5h-117q-27 1 -38 15.5t-11 41.5v408v334q0 13 -3.5 36t-4.5 31q-2 0 -7.5 1t-7.5 1q-2 -8 -12.5 -39t-13.5 -49q-10 -38 -30 -114.5t-30 -114.5q-7 -33 -20 -43t-47 -10h-84q-43 -3 -55 43q-34 138 -72 276q-1 3 -18 49h-11q-6 -42 -6 -45q-2 -242 -2 -723v-24
q-1 -47 -14.5 -60.5t-57.5 -15.5z" />
    <glyph glyph-name="n" unicode="n" horiz-adv-x="1083" 
d="M174 0h-129q-19 1 -26.5 8.5t-12.5 26.5q-6 21 -6 41v1212v15q1 38 16.5 51.5t55.5 15.5q80 0 121 -2q31 0 46 -10.5t25 -40.5q27 -80 79.5 -239.5t78.5 -239.5q26 -82 51 -148q2 -8 9.5 -21t9.5 -18q6 5 9.5 9.5t5 10.5t2 9t0 11t-0.5 9v580q0 5 6 53q3 29 33 29h143
q13 0 22 -8.5t11 -22.5q0 -9 1 -26t1 -25v-1194q0 -7 -1 -22.5t-1 -22.5q-3 -39 -39 -39q-89 -3 -182 0q-36 0 -51 51q-9 30 -29 89.5t-29 88.5q-21 65 -64 196.5t-65 197.5q-4 12 -14.5 33.5t-11.5 23.5q-2 0 -6.5 -1t-6.5 -1q-4 -20 -4 -31q-4 -94 -4 -143v-412
q0 -8 -1 -26t-1 -27q-6 -38 -41 -41z" />
    <glyph glyph-name="o" unicode="o" horiz-adv-x="1077" 
d="M299 6q-95 13 -160 64q-122 91 -133 231q-6 73 -6 143v549q0 154 80 248q71 88 164 107q170 43 295 -19q160 -79 184 -252q6 -41 6 -78v-319q0 -38 0.5 -106.5t0.5 -124.5t-1 -105q-2 -110 -59.5 -195.5t-157.5 -123.5q-90 -36 -213 -19zM338 217q156 -16 176 117v35
q2 104 2 313q0 217 -2 326q0 111 -96 137q-11 3 -24 3.5t-31.5 -0.5t-26.5 -1q-38 0 -71 -24.5t-42 -61.5q-3 -12 -8 -68q0 -411 2 -616q0 -43 8 -74q23 -76 113 -86z" />
    <glyph glyph-name="p" unicode="p" horiz-adv-x="1040" 
d="M162 0q-86 0 -127 6q-9 1 -18.5 11t-12.5 20q-4 11 -4 53v592v594q0 61 12 73.5t72 12.5q232 0 297 -4q131 -6 222.5 -97t94.5 -214q0 -15 1.5 -66t2 -75t-0.5 -63t-5 -71q-12 -107 -88 -183.5t-182 -94.5q-25 -4 -150 -9q-39 -2 -49 -11t-10 -48v-338q0 -23 -2 -35
q0 -53 -53 -53zM264 700q46 -3 96 0q56 3 89 36.5t34 88.5q3 101 0 203q0 37 -23.5 69t-56.5 38q-51 8 -153 8q-33 0 -33 -43q1 -26 1 -56t-0.5 -66t-0.5 -56v-166v-11q-1 -24 11.5 -34.5t35.5 -10.5z" />
    <glyph glyph-name="q" unicode="q" horiz-adv-x="1093" 
d="M633 -14q-42 -33 -74 4q-33 36 -82 22q-68 -15 -139 -12q-115 6 -201.5 71t-118.5 169q-16 51 -16 137q-2 203 -2 612q4 132 49 209q104 161 281 164q10 0 37 0.5t41.5 0.5t36 -2.5t38.5 -8.5q206 -67 240 -273q6 -30 6 -65q2 -111 2 -330q0 -35 -0.5 -100t-0.5 -118.5
t1 -100.5q0 -90 -26 -154q-17 -36 10 -78q22 -28 21 -40.5t-27 -37.5q-29 -29 -76 -69zM324 231q-1 6 -4 15.5t-3 11.5q-12 30 -9.5 40t24.5 32q62 55 63 57q45 45 88 16q21 -15 29 15q4 12 4 20q0 387 -2 580q0 49 -24.5 81.5t-69.5 43.5q-11 4 -23 5t-32 0t-25 -1
q-42 0 -74 -24.5t-41 -63.5q-8 -24 -8 -64v-626q0 -53 16 -86q34 -55 91 -52z" />
    <glyph glyph-name="r" unicode="r" horiz-adv-x="1067" 
d="M549 0q-55 0 -70 57q-23 72 -69 206t-60 177q-12 37 -42.5 50.5t-65.5 -3.5q-8 -3 -14.5 -12t-6.5 -16q-4 -43 -4 -129q-2 -92 -2 -277q0 -43 -41 -43q-112 0 -135 2q-8 0 -18 10.5t-15 22.5q-6 14 -6 49v594v588v24q2 43 14.5 55.5t53.5 12.5q28 0 98.5 1t121.5 0.5
t99 -3.5q131 -7 222 -102t91 -220q4 -167 0 -251q-9 -132 -112 -215q-45 -39 -23 -99q51 -150 60 -180q18 -53 77 -236q11 -32 3 -45t-41 -16q-18 -2 -115 -2zM264 707q11 0 31 -0.5t37 -0.5t33 1q55 4 87.5 39.5t32.5 91.5q3 93 0 186q0 47 -24.5 79.5t-69.5 41.5
q-17 4 -37.5 5t-46 0.5t-39.5 0.5q-49 3 -49 -45v-176v-178q0 -42 45 -45z" />
    <glyph glyph-name="s" unicode="s" horiz-adv-x="1028" 
d="M313 0q-108 6 -197 82t-110 188q-8 45 4.5 60.5t57.5 15.5h43h30q64 9 84 -51q18 -53 65.5 -71.5t102.5 1.5q51 18 71 65.5t-5 98.5q-33 65 -105 137q-30 30 -90 80t-74 62q-155 134 -184 288q-28 151 57.5 266t223.5 136q71 11 137 -4.5t115 -49.5t83 -79.5t48 -94.5
q14 -42 16 -75q3 -24 -9 -38.5t-38 -15.5q-39 -4 -117 0q-41 0 -55 52q-18 82 -107 92q-74 12 -122 -49q-43 -63 -5 -144q14 -28 38 -58t41.5 -46t52.5 -47q12 -10 62 -52t70.5 -60.5t54.5 -54t58 -67.5q75 -103 79 -218t-66 -212q-109 -146 -310 -137z" />
    <glyph glyph-name="t" unicode="t" horiz-adv-x="983" 
d="M274 0q-35 3 -41 39q-2 12 -2 33v497v500v29q-8 28 -30 28q-12 1 -36 2t-36 2q-45 0 -88 3q-36 3 -39 41v129q3 35 39 38q50 5 63 5h478q13 0 63 -5q31 -3 31 -32q0 -16 0.5 -44.5t0.5 -52t-1 -43.5t-9 -27t-28 -7q-46 -5 -111 -5q-56 0 -69 -13t-13 -68v-981v-25
q-3 -41 -38 -41q-45 -2 -134 -2z" />
    <glyph glyph-name="u" unicode="u" horiz-adv-x="1085" 
d="M438 -8q-122 -17 -211 16q-183 64 -221 256q-6 40 -6 78v936v25q2 25 11.5 37.5t31.5 13.5q64 3 125 0q26 -1 36.5 -15t10.5 -43v-426v-532q0 -83 61 -117q44 -25 107.5 -18.5t93.5 39.5q31 43 31 82q0 106 1 316t1 316v310q0 29 2 41q5 27 16 37t37 10q55 3 111 0
q26 -1 36 -11.5t13 -37.5q0 -8 1 -25t1 -25v-469h-2v-444q3 -128 -66 -217q-83 -112 -221 -133z" />
    <glyph glyph-name="v" unicode="v" horiz-adv-x="1105" 
d="M438 0h-125q-51 0 -59 49q-7 36 -21.5 107.5t-21.5 107.5q-47 238 -53 275q-9 46 -28 137t-28 137q-6 31 -25.5 128t-29.5 151q-5 25 -20 103.5t-23 121.5q-9 38 31 47q12 4 20 4h107q52 0 61 -51q12 -62 36.5 -187.5t37.5 -187.5q27 -144 57 -285q1 -10 17 -41
q4 -2 12 -2l18 60q55 277 60 303q12 58 33 170t32 166q6 29 21.5 42t46.5 13q49 3 100 0q63 0 51 -65q-46 -238 -69 -355q-8 -40 -30 -146t-32 -163q-10 -51 -30.5 -154.5t-30.5 -154.5q-8 -42 -17.5 -89t-20.5 -104t-17 -88q-6 -29 -19 -39t-41 -10z" />
    <glyph glyph-name="w" unicode="w" horiz-adv-x="1323" 
d="M340 0q-170 0 -254 2q-39 0 -39 45q-6 125 -14 389q-5 115 -14.5 345t-14.5 345q-2 59 -2 177q0 29 12 41t41 12q81 4 119 0q17 -3 37 -31q6 -8 6 -37q4 -94 8 -282q3 -97 23 -580q0 -8 3.5 -23.5t4.5 -19.5q2 -1 6 -2t6 -2q2 5 10.5 25t10.5 32q28 103 88 346
q9 37 23.5 48.5t52.5 11.5h61q37 0 53 -12.5t23 -49.5q76 -303 88 -346q4 -20 20 -55q2 2 11 2q10 45 10 53q3 75 8 224.5t8 224.5q6 209 15 417q2 34 14 46t45 12h96q35 -2 47.5 -14.5t12.5 -47.5q-12 -302 -21 -589q-4 -76 -8 -232q-6 -141 -14 -426q-3 -47 -43 -47h-258
q-39 0 -52 45q-36 153 -63 250q-2 7 -8.5 20.5t-8.5 20.5q-3 0 -8.5 -1t-7.5 -1q-4 -16 -16 -54t-17 -59q-7 -29 -21.5 -86.5t-21.5 -85.5q-10 -51 -57 -51z" />
    <glyph glyph-name="x" unicode="x" horiz-adv-x="1077" 
d="M178 0h-129q-30 2 -38.5 15t1.5 42q11 30 35 91t35 90q91 236 149 378q22 56 0 117l-93.5 238t-127.5 319q-16 50 -3.5 65t59.5 15q45 -3 90 0q56 0 75 -51q56 -143 107 -268q3 -9 13.5 -25t13.5 -22q12 5 19.5 14t9.5 14t7 19q17 42 50.5 127t50.5 127t34 53.5t62 11.5
h86q40 -2 50 -17t-3 -53q-23 -60 -69.5 -178t-69.5 -178q-8 -21 -38 -98t-48 -119q-20 -53 0 -106q44 -107 124 -312t91 -233q7 -16 10 -37q3 -37 -31 -37q-74 -3 -147 0q-34 0 -51 43q-24 63 -66 164q-6 15 -17.5 45.5t-17.5 46.5q-1 2 -5 11.5t-6.5 13.5t-9 9.5t-15.5 8.5
q-20 -28 -27 -47q-16 -38 -45.5 -113.5t-44.5 -113.5q-5 -15 -17 -35q-15 -35 -53 -35z" />
    <glyph glyph-name="y" unicode="y" horiz-adv-x="1124" 
d="M338 0q-49 0 -49 51v211v160q3 71 -27 149q-42 120 -126 359.5t-126 359.5q-15 47 -4 62.5t62 15.5h86q33 0 49 -11t28 -42l129 -369q8 -24 17 -35q17 -23 35 2q7 11 14 33q24 66 67 189.5t60 171.5q15 39 30.5 50t57.5 11q1 0 45 1t45 -1q11 0 31 -4q17 -6 22 -15t0 -26
q-2 -8 -41 -127q-38 -107 -112.5 -320t-112.5 -319q-16 -50 -16 -96q2 -129 2 -387q0 -23 -2 -33q-3 -21 -14 -30t-35 -11h-115z" />
    <glyph glyph-name="z" unicode="z" horiz-adv-x="929" 
d="M78 0h-23q-28 4 -41 15t-12 42q3 23 0 45q-2 16 -3 32t1 33.5t3.5 30t7 32t8 29t10.5 31t10.5 28.5t12 30.5t11.5 28.5q34 89 126 329.5t141 372.5q15 41 6.5 54.5t-51.5 13.5h-209q-47 0 -59.5 13t-12.5 63v86q0 29 12 41t41 12h240h235q58 3 58 -55q3 -67 0 -133
q-1 -8 -17 -62q-176 -467 -315 -829q-15 -29 -9 -44t19 -19.5t39 -4.5q25 0 71.5 -0.5t85 -0.5t73.5 1q50 3 53 -49q3 -56 0 -113q0 -47 -51 -53h-25h-436z" />
    <glyph glyph-name="braceleft" unicode="{" horiz-adv-x="827" 
d="M430 2q-113 -4 -166 6q-67 12 -110.5 61t-51.5 117q-3 24 -5 50.5t-4 59t-3 50.5q1 0 3 1t3 1q-4 100 -8 146q-3 43 -49 59q-42 15 -39 59q1 16 0.5 57.5t1.5 57.5q2 12 10 26t17 17q41 14 55 44t16 77q2 37 4.5 112t4.5 113q7 107 67.5 174t177.5 64h70q43 -3 43 -45
v-119q0 -26 -11.5 -38t-39.5 -13q-67 -3 -80 -15t-17 -77q-4 -47 -4 -144q0 -113 -43 -198q-20 -38 -2 -78q39 -79 39 -176v-179q0 -33 12.5 -45t45.5 -12q75 -1 87.5 -14t12.5 -88q0 -6 1 -22t0.5 -28t-3.5 -22q-3 -11 -15 -25t-20 -14z" />
    <glyph glyph-name="bar" unicode="|" horiz-adv-x="552" 
d="M123 -160q-59 0 -88 4q-8 1 -17 12t-12 21q-6 16 -6 53v742v741q0 63 12.5 77t69.5 13q12 0 38 -1t38 -1q29 -3 32 -37q0 -8 2.5 -24.5t2.5 -24.5v-1493q0 -53 -13 -67.5t-59 -14.5z" />
    <glyph glyph-name="braceright" unicode="}" horiz-adv-x="827" 
d="M51 0q-26 0 -37.5 11.5t-11.5 39.5q-1 19 -1 56t-1 55q0 47 49 53h57q28 0 40.5 11.5t13.5 39.5v125q-11 141 43 254q11 20 -2 51q-49 93 -49 238q0 30 -3 87t-4 71q-1 25 -14 36t-39 13q-68 1 -79 13t-11 81q0 8 -1 23.5t-1 28.5t2 24q3 13 14.5 27t20.5 14q40 5 93 3
t93 -18q122 -53 135 -204q3 -43 5 -120.5t4 -105.5q3 -47 18 -90q8 -22 43 -39q41 -17 41 -59q-1 -13 -1.5 -55t-2.5 -64q0 -11 -9.5 -24.5t-19.5 -16.5q-61 -22 -61 -104q-1 -29 -0.5 -107.5t-1.5 -107.5q-3 -131 -88 -197q-51 -40 -123 -43h-111z" />
    <glyph glyph-name="asciitilde" unicode="~" horiz-adv-x="1085" 
d="M154 498q-48 22 -125 73q-27 20 -29 38t20 44q10 11 30 34t30 34q27 35 65 8q10 -8 31 -20.5t29 -18.5q45 -28 80 10q14 16 47 37q96 70 203 29q36 -14 165 -92q5 -3 9.5 -8t10 -15t7.5 -12q-4 -6 -9.5 -18.5t-8.5 -16.5q-28 -30 -70 -69q-35 -30 -70 -5q-6 4 -18.5 12.5
t-18.5 12.5q-41 26 -68.5 23t-62.5 -37q-57 -57 -115 -67.5t-132 24.5z" />
    <glyph glyph-name="exclamdown" unicode="&#xa1;" horiz-adv-x="649" 
d="M92 696h103q34 0 44.5 -10.5t10.5 -42.5q2 -141 2 -424v-418q0 -54 -47 -51h-123q-37 0 -43 37q-2 14 -2 43q-1 116 -1 247.5t0.5 292.5t0.5 248v29q3 27 15 39.5t40 9.5zM145 1124q65 -2 105 -39t41 -104q1 -64 -39.5 -104t-108.5 -43q-57 -1 -100 43t-43 102
q2 60 42 103t103 42z" />
    <glyph glyph-name="cent" unicode="&#xa2;" horiz-adv-x="1054" 
d="M389 428q-51 0 -51 43q0 36 -18 55.5t-54 30.5q-116 36 -192.5 141.5t-73.5 233.5q-3 128 74.5 233.5t201.5 143.5q31 9 44.5 25t13.5 48q1 49 35 68.5t77 -2.5q11 -5 19.5 -21t7.5 -28q-8 -78 72 -105q12 -4 23 -9.5t24 -13.5t20.5 -13t22.5 -16t20 -15q42 -33 4 -74
q-12 -12 -71 -72q-26 -26 -39.5 -27t-44.5 21q-82 54 -167.5 25.5t-113.5 -117.5q-17 -52 1 -108t61 -87q51 -37 107.5 -38.5t105.5 32.5q10 10 22 19q34 28 46.5 27.5t43.5 -31.5q7 -7 20 -19.5t24 -23.5t20 -21q23 -25 23 -41t-23 -41q-64 -68 -148 -94q-56 -18 -53 -74
q1 -30 -11.5 -42.5t-43.5 -12.5h-29z" />
    <glyph glyph-name="sterling" unicode="&#xa3;" horiz-adv-x="1054" 
d="M350 0h-282q-34 0 -48.5 12.5t-17.5 44.5q-3 53 0 105q8 40 25 57q44 44 59 137q4 22 5 46t1.5 55.5t1.5 44.5q3 37 -33 49t-47 59t19 66q16 10 25 21t11 25.5t2 22t-3.5 27.5t-4.5 25q-11 69 -14.5 107.5t1 96.5t24.5 105q87 212 282 258q160 38 301 -90q33 -33 2 -60
q-14 -14 -30 -28.5t-35.5 -32.5t-30.5 -29q-24 -24 -61 -2q-53 28 -103.5 21.5t-89 -48t-43.5 -100.5q-5 -21 -1.5 -66t6.5 -65t10 -64.5t10 -64.5q7 -43 61 -47h119q42 0 45 -43q3 -23 0 -47q-3 -47 -47 -47q-17 1 -49.5 1t-50.5 1q-53 0 -56 -49q-4 -40 -13 -121t-13 -121
q-2 -28 9 -37.5t44 -9.5h297q36 0 47.5 -11t11.5 -46v-99q0 -34 -12.5 -46.5t-46.5 -12.5h-287z" />
    <glyph glyph-name="currency" unicode="&#xa4;" horiz-adv-x="1107" 
d="M147 313q-31 -1 -90.5 53.5t-54.5 77.5q7 33 33 52q26 23 33 51.5t0 62.5q-9 62 2 166q7 57 -23 82q-16 13 -29 29q-35 41 2 78q6 6 33.5 32.5t42.5 42.5q17 19 37 20t35 -18q31 -40 70.5 -50t89.5 5q14 4 33.5 4t32 -1.5t38.5 -5.5t33 -5q56 -10 84 23q8 10 26 28
q41 35 78 -2q20 -17 74 -71q40 -43 4 -74q-39 -34 -49 -75t4 -89q3 -10 4 -21.5t1 -20t-2 -23.5t-3 -21l-4 -24t-4 -21q-6 -26 -1 -49.5t28 -40.5q5 -3 18 -21q25 -26 25 -44t-25 -44q-57 -58 -70 -69q-37 -34 -75 -2q-12 12 -13 14q-22 29 -50.5 36.5t-70.5 0.5
q-64 -10 -153 0q-61 13 -96 -25q-8 -9 -48 -41zM373 584q40 0 71 30t31 70q0 41 -30.5 71t-71.5 29q-40 0 -69.5 -29t-29.5 -69t29.5 -70t69.5 -32z" />
    <glyph glyph-name="yen" unicode="&#xa5;" horiz-adv-x="1232" 
d="M385 0q-29 0 -41 11.5t-14 39.5v96q0 28 -12 41t-39 13h-168q-28 0 -40.5 11.5t-13.5 39.5v37q0 49 47 49q111 0 164 2q40 0 52.5 13t9.5 50q-3 41 -43 41h-90h-91q-49 3 -49 54v6q0 54 14 68t68 14q57 0 86 2q32 0 39 11t-4 42q-8 21 -24.5 64t-24.5 65
q-33 87 -99.5 261t-99.5 261q-19 46 -8.5 61t59.5 15h87q42 0 57.5 -9.5t28.5 -47.5q28 -72 82.5 -216.5t82.5 -215.5q5 -11 18.5 -30.5t16.5 -25.5q2 3 17 23t20 31q27 71 83 214.5t83 215.5q15 42 29.5 51.5t62.5 9.5h96q34 0 43.5 -13.5t-2.5 -47.5
q-36 -92 -106.5 -277.5t-106.5 -277.5q-30 -80 -41 -113q-11 -29 -3.5 -40t38.5 -11q41 -2 127 -6q41 0 41 -47q2 -64 -11 -77.5t-77 -13.5h-133q-45 3 -51 -47q-3 -24 9 -39t36 -16q33 -2 94 -2.5t80 -1.5q33 -1 43 -12t10 -45v-31q3 -49 -47 -49h-162q-37 0 -50 -13.5
t-13 -50.5v-86q0 -28 -11.5 -39.5t-37.5 -11.5h-111z" />
    <glyph glyph-name="copyright" unicode="&#xa9;" horiz-adv-x="1040" 
d="M342 330q-147 -1 -247.5 104t-94.5 252q6 134 107.5 231t236.5 93q65 2 127.5 -24.5t110 -73.5t75.5 -114.5t25 -142.5q-6 -132 -101.5 -228.5t-238.5 -96.5zM340 477q-65 -3 -117.5 38.5t-70.5 105.5q-17 66 10.5 128.5t87.5 94.5q60 31 125.5 19t109.5 -64
q15 -18 15 -49q0 -3 -15.5 -8.5t-23.5 -4.5q-18 3 -78 25q-72 27 -117 -27q-22 -25 -24.5 -60t16.5 -63q23 -34 65 -39.5t80 19.5q32 16 66 22q9 2 22.5 -2t14.5 -10q7 -23 -8 -45q-56 -80 -158 -80zM340 430q105 1 173.5 74t68.5 166q0 96 -69 166t-165 73
q-98 3 -173 -66.5t-75 -172.5q0 -97 71 -168.5t169 -71.5z" />
    <glyph glyph-name="guillemotleft" unicode="&#xab;" horiz-adv-x="1632" 
d="M907 252q-15 13 -46.5 41t-47.5 41q-53 49 -158.5 147.5t-158.5 147.5q-31 29 -31 43.5t31 42.5q65 62 196 183t197 183q30 26 46 25t44 -29q41 -41 72 -80q3 -3 5.5 -7.5t6 -12t6.5 -12.5q-25 -35 -33 -43q-32 -30 -68.5 -63.5t-80.5 -73.5t-70 -64q-35 -31 -35.5 -47.5
t33.5 -48.5q113 -101 217 -199q29 -26 31 -43.5t-23 -48.5q-13 -13 -36.5 -39t-36.5 -39q-31 -31 -60 -4zM442 252q-16 13 -47.5 41t-46.5 41q-53 49 -158.5 147.5t-158.5 147.5q-31 29 -31 43.5t31 42.5q66 62 197 183t196 183q30 26 46 25t44 -29q41 -41 72 -80
q3 -3 5.5 -7.5t6 -12t6.5 -12.5q-25 -35 -33 -43q-32 -30 -68.5 -63.5t-80.5 -73.5t-70 -64q-35 -31 -35.5 -47.5t33.5 -48.5q113 -101 217 -199q29 -26 31 -43.5t-23 -48.5q-13 -13 -36.5 -39t-36.5 -39q-31 -31 -60 -4z" />
    <glyph glyph-name="registered" unicode="&#xae;" horiz-adv-x="1040" 
d="M336 702q-137 2 -236.5 102.5t-99.5 239.5q0 140 102 239.5t246 98.5q95 -1 173.5 -49.5t121 -126.5t39.5 -164q5 -135 -97.5 -239t-248.5 -101zM190 877v331q-39 -13 -65.5 -63t-24.5 -107t27.5 -104t62.5 -57zM229 850q31 -46 111 -46.5t117 46.5q-68 5 -101 84
q-6 12 -10 14q-28 11 -33 10q-13 -3 -18 -26q-7 -75 -66 -82zM338 1065q2 0 8.5 0.5t9 1t8 1.5t8 2t6 4t5 6t3 8.5t1.5 11.5q0 14 -7.5 22t-16.5 9.5t-23 1.5q-15 0 -23.5 -1.5t-15 -9t-6.5 -22.5q0 -35 43 -35zM496 868q53 37 71 87.5t15 117.5q-5 65 -57 124.5t-119 76.5
q-110 25 -170 -25v-12q20 -4 32 -4q12 -1 33 -1t38 -1t32 -4q83 -12 111 -73.5t-15 -133.5q-19 -33 -14 -51q4 -15 11 -30.5t17 -37t15 -33.5z" />
    <glyph glyph-name="degree" unicode="&#xb0;" horiz-adv-x="501" 
d="M260 954q-90 -1 -153.5 59.5t-65.5 147.5q0 86 61.5 147.5t149.5 63.5q86 0 149 -60t64 -145q2 -85 -60 -149t-145 -64zM254 1098q29 0 48.5 19.5t19.5 47.5q-1 26 -23 47t-47 21q-26 -1 -47 -23.5t-21 -48.5q2 -28 22 -46t48 -17z" />
    <glyph glyph-name="acute" unicode="&#xb4;" horiz-adv-x="614" 
d="M125 1430q-38 -11 -53 24q-23 62 -29 84q-9 45 33 59q347 117 416 140q1 1 22 4q2 -2 9.5 -8t13 -12t8.5 -11q13 -27 28 -78q8 -29 1 -42t-37 -23q-104 -37 -316 -107q-49 -15 -96 -30z" />
    <glyph glyph-name="cedilla" unicode="&#xb8;" horiz-adv-x="344" 
d="M80 -426q-20 -4 -33.5 6.5t-15.5 32.5v39q0 24 1.5 33.5t2 19t11 15t17 8.5t31.5 12q37 16 49 41q8 11 1.5 23.5t-13 18.5t-19.5 15q-2 1 -3 2q-46 35 -58.5 70.5t2.5 91.5q0 12 4 12q72 20 90 21q44 4 58 -31q17 -41 51 -80q68 -73 54.5 -166.5t-101.5 -140.5
q-36 -21 -129 -43z" />
    <glyph glyph-name="guillemotright" unicode="&#xbb;" horiz-adv-x="1222" 
d="M162 252q-29 -27 -60 4q-12 13 -36.5 39t-36.5 39q-25 31 -23 48.5t31 43.5q104 98 217 199q34 32 33.5 48.5t-35.5 47.5q-26 24 -70 64t-80.5 73.5t-68.5 63.5q-8 8 -33 43q3 5 6.5 12.5t6 12t5.5 7.5q31 39 72 80q28 28 44 29t46 -25q66 -62 196.5 -183.5t196.5 -182.5
q31 -28 31 -42.5t-31 -43.5q-53 -49 -158.5 -147.5t-158.5 -147.5q-15 -14 -46.5 -41.5t-47.5 -40.5zM627 252q-29 -27 -60 4q-13 13 -37 39l-36 39q-25 31 -23 48.5t31 43.5q104 98 217 199q34 32 33.5 48.5t-35.5 47.5q-26 24 -70 64t-80.5 73.5t-68.5 63.5q-8 8 -33 43
q3 5 6.5 12.5t6 12t5.5 7.5q31 39 72 80q28 28 44 29t46 -25q65 -62 196 -183.5t197 -182.5q31 -28 31 -42.5t-31 -43.5q-53 -49 -158.5 -147.5t-158.5 -147.5q-16 -14 -47.5 -41.5t-46.5 -40.5z" />
    <glyph glyph-name="questiondown" unicode="&#xbf;" horiz-adv-x="1081" 
d="M481 692q32 -1 43 -17t6 -50q-12 -94 -65 -164t-146 -148q-117 -99 -100 -243q5 -39 36 -72t69 -37q68 -10 115 9.5t73 80.5q7 16 51 31q7 2 16.5 2t22 -1t19.5 -1h30q51 0 64.5 -17t1.5 -65q-26 -106 -110 -177t-187 -79q-173 -14 -279 66q-150 117 -141 309
q11 160 70 235q49 65 129 138q33 30 51 48.5t39 50t30 64.5q8 35 52 35q37 2 110 2zM422 1112q64 -2 103.5 -40t39.5 -103q1 -68 -41.5 -107t-103.5 -41q-58 0 -101 44.5t-43 103.5t41.5 101.5t104.5 41.5z" />
    <glyph glyph-name="Agrave" unicode="&#xc0;" 
d="M51 0q-32 0 -42.5 11t-6.5 42q9 65 45 248q18 89 53 267.5t52 267.5q16 81 47.5 241.5t46.5 241.5q10 57 65 51q18 -2 58 -2h47q43 0 57 -11t23 -54q126 -656 192 -984q9 -50 27 -141.5t22 -114.5q12 -63 -53 -63h-96q-34 0 -49 12.5t-21 46.5q-9 38 -20 101
q-8 41 -54 41h-147q-50 0 -59 -49q-3 -16 -10.5 -50.5t-10.5 -50.5q-8 -51 -65 -51h-101zM367 416h20q35 0 45.5 13t3.5 48q-19 109 -26 144q-5 21 -15.5 64t-15.5 65q-6 -2 -14 -2q-17 -34 -19 -41q-3 -19 -19.5 -99t-23.5 -123q-9 -46 2 -57.5t62 -11.5zM557 1430
q-47 15 -96 30q-212 70 -316 107q-30 10 -37 23t1 42q15 51 28 78q3 5 8.5 11t13 12t9.5 8q21 -3 22 -4q69 -23 416 -140q42 -14 33 -59q-6 -22 -29 -84q-15 -35 -53 -24z" />
    <glyph glyph-name="Aacute" unicode="&#xc1;" 
d="M51 0q-32 0 -42.5 11t-6.5 42q9 65 45 248q18 89 53 267.5t52 267.5q16 81 47.5 241.5t46.5 241.5q10 57 65 51q18 -2 58 -2h47q43 0 57 -11t23 -54q126 -656 192 -984q9 -50 27 -141.5t22 -114.5q12 -63 -53 -63h-96q-34 0 -49 12.5t-21 46.5q-9 38 -20 101
q-8 41 -54 41h-147q-50 0 -59 -49q-3 -16 -10.5 -50.5t-10.5 -50.5q-8 -51 -65 -51h-101zM367 416h20q35 0 45.5 13t3.5 48q-19 109 -26 144q-5 21 -15.5 64t-15.5 65q-6 -2 -14 -2q-17 -34 -19 -41q-3 -19 -19.5 -99t-23.5 -123q-9 -46 2 -57.5t62 -11.5zM160 1430
q-39 -11 -54 24q-19 51 -28 84q-9 45 33 59q381 129 415 140l23 4q2 -2 9.5 -8t13 -12t8.5 -11q13 -27 28 -78q8 -29 1 -42t-38 -23q-117 -42 -315 -107q-50 -15 -96 -30z" />
    <glyph glyph-name="Acircumflex" unicode="&#xc2;" 
d="M51 0q-32 0 -42.5 11t-6.5 42q9 65 45 248q18 89 53 267.5t52 267.5q16 81 47.5 241.5t46.5 241.5q10 57 65 51q18 -2 58 -2h47q43 0 57 -11t23 -54q126 -656 192 -984q9 -50 27 -141.5t22 -114.5q12 -63 -53 -63h-96q-34 0 -49 12.5t-21 46.5q-9 38 -20 101
q-8 41 -54 41h-147q-50 0 -59 -49q-3 -16 -10.5 -50.5t-10.5 -50.5q-8 -51 -65 -51h-101zM367 416h20q35 0 45.5 13t3.5 48q-19 109 -26 144q-5 21 -15.5 64t-15.5 65q-6 -2 -14 -2q-17 -34 -19 -41q-3 -19 -19.5 -99t-23.5 -123q-9 -46 2 -57.5t62 -11.5zM571 1427
q-21 -3 -49 17q-33 24 -102 80q-29 23 -47 23t-47 -23q-17 -13 -50 -38.5t-49 -37.5q-23 -19 -38 -17.5t-35 23.5q-2 2 -50 62q-31 38 9 67q140 111 221 174q37 30 74 0q114 -85 225 -174q5 -4 10 -11t9.5 -14.5t6.5 -9.5q-1 -25 -36 -72t-52 -49z" />
    <glyph glyph-name="Atilde" unicode="&#xc3;" 
d="M51 0q-32 0 -42.5 11t-6.5 42q9 65 45 248q18 89 53 267.5t52 267.5q16 81 47.5 241.5t46.5 241.5q10 57 65 51q18 -2 58 -2h47q43 0 57 -11t23 -54q126 -656 192 -984q9 -50 27 -141.5t22 -114.5q12 -63 -53 -63h-96q-34 0 -49 12.5t-21 46.5q-9 38 -20 101
q-8 41 -54 41h-147q-50 0 -59 -49q-3 -16 -10.5 -50.5t-10.5 -50.5q-8 -51 -65 -51h-101zM367 416h20q35 0 45.5 13t3.5 48q-19 109 -26 144q-5 21 -15.5 64t-15.5 65q-6 -2 -14 -2q-17 -34 -19 -41q-3 -19 -19.5 -99t-23.5 -123q-9 -46 2 -57.5t62 -11.5zM193 1452
q-84 37 -166 94q-24 15 -25.5 31.5t16.5 40.5q8 11 26 30t22 23q30 37 71 10q9 -6 28 -18t28 -18q32 -20 51 -18t47 28q86 86 203 69q112 -16 208 -106q4 -4 13 -27q-11 -22 -13 -24q-5 -6 -16.5 -18.5t-18 -19.5t-16 -16.5t-18.5 -15.5q-9 -7 -25 -8t-26 4q-15 7 -39.5 23
t-36.5 22q-54 25 -98 -16q-8 -8 -26.5 -23t-19.5 -16q-87 -70 -169 -31z" />
    <glyph glyph-name="Adieresis" unicode="&#xc4;" 
d="M51 0q-32 0 -42.5 11t-6.5 42q9 65 45 248q18 89 53 267.5t52 267.5q16 81 47.5 241.5t46.5 241.5q10 57 65 51q18 -2 58 -2h47q43 0 57 -11t23 -54q126 -656 192 -984q9 -50 27 -141.5t22 -114.5q12 -63 -53 -63h-96q-34 0 -49 12.5t-21 46.5q-9 38 -20 101
q-8 41 -54 41h-147q-50 0 -59 -49q-3 -16 -10.5 -50.5t-10.5 -50.5q-8 -51 -65 -51h-101zM367 416h20q35 0 45.5 13t3.5 48q-19 109 -26 144q-5 21 -15.5 64t-15.5 65q-6 -2 -14 -2q-17 -34 -19 -41q-3 -19 -19.5 -99t-23.5 -123q-9 -46 2 -57.5t62 -11.5zM555 1436
q-44 0 -74 29.5t-30 72.5q0 46 30 75t76 29q42 5 74 -25t33 -79q1 -42 -31.5 -72t-77.5 -30zM176 1436q-43 0 -73.5 30t-30.5 74q-1 43 30.5 73.5t75.5 28.5q46 3 76.5 -28.5t30.5 -75.5q1 -44 -31 -73t-78 -29z" />
    <glyph glyph-name="Aring" unicode="&#xc5;" 
d="M51 0q-32 0 -42.5 11t-6.5 42q9 65 45 248q18 89 53 267.5t52 267.5q16 81 47.5 241.5t46.5 241.5q10 57 65 51q18 -2 58 -2h47q43 0 57 -11t23 -54q126 -656 192 -984q9 -50 27 -141.5t22 -114.5q12 -63 -53 -63h-96q-34 0 -49 12.5t-21 46.5q-9 38 -20 101
q-8 41 -54 41h-147q-50 0 -59 -49q-3 -16 -10.5 -50.5t-10.5 -50.5q-8 -51 -65 -51h-101zM367 416h20q35 0 45.5 13t3.5 48q-19 109 -26 144q-5 21 -15.5 64t-15.5 65q-6 -2 -14 -2q-17 -34 -19 -41q-3 -19 -19.5 -99t-23.5 -123q-9 -46 2 -57.5t62 -11.5zM377 1432
q-90 -1 -153.5 59t-65.5 147q0 86 61.5 148t149.5 63q86 0 149 -59.5t64 -144.5q2 -85 -60 -149t-145 -64zM371 1575q29 0 48 19.5t19 47.5q-1 26 -22.5 47t-46.5 21q-26 -1 -47 -23.5t-21 -48.5q2 -28 22 -46t48 -17z" />
    <glyph glyph-name="Ccedilla" unicode="&#xc7;" horiz-adv-x="1083" 
d="M469 18q-184 -41 -319 50q-124 82 -142 223q-8 58 -8 92v647q2 130 82 223.5t209 112.5q178 25 287 -53q138 -97 147 -258q1 -32 -11 -45t-44 -15h-97q-31 2 -45 13.5t-18 40.5q-13 85 -88 100q-39 6 -63 7.5t-55.5 -8.5t-53.5 -36q-35 -38 -35 -98v-326q0 -213 2 -319
q0 -40 16 -80q22 -55 107 -66q70 -10 119 25q38 22 51 74q8 29 20 39t43 10q47 3 97 0q32 0 43.5 -13t11.5 -47q-3 -96 -74 -180q-74 -90 -182 -113zM305 -426q-20 -4 -33.5 6.5t-15.5 32.5v39q0 24 1.5 33.5t2 19t11 15t17 8.5t31.5 12q38 17 50 41q11 27 -31 56q-3 2 -4 3
q-46 35 -58 70.5t3 91.5q0 12 4 12q72 20 90 21q43 4 57 -31q17 -41 51 -80q68 -73 54.5 -166.5t-101.5 -140.5q-36 -21 -129 -43z" />
    <glyph glyph-name="Egrave" unicode="&#xc8;" horiz-adv-x="1001" 
d="M57 0q-29 0 -40 9t-15 40q-2 16 -2 49v588v588q0 17 4 49q3 24 12.5 34t32.5 11q54 2 162 -2q13 0 37 -2t37 -2h284q33 0 43 -8.5t11 -38.5v-125q-3 -33 -37 -39q-6 0 -20 -2t-21 -2h-277q-33 0 -41 -7.5t-8 -39.5q-3 -135 0 -273q0 -26 10.5 -35.5t38.5 -11.5h129
q30 0 41.5 -9.5t12.5 -39.5q3 -59 0 -117q-1 -27 -13.5 -37t-40.5 -10q-21 -1 -63 -1t-62 -1q-34 0 -44 -9t-11 -42q0 -166 2 -250q0 -32 9 -40.5t42 -8.5h234q35 0 49 -14t16 -49q3 -46 0 -91q-2 -34 -15.5 -47.5t-47.5 -13.5h-449zM489 1430q-47 15 -96 30
q-198 65 -315 107q-31 10 -38 23t1 42q14 46 29 78q3 5 8 11t12.5 12t9.5 8q22 -4 23 -4q69 -23 416 -140q41 -13 32 -59q-9 -33 -28 -84q-15 -35 -54 -24z" />
    <glyph glyph-name="Eacute" unicode="&#xc9;" horiz-adv-x="993" 
d="M57 0q-29 0 -40 9t-15 40q-2 16 -2 49v588v588q0 17 4 49q3 24 12.5 34t32.5 11q54 2 162 -2q13 0 37 -2t37 -2h284q33 0 43 -8.5t11 -38.5v-125q-3 -33 -37 -39q-6 0 -20 -2t-21 -2h-277q-33 0 -41 -7.5t-8 -39.5q-3 -135 0 -273q0 -26 10.5 -35.5t38.5 -11.5h129
q30 0 41.5 -9.5t12.5 -39.5q3 -59 0 -117q-1 -27 -13.5 -37t-40.5 -10q-21 -1 -63 -1t-62 -1q-34 0 -44 -9t-11 -42q0 -166 2 -250q0 -32 9 -40.5t42 -8.5h234q35 0 49 -14t16 -49q3 -46 0 -91q-2 -34 -15.5 -47.5t-47.5 -13.5h-449zM125 1430q-38 -11 -53 24q-23 62 -29 84
q-9 45 33 59q347 117 416 140q1 1 22 4q2 -2 9.5 -8t13 -12t8.5 -11q13 -27 28 -78q8 -29 1 -42t-37 -23q-104 -37 -316 -107q-49 -15 -96 -30z" />
    <glyph glyph-name="Ecircumflex" unicode="&#xca;" horiz-adv-x="1009" 
d="M57 0q-29 0 -40 9t-15 40q-2 16 -2 49v588v588q0 17 4 49q3 24 12.5 34t32.5 11q54 2 162 -2q13 0 37 -2t37 -2h284q33 0 43 -8.5t11 -38.5v-125q-3 -33 -37 -39q-6 0 -20 -2t-21 -2h-277q-33 0 -41 -7.5t-8 -39.5q-3 -135 0 -273q0 -26 10.5 -35.5t38.5 -11.5h129
q30 0 41.5 -9.5t12.5 -39.5q3 -59 0 -117q-1 -27 -13.5 -37t-40.5 -10q-21 -1 -63 -1t-62 -1q-34 0 -44 -9t-11 -42q0 -166 2 -250q0 -32 9 -40.5t42 -8.5h234q35 0 49 -14t16 -49q3 -46 0 -91q-2 -34 -15.5 -47.5t-47.5 -13.5h-449zM514 1427q-21 -3 -49 17q-41 29 -103 80
q-29 23 -47 23t-47 -23q-16 -13 -48.5 -38t-49.5 -38q-23 -19 -38.5 -17.5t-35.5 23.5q-8 8 -16.5 18.5t-17.5 23.5t-15 20q-31 39 8 67q139 111 221 174q37 30 74 0q114 -85 225 -174q5 -4 10.5 -11t10.5 -14.5t6 -9.5q-1 -25 -36 -72t-52 -49z" />
    <glyph glyph-name="Edieresis" unicode="&#xcb;" horiz-adv-x="1013" 
d="M57 0q-29 0 -40 9t-15 40q-2 16 -2 49v588v588q0 17 4 49q3 24 12.5 34t32.5 11q54 2 162 -2q13 0 37 -2t37 -2h284q33 0 43 -8.5t11 -38.5v-125q-3 -33 -37 -39q-6 0 -20 -2t-21 -2h-277q-33 0 -41 -7.5t-8 -39.5q-3 -135 0 -273q0 -26 10.5 -35.5t38.5 -11.5h129
q30 0 41.5 -9.5t12.5 -39.5q3 -59 0 -117q-1 -27 -13.5 -37t-40.5 -10q-21 -1 -63 -1t-62 -1q-34 0 -44 -9t-11 -42q0 -166 2 -250q0 -32 9 -40.5t42 -8.5h234q35 0 49 -14t16 -49q3 -46 0 -91q-2 -34 -15.5 -47.5t-47.5 -13.5h-449zM500 1436q-44 0 -74.5 29.5t-30.5 72.5
q0 45 30.5 74.5t76.5 29.5q42 5 73.5 -25t32.5 -79q1 -42 -31 -72t-77 -30zM121 1436q-43 0 -74 30t-31 74q-1 43 31 73.5t76 28.5q46 3 76 -28.5t30 -75.5q1 -44 -30.5 -73t-77.5 -29z" />
    <glyph glyph-name="Igrave" unicode="&#xcc;" horiz-adv-x="843" 
d="M281 0h-129q-33 3 -39 35q0 4 -3.5 22t-3.5 27v1200q0 10 5 35q3 28 15 38.5t40 10.5q51 3 100 0q31 0 43 -11t13 -42q2 -14 2 -45v-584v-588q0 -39 -2 -57q-3 -38 -41 -41zM401 1430q-47 15 -96 30q-198 65 -315 107q-31 10 -38 23t1 42q14 46 29 78q3 5 8 11t12.5 12
t9.5 8q22 -4 23 -4q68 -23 416 -140q41 -13 32 -59q-9 -33 -28 -84q-15 -35 -54 -24z" />
    <glyph glyph-name="Iacute" unicode="&#xcd;" horiz-adv-x="843" 
d="M276 0h-129q-32 3 -38 35q0 4 -3.5 22t-3.5 27v1200q0 15 4 35q3 28 15.5 38.5t40.5 10.5q51 3 100 0q31 0 42 -11t13 -42q2 -14 2 -45v-584v-588q0 -39 -2 -57q-3 -38 -41 -41zM33 1430q-38 -11 -53 24q-23 62 -29 84q-9 45 33 59q381 129 415 140q1 0 23 4q2 -2 9.5 -8
t13 -12t8.5 -11q13 -27 28 -78q8 -29 1 -42t-38 -23q-117 -42 -315 -107q-49 -15 -96 -30z" />
    <glyph glyph-name="Icircumflex" unicode="&#xce;" horiz-adv-x="874" 
d="M287 0h-129q-33 3 -39 35q-6 48 -6 49v1200q0 15 4 35q3 28 15 38.5t40 10.5q51 3 100 0q31 0 43 -11t13 -42q2 -14 2 -45v-584v-588q0 -39 -2 -57q-3 -38 -41 -41zM428 1427q-21 -3 -49 17q-41 29 -103 80q-29 23 -47 23t-47 -23q-17 -13 -49.5 -38t-48.5 -38
q-23 -19 -38.5 -17.5t-35.5 23.5q-8 8 -16.5 18.5t-17.5 23.5t-15 20q-31 39 8 67q139 111 221 174q37 30 74 0q114 -85 225 -174q5 -4 10.5 -11t10.5 -14.5t6 -9.5q-1 -25 -36 -72t-52 -49z" />
    <glyph glyph-name="Idieresis" unicode="&#xcf;" horiz-adv-x="899" 
d="M311 0h-129q-33 3 -39 35q-6 48 -6 49v1200q0 15 4 35q3 28 15.5 38.5t40.5 10.5q51 3 100 0q31 0 42 -11t13 -42q2 -14 2 -45v-584v-588q0 -39 -2 -57q-3 -38 -41 -41zM432 1436q-44 0 -74 29.5t-30 72.5q0 46 30 75t76 29q42 5 74 -25t33 -79q1 -42 -31.5 -72
t-77.5 -30zM53 1436q-43 0 -73.5 30t-30.5 74q-1 43 30.5 73.5t75.5 28.5q46 3 76.5 -28.5t30.5 -75.5q1 -44 -31 -73t-78 -29z" />
    <glyph glyph-name="Ntilde" unicode="&#xd1;" horiz-adv-x="1132" 
d="M174 0h-129q-19 1 -26.5 8.5t-12.5 26.5q-6 21 -6 41v1212v15q1 38 16.5 51.5t55.5 15.5q80 0 121 -2q31 0 46 -10.5t25 -40.5q27 -80 79.5 -239.5t78.5 -239.5q26 -82 51 -148q2 -8 9.5 -21t9.5 -18q6 5 9.5 9.5t5 10.5t2 9t0 11t-0.5 9v580q0 5 6 53q3 29 33 29h143
q13 0 22 -8.5t11 -22.5q0 -9 1 -26t1 -25v-1194q0 -7 -1 -22.5t-1 -22.5q-3 -39 -39 -39q-89 -3 -182 0q-36 0 -51 51q-9 30 -29 89.5t-29 88.5q-21 65 -64 196.5t-65 197.5q-4 12 -14.5 33.5t-11.5 23.5q-2 0 -6.5 -1t-6.5 -1q-4 -20 -4 -31q-4 -94 -4 -143v-412
q0 -8 -1 -26t-1 -27q-6 -38 -41 -41zM197 1452q-84 37 -166 94q-24 14 -25 31t17 41q1 1 47 53q30 37 71 10q9 -6 28 -18t28 -18q32 -20 51 -18t47 28q86 86 203 69q113 -17 209 -106q2 -2 12 -27l-12 -24q-53 -58 -70 -70q-9 -7 -25 -8t-26 4q-15 7 -39.5 23t-36.5 22
q-54 25 -98 -16q-3 -3 -45 -39q-87 -70 -170 -31z" />
    <glyph glyph-name="Ograve" unicode="&#xd2;" horiz-adv-x="1087" 
d="M299 6q-95 13 -160 64q-122 91 -133 231q-6 73 -6 143v549q0 154 80 248q71 88 164 107q170 43 295 -19q160 -79 184 -252q6 -41 6 -78v-319q0 -38 0.5 -106.5t0.5 -124.5t-1 -105q-2 -110 -59.5 -195.5t-157.5 -123.5q-90 -36 -213 -19zM338 217q156 -16 176 117v35
q2 104 2 313q0 217 -2 326q0 111 -96 137q-11 3 -24 3.5t-31.5 -0.5t-26.5 -1q-38 0 -71 -24.5t-42 -61.5q-3 -12 -8 -68q0 -411 2 -616q0 -43 8 -74q23 -76 113 -86zM549 1430q-47 15 -96 30q-212 70 -316 107q-31 10 -38 23t1 42q14 46 29 78q3 5 8.5 11t13 12t9.5 8
q21 -3 22 -4q69 -23 416 -140q42 -14 33 -59q-6 -22 -29 -84q-15 -35 -53 -24z" />
    <glyph glyph-name="Oacute" unicode="&#xd3;" horiz-adv-x="1087" 
d="M299 6q-95 13 -160 64q-122 91 -133 231q-6 73 -6 143v549q0 154 80 248q71 88 164 107q170 43 295 -19q160 -79 184 -252q6 -41 6 -78v-319q0 -38 0.5 -106.5t0.5 -124.5t-1 -105q-2 -110 -59.5 -195.5t-157.5 -123.5q-90 -36 -213 -19zM338 217q156 -16 176 117v35
q2 104 2 313q0 217 -2 326q0 111 -96 137q-11 3 -24 3.5t-31.5 -0.5t-26.5 -1q-38 0 -71 -24.5t-42 -61.5q-3 -12 -8 -68q0 -411 2 -616q0 -43 8 -74q23 -76 113 -86zM156 1430q-39 -11 -54 24q-19 51 -28 84q-9 46 32 59q347 117 416 140l23 4q2 -2 9.5 -8t12.5 -12t8 -11
q15 -32 29 -78q8 -29 1 -42t-38 -23q-117 -42 -315 -107q-50 -15 -96 -30z" />
    <glyph glyph-name="Ocircumflex" unicode="&#xd4;" horiz-adv-x="1087" 
d="M299 6q-95 13 -160 64q-122 91 -133 231q-6 73 -6 143v549q0 154 80 248q71 88 164 107q170 43 295 -19q160 -79 184 -252q6 -41 6 -78v-319q0 -38 0.5 -106.5t0.5 -124.5t-1 -105q-2 -110 -59.5 -195.5t-157.5 -123.5q-90 -36 -213 -19zM338 217q156 -16 176 117v35
q2 104 2 313q0 217 -2 326q0 111 -96 137q-11 3 -24 3.5t-31.5 -0.5t-26.5 -1q-38 0 -71 -24.5t-42 -61.5q-3 -12 -8 -68q0 -411 2 -616q0 -43 8 -74q23 -76 113 -86zM561 1427q-21 -3 -49 17q-33 24 -102 80q-29 23 -47.5 23t-47.5 -23q-16 -13 -49 -38t-49 -38
q-23 -19 -38.5 -17.5t-35.5 23.5q-8 8 -16.5 18.5t-17.5 23.5t-15 20q-31 39 8 67q111 89 222 174q36 29 73 0q131 -98 226 -174q5 -4 10 -11t9.5 -14.5t6.5 -9.5q-1 -25 -36 -72t-52 -49z" />
    <glyph glyph-name="Otilde" unicode="&#xd5;" horiz-adv-x="1138" 
d="M295 6q-95 13 -160 64q-122 91 -133 231q-6 73 -6 143v549q0 154 80 248q71 88 164 107q170 43 295 -19q160 -79 184 -252q6 -41 6 -78v-319q0 -38 0.5 -106.5t0.5 -124.5t-1 -105q-2 -110 -59.5 -195.5t-157.5 -123.5q-90 -36 -213 -19zM334 217q156 -16 176 117v35
q2 104 2 313q0 217 -2 326q0 111 -96 137q-11 3 -24 3.5t-31.5 -0.5t-26.5 -1q-38 0 -71 -24.5t-42 -61.5q-3 -12 -8 -68q0 -411 2 -616q0 -43 8 -74q23 -76 113 -86zM197 1452q-84 37 -166 94q-24 14 -25 31t17 41q1 1 47 53q30 37 71 10q9 -6 28 -18t28 -18q32 -20 51 -18
t47 28q86 86 203 69q113 -17 209 -106q2 -2 12 -27l-12 -24q-53 -58 -70 -70q-9 -7 -25 -8t-26 4q-15 7 -39.5 23t-36.5 22q-54 25 -98 -16q-3 -3 -45 -39q-87 -70 -170 -31z" />
    <glyph glyph-name="Odieresis" unicode="&#xd6;" horiz-adv-x="1089" 
d="M299 6q-95 13 -160 64q-122 91 -133 231q-6 73 -6 143v549q0 154 80 248q71 88 164 107q170 43 295 -19q160 -79 184 -252q6 -41 6 -78v-319q0 -38 0.5 -106.5t0.5 -124.5t-1 -105q-2 -110 -59.5 -195.5t-157.5 -123.5q-90 -36 -213 -19zM338 217q156 -16 176 117v35
q2 104 2 313q0 217 -2 326q0 111 -96 137q-11 3 -24 3.5t-31.5 -0.5t-26.5 -1q-38 0 -71 -24.5t-42 -61.5q-3 -12 -8 -68q0 -411 2 -616q0 -43 8 -74q23 -76 113 -86zM561 1436q-44 0 -74 29.5t-30 72.5q0 46 30 75t76 29q42 5 74 -25t33 -79q1 -42 -31.5 -72t-77.5 -30z
M182 1436q-43 0 -73.5 30t-30.5 74q-1 43 30.5 73.5t75.5 28.5q46 3 76.5 -28.5t30.5 -75.5q1 -44 -31 -73t-78 -29z" />
    <glyph glyph-name="multiply" unicode="&#xd7;" horiz-adv-x="1122" 
d="M592 317q-109 109 -162 164q-31 29 -49 29t-47 -29q-27 -26 -80.5 -79t-79.5 -80q-23 -23 -39 -24t-39 21q-31 29 -71 72q-25 27 -25.5 41.5t25.5 42.5q25 25 76 76.5t77 77.5q35 34 35 50.5t-35 51.5q-25 25 -151 152q-28 28 -27.5 43.5t29.5 44.5l69 69q6 6 20 13.5
t19 11.5q4 -3 17 -12t18 -15q27 -26 80.5 -79t81.5 -78q31 -31 48 -31t48 31q27 25 80 78t80 79q24 23 39 22.5t37 -22.5q27 -25 77 -75q22 -23 21.5 -37t-23.5 -37q-27 -27 -81 -81.5t-80 -82.5q-30 -30 -30.5 -44t28.5 -44q25 -26 77 -78.5t78 -79.5q31 -31 31 -47
t-31 -47q-12 -11 -34 -33.5t-33 -34.5q-22 -20 -38 -20t-36 20z" />
    <glyph glyph-name="Oslash" unicode="&#xd8;" horiz-adv-x="1288" 
d="M416 2q-43 -1 -81 -1.5t-79 8.5t-76 28q-178 102 -178 295q-1 114 -1 342t-1 342q-2 124 74 219.5t200 118.5q200 39 332 -74q117 -96 117 -238q2 -121 2 -364v-359q-1 -124 -93.5 -218t-215.5 -99zM365 213q37 0 55 6q27 7 49.5 26.5t30 45.5t-14.5 53
q-23 27 -102 119.5t-123 142.5q-5 6 -18.5 12.5t-14.5 6.5q-1 -2 -6 -15t-6 -20v-225q-3 -69 33.5 -110t116.5 -42zM500 686q1 5 5 15.5t5 15.5v155v150v4q-2 39 -22.5 69.5t-55.5 37.5q-77 18 -131 2q-62 -15 -78.5 -70.5t23.5 -106.5q5 -6 16.5 -18t16.5 -18
q31 -37 94 -111t94 -111q3 -4 33 -14z" />
    <glyph glyph-name="Ugrave" unicode="&#xd9;" horiz-adv-x="1085" 
d="M438 -8q-122 -17 -211 16q-183 64 -221 256q-6 40 -6 78v936v25q2 25 11.5 37.5t31.5 13.5q64 3 125 0q26 -1 36.5 -15t10.5 -43v-426v-532q0 -83 61 -117q44 -25 107.5 -18.5t93.5 39.5q31 43 31 82q0 106 1 316t1 316v310q0 29 2 41q5 27 16 37t37 10q55 3 111 0
q26 -1 36 -11.5t13 -37.5q0 -8 1 -25t1 -25v-469h-2v-444q3 -128 -66 -217q-83 -112 -221 -133zM541 1430q-31 10 -97 30q-198 65 -315 107q-31 10 -38 23t1 42q14 46 29 78q3 5 8.5 11t13 12t9.5 8q21 -3 22 -4q68 -23 416 -140q42 -14 33 -59q-6 -22 -29 -84
q-15 -35 -53 -24z" />
    <glyph glyph-name="Uacute" unicode="&#xda;" horiz-adv-x="1085" 
d="M438 -8q-122 -17 -211 16q-183 64 -221 256q-6 40 -6 78v936v25q2 25 11.5 37.5t31.5 13.5q64 3 125 0q26 -1 36.5 -15t10.5 -43v-426v-532q0 -83 61 -117q44 -25 107.5 -18.5t93.5 39.5q31 43 31 82q0 106 1 316t1 316v310q0 29 2 41q5 27 16 37t37 10q55 3 111 0
q26 -1 36 -11.5t13 -37.5q0 -8 1 -25t1 -25v-469h-2v-444q3 -128 -66 -217q-83 -112 -221 -133zM180 1430q-38 -11 -53 24q-23 62 -29 84q-9 45 33 59q348 117 416 140q1 1 22 4q2 -2 9.5 -8t13 -12t8.5 -11q15 -32 29 -78q8 -29 1 -42t-38 -23q-104 -37 -316 -107
q-50 -15 -96 -30z" />
    <glyph glyph-name="Ucircumflex" unicode="&#xdb;" horiz-adv-x="1085" 
d="M438 -8q-122 -17 -211 16q-183 64 -221 256q-6 40 -6 78v936v25q2 25 11.5 37.5t31.5 13.5q64 3 125 0q26 -1 36.5 -15t10.5 -43v-426v-532q0 -83 61 -117q44 -25 107.5 -18.5t93.5 39.5q31 43 31 82q0 106 1 316t1 316v310q0 29 2 41q5 27 16 37t37 10q55 3 111 0
q26 -1 36 -11.5t13 -37.5q0 -8 1 -25t1 -25v-469h-2v-444q3 -128 -66 -217q-83 -112 -221 -133zM551 1427q-21 -3 -49 17q-41 29 -103 80q-29 23 -47 23t-47 -23q-16 -13 -48.5 -38t-49.5 -38q-23 -19 -38.5 -17.5t-35.5 23.5q-8 8 -16.5 18.5t-17.5 23.5t-15 20
q-31 39 8 67q139 111 221 174q37 30 74 0q114 -85 225 -174q5 -4 10.5 -11t10.5 -14.5t6 -9.5q-1 -25 -36 -72t-52 -49z" />
    <glyph glyph-name="Udieresis" unicode="&#xdc;" horiz-adv-x="1085" 
d="M438 -8q-122 -17 -211 16q-183 64 -221 256q-6 40 -6 78v936v25q2 25 11.5 37.5t31.5 13.5q64 3 125 0q26 -1 36.5 -15t10.5 -43v-426v-532q0 -83 61 -117q44 -25 107.5 -18.5t93.5 39.5q31 43 31 82q0 106 1 316t1 316v310q0 29 2 41q5 27 16 37t37 10q55 3 111 0
q26 -1 36 -11.5t13 -37.5q0 -8 1 -25t1 -25v-469h-2v-444q3 -128 -66 -217q-83 -112 -221 -133zM541 1436q-44 0 -74.5 29.5t-30.5 72.5q0 45 30.5 74.5t76.5 29.5q42 5 73.5 -25t32.5 -79q1 -42 -31 -72t-77 -30zM162 1436q-43 0 -74 30t-31 74q-1 43 31 73.5t76 28.5
q46 3 76 -28.5t30 -75.5q1 -44 -30.5 -73t-77.5 -29z" />
    <glyph glyph-name="Yacute" unicode="&#xdd;" horiz-adv-x="1144" 
d="M338 0q-49 0 -49 51v211v160q3 71 -27 149q-42 120 -126 359.5t-126 359.5q-15 47 -4 62.5t62 15.5h86q33 0 49 -11t28 -42l129 -369q8 -24 17 -35q17 -23 35 2q7 11 14 33q24 66 67 189.5t60 171.5q15 39 30.5 50t57.5 11q1 0 45 1t45 -1q11 0 31 -4q17 -6 22 -15t0 -26
q-2 -8 -41 -127q-38 -107 -112.5 -320t-112.5 -319q-16 -50 -16 -96q2 -129 2 -387q0 -23 -2 -33q-3 -21 -14 -30t-35 -11h-115zM186 1430q-38 -11 -53 24q-23 62 -29 84q-9 45 33 59q348 117 416 140q1 1 22 4q2 -2 9.5 -8t13 -12t8.5 -11q15 -32 29 -78q8 -29 1 -42
t-38 -23q-117 -42 -315 -107q-66 -20 -97 -30z" />
    <glyph glyph-name="germandbls" unicode="&#xdf;" horiz-adv-x="1087" 
d="M145 0q-17 0 -50.5 1t-49.5 1q-38 0 -41 35q0 8 -2 23.5t-2 23.5v459v450q0 143 63 230q99 141 293 147q128 3 228 -70t135 -194q30 -100 -31 -209q-52 -89 -98 -156q-47 -68 4 -131q25 -29 72 -96q57 -75 61.5 -160.5t-32 -154.5t-99.5 -121t-135 -68q-31 -6 -99 -6
q-21 -2 -32 9t-8 32q18 105 30 139q5 19 47 33q48 11 79.5 46t27.5 77q-2 29 -31 70q-10 18 -33 48.5t-28 37.5q-124 164 -17 342q12 20 26.5 42t32 48.5t27.5 42.5q34 54 18.5 101.5t-75.5 70.5q-41 18 -96 9t-84 -46q-14 -17 -20.5 -40t-7.5 -38.5t-1 -44.5v-788v-121
q0 -49 -12 -61.5t-60 -12.5z" />
    <glyph glyph-name="agrave" unicode="&#xe0;" 
d="M51 0q-32 0 -42.5 11t-6.5 42q9 65 45 248q18 89 53 267.5t52 267.5q16 81 47.5 241.5t46.5 241.5q10 57 65 51q18 -2 58 -2h47q43 0 57 -11t23 -54q126 -656 192 -984q9 -50 27 -141.5t22 -114.5q12 -63 -53 -63h-96q-34 0 -49 12.5t-21 46.5q-9 38 -20 101
q-8 41 -54 41h-147q-50 0 -59 -49q-3 -16 -10.5 -50.5t-10.5 -50.5q-8 -51 -65 -51h-101zM367 416h20q35 0 45.5 13t3.5 48q-19 109 -26 144q-5 21 -15.5 64t-15.5 65q-6 -2 -14 -2q-17 -34 -19 -41q-3 -19 -19.5 -99t-23.5 -123q-9 -46 2 -57.5t62 -11.5zM557 1430
q-47 15 -96 30q-212 70 -316 107q-30 10 -37 23t1 42q15 51 28 78q3 5 8.5 11t13 12t9.5 8q21 -3 22 -4q69 -23 416 -140q42 -14 33 -59q-6 -22 -29 -84q-15 -35 -53 -24z" />
    <glyph glyph-name="aacute" unicode="&#xe1;" 
d="M51 0q-32 0 -42.5 11t-6.5 42q9 65 45 248q18 89 53 267.5t52 267.5q16 81 47.5 241.5t46.5 241.5q10 57 65 51q18 -2 58 -2h47q43 0 57 -11t23 -54q126 -656 192 -984q9 -50 27 -141.5t22 -114.5q12 -63 -53 -63h-96q-34 0 -49 12.5t-21 46.5q-9 38 -20 101
q-8 41 -54 41h-147q-50 0 -59 -49q-3 -16 -10.5 -50.5t-10.5 -50.5q-8 -51 -65 -51h-101zM367 416h20q35 0 45.5 13t3.5 48q-19 109 -26 144q-5 21 -15.5 64t-15.5 65q-6 -2 -14 -2q-17 -34 -19 -41q-3 -19 -19.5 -99t-23.5 -123q-9 -46 2 -57.5t62 -11.5zM160 1430
q-39 -11 -54 24q-19 51 -28 84q-9 45 33 59q381 129 415 140l23 4q2 -2 9.5 -8t13 -12t8.5 -11q13 -27 28 -78q8 -29 1 -42t-38 -23q-117 -42 -315 -107q-50 -15 -96 -30z" />
    <glyph glyph-name="acircumflex" unicode="&#xe2;" 
d="M51 0q-32 0 -42.5 11t-6.5 42q9 65 45 248q18 89 53 267.5t52 267.5q16 81 47.5 241.5t46.5 241.5q10 57 65 51q18 -2 58 -2h47q43 0 57 -11t23 -54q126 -656 192 -984q9 -50 27 -141.5t22 -114.5q12 -63 -53 -63h-96q-34 0 -49 12.5t-21 46.5q-9 38 -20 101
q-8 41 -54 41h-147q-50 0 -59 -49q-3 -16 -10.5 -50.5t-10.5 -50.5q-8 -51 -65 -51h-101zM367 416h20q35 0 45.5 13t3.5 48q-19 109 -26 144q-5 21 -15.5 64t-15.5 65q-6 -2 -14 -2q-17 -34 -19 -41q-3 -19 -19.5 -99t-23.5 -123q-9 -46 2 -57.5t62 -11.5zM571 1427
q-21 -3 -49 17q-33 24 -102 80q-29 23 -47 23t-47 -23q-17 -13 -50 -38.5t-49 -37.5q-23 -19 -38 -17.5t-35 23.5q-2 2 -50 62q-31 38 9 67q140 111 221 174q37 30 74 0q114 -85 225 -174q5 -4 10 -11t9.5 -14.5t6.5 -9.5q-1 -25 -36 -72t-52 -49z" />
    <glyph glyph-name="atilde" unicode="&#xe3;" 
d="M51 0q-32 0 -42.5 11t-6.5 42q9 65 45 248q18 89 53 267.5t52 267.5q16 81 47.5 241.5t46.5 241.5q10 57 65 51q18 -2 58 -2h47q43 0 57 -11t23 -54q126 -656 192 -984q9 -50 27 -141.5t22 -114.5q12 -63 -53 -63h-96q-34 0 -49 12.5t-21 46.5q-9 38 -20 101
q-8 41 -54 41h-147q-50 0 -59 -49q-3 -16 -10.5 -50.5t-10.5 -50.5q-8 -51 -65 -51h-101zM367 416h20q35 0 45.5 13t3.5 48q-19 109 -26 144q-5 21 -15.5 64t-15.5 65q-6 -2 -14 -2q-17 -34 -19 -41q-3 -19 -19.5 -99t-23.5 -123q-9 -46 2 -57.5t62 -11.5zM193 1452
q-84 37 -166 94q-24 15 -25.5 31.5t16.5 40.5q8 11 26 30t22 23q30 37 71 10q9 -6 28 -18t28 -18q32 -20 51 -18t47 28q86 86 203 69q112 -16 208 -106q4 -4 13 -27q-11 -22 -13 -24q-5 -6 -16.5 -18.5t-18 -19.5t-16 -16.5t-18.5 -15.5q-9 -7 -25 -8t-26 4q-15 7 -39.5 23
t-36.5 22q-54 25 -98 -16q-8 -8 -26.5 -23t-19.5 -16q-87 -70 -169 -31z" />
    <glyph glyph-name="adieresis" unicode="&#xe4;" 
d="M51 0q-32 0 -42.5 11t-6.5 42q9 65 45 248q18 89 53 267.5t52 267.5q16 81 47.5 241.5t46.5 241.5q10 57 65 51q18 -2 58 -2h47q43 0 57 -11t23 -54q126 -656 192 -984q9 -50 27 -141.5t22 -114.5q12 -63 -53 -63h-96q-34 0 -49 12.5t-21 46.5q-9 38 -20 101
q-8 41 -54 41h-147q-50 0 -59 -49q-3 -16 -10.5 -50.5t-10.5 -50.5q-8 -51 -65 -51h-101zM367 416h20q35 0 45.5 13t3.5 48q-19 109 -26 144q-5 21 -15.5 64t-15.5 65q-6 -2 -14 -2q-17 -34 -19 -41q-3 -19 -19.5 -99t-23.5 -123q-9 -46 2 -57.5t62 -11.5zM555 1436
q-44 0 -74 29.5t-30 72.5q0 46 30 75t76 29q42 5 74 -25t33 -79q1 -42 -31.5 -72t-77.5 -30zM176 1436q-43 0 -73.5 30t-30.5 74q-1 43 30.5 73.5t75.5 28.5q46 3 76.5 -28.5t30.5 -75.5q1 -44 -31 -73t-78 -29z" />
    <glyph glyph-name="aring" unicode="&#xe5;" 
d="M51 0q-32 0 -42.5 11t-6.5 42q9 65 45 248q18 89 53 267.5t52 267.5q16 81 47.5 241.5t46.5 241.5q10 57 65 51q18 -2 58 -2h47q43 0 57 -11t23 -54q126 -656 192 -984q9 -50 27 -141.5t22 -114.5q12 -63 -53 -63h-96q-34 0 -49 12.5t-21 46.5q-9 38 -20 101
q-8 41 -54 41h-147q-50 0 -59 -49q-3 -16 -10.5 -50.5t-10.5 -50.5q-8 -51 -65 -51h-101zM367 416h20q35 0 45.5 13t3.5 48q-19 109 -26 144q-5 21 -15.5 64t-15.5 65q-6 -2 -14 -2q-17 -34 -19 -41q-3 -19 -19.5 -99t-23.5 -123q-9 -46 2 -57.5t62 -11.5zM377 1432
q-90 -1 -153.5 59t-65.5 147q0 86 61.5 148t149.5 63q86 0 149 -59.5t64 -144.5q2 -85 -60 -149t-145 -64zM371 1575q29 0 48 19.5t19 47.5q-1 26 -22.5 47t-46.5 21q-26 -1 -47 -23.5t-21 -48.5q2 -28 22 -46t48 -17z" />
    <glyph glyph-name="ccedilla" unicode="&#xe7;" horiz-adv-x="1083" 
d="M469 18q-184 -41 -319 50q-124 82 -142 223q-8 58 -8 92v647q2 130 82 223.5t209 112.5q178 25 287 -53q138 -97 147 -258q1 -32 -11 -45t-44 -15h-97q-31 2 -45 13.5t-18 40.5q-13 85 -88 100q-39 6 -63 7.5t-55.5 -8.5t-53.5 -36q-35 -38 -35 -98v-326q0 -213 2 -319
q0 -40 16 -80q22 -55 107 -66q70 -10 119 25q38 22 51 74q8 29 20 39t43 10q47 3 97 0q32 0 43.5 -13t11.5 -47q-3 -96 -74 -180q-74 -90 -182 -113zM305 -426q-20 -4 -33.5 6.5t-15.5 32.5v39q0 24 1.5 33.5t2 19t11 15t17 8.5t31.5 12q38 17 50 41q11 27 -31 56q-3 2 -4 3
q-46 35 -58 70.5t3 91.5q0 12 4 12q72 20 90 21q43 4 57 -31q17 -41 51 -80q68 -73 54.5 -166.5t-101.5 -140.5q-36 -21 -129 -43z" />
    <glyph glyph-name="egrave" unicode="&#xe8;" horiz-adv-x="980" 
d="M57 0q-29 0 -40 9t-15 40q-2 16 -2 49v588v588q0 17 4 49q3 24 12.5 34t32.5 11q54 2 162 -2q13 0 37 -2t37 -2h284q33 0 43 -8.5t11 -38.5v-125q-3 -33 -37 -39q-6 0 -20 -2t-21 -2h-277q-33 0 -41 -7.5t-8 -39.5q-3 -135 0 -273q0 -26 10.5 -35.5t38.5 -11.5h129
q30 0 41.5 -9.5t12.5 -39.5q3 -59 0 -117q-1 -27 -13.5 -37t-40.5 -10q-21 -1 -63 -1t-62 -1q-34 0 -44 -9t-11 -42q0 -166 2 -250q0 -32 9 -40.5t42 -8.5h234q35 0 49 -14t16 -49q3 -46 0 -91q-2 -34 -15.5 -47.5t-47.5 -13.5h-449zM489 1430q-47 15 -96 30
q-198 65 -315 107q-31 10 -38 23t1 42q14 46 29 78q3 5 8 11t12.5 12t9.5 8q22 -4 23 -4q69 -23 416 -140q41 -13 32 -59q-9 -33 -28 -84q-15 -35 -54 -24z" />
    <glyph glyph-name="eacute" unicode="&#xe9;" horiz-adv-x="980" 
d="M57 0q-29 0 -40 9t-15 40q-2 16 -2 49v588v588q0 17 4 49q3 24 12.5 34t32.5 11q54 2 162 -2q13 0 37 -2t37 -2h284q33 0 43 -8.5t11 -38.5v-125q-3 -33 -37 -39q-6 0 -20 -2t-21 -2h-277q-33 0 -41 -7.5t-8 -39.5q-3 -135 0 -273q0 -26 10.5 -35.5t38.5 -11.5h129
q30 0 41.5 -9.5t12.5 -39.5q3 -59 0 -117q-1 -27 -13.5 -37t-40.5 -10q-21 -1 -63 -1t-62 -1q-34 0 -44 -9t-11 -42q0 -166 2 -250q0 -32 9 -40.5t42 -8.5h234q35 0 49 -14t16 -49q3 -46 0 -91q-2 -34 -15.5 -47.5t-47.5 -13.5h-449zM125 1430q-38 -11 -53 24q-23 62 -29 84
q-9 45 33 59q347 117 416 140q1 1 22 4q2 -2 9.5 -8t13 -12t8.5 -11q13 -27 28 -78q8 -29 1 -42t-37 -23q-104 -37 -316 -107q-49 -15 -96 -30z" />
    <glyph glyph-name="ecircumflex" unicode="&#xea;" horiz-adv-x="980" 
d="M57 0q-29 0 -40 9t-15 40q-2 16 -2 49v588v588q0 17 4 49q3 24 12.5 34t32.5 11q54 2 162 -2q13 0 37 -2t37 -2h284q33 0 43 -8.5t11 -38.5v-125q-3 -33 -37 -39q-6 0 -20 -2t-21 -2h-277q-33 0 -41 -7.5t-8 -39.5q-3 -135 0 -273q0 -26 10.5 -35.5t38.5 -11.5h129
q30 0 41.5 -9.5t12.5 -39.5q3 -59 0 -117q-1 -27 -13.5 -37t-40.5 -10q-21 -1 -63 -1t-62 -1q-34 0 -44 -9t-11 -42q0 -166 2 -250q0 -32 9 -40.5t42 -8.5h234q35 0 49 -14t16 -49q3 -46 0 -91q-2 -34 -15.5 -47.5t-47.5 -13.5h-449zM514 1427q-21 -3 -49 17q-41 29 -103 80
q-29 23 -47 23t-47 -23q-16 -13 -48.5 -38t-49.5 -38q-23 -19 -38.5 -17.5t-35.5 23.5q-8 8 -16.5 18.5t-17.5 23.5t-15 20q-31 39 8 67q139 111 221 174q37 30 74 0q114 -85 225 -174q5 -4 10.5 -11t10.5 -14.5t6 -9.5q-1 -25 -36 -72t-52 -49z" />
    <glyph glyph-name="edieresis" unicode="&#xeb;" horiz-adv-x="980" 
d="M57 0q-29 0 -40 9t-15 40q-2 16 -2 49v588v588q0 17 4 49q3 24 12.5 34t32.5 11q54 2 162 -2q13 0 37 -2t37 -2h284q33 0 43 -8.5t11 -38.5v-125q-3 -33 -37 -39q-6 0 -20 -2t-21 -2h-277q-33 0 -41 -7.5t-8 -39.5q-3 -135 0 -273q0 -26 10.5 -35.5t38.5 -11.5h129
q30 0 41.5 -9.5t12.5 -39.5q3 -59 0 -117q-1 -27 -13.5 -37t-40.5 -10q-21 -1 -63 -1t-62 -1q-34 0 -44 -9t-11 -42q0 -166 2 -250q0 -32 9 -40.5t42 -8.5h234q35 0 49 -14t16 -49q3 -46 0 -91q-2 -34 -15.5 -47.5t-47.5 -13.5h-449zM500 1436q-44 0 -74.5 29.5t-30.5 72.5
q0 45 30.5 74.5t76.5 29.5q42 5 73.5 -25t32.5 -79q1 -42 -31 -72t-77 -30zM121 1436q-43 0 -74 30t-31 74q-1 43 31 73.5t76 28.5q46 3 76 -28.5t30 -75.5q1 -44 -30.5 -73t-77.5 -29z" />
    <glyph glyph-name="igrave" unicode="&#xec;" horiz-adv-x="843" 
d="M281 0h-129q-33 3 -39 35q0 4 -3.5 22t-3.5 27v1200q0 10 5 35q3 28 15 38.5t40 10.5q51 3 100 0q31 0 43 -11t13 -42q2 -14 2 -45v-584v-588q0 -39 -2 -57q-3 -38 -41 -41zM401 1430q-47 15 -96 30q-198 65 -315 107q-31 10 -38 23t1 42q14 46 29 78q3 5 8 11t12.5 12
t9.5 8q22 -4 23 -4q68 -23 416 -140q41 -13 32 -59q-9 -33 -28 -84q-15 -35 -54 -24z" />
    <glyph glyph-name="iacute" unicode="&#xed;" horiz-adv-x="843" 
d="M276 0h-129q-32 3 -38 35q0 4 -3.5 22t-3.5 27v1200q0 15 4 35q3 28 15.5 38.5t40.5 10.5q51 3 100 0q31 0 42 -11t13 -42q2 -14 2 -45v-584v-588q0 -39 -2 -57q-3 -38 -41 -41zM33 1430q-38 -11 -53 24q-23 62 -29 84q-9 45 33 59q381 129 415 140q1 0 23 4q2 -2 9.5 -8
t13 -12t8.5 -11q13 -27 28 -78q8 -29 1 -42t-38 -23q-117 -42 -315 -107q-49 -15 -96 -30z" />
    <glyph glyph-name="icircumflex" unicode="&#xee;" horiz-adv-x="874" 
d="M287 0h-129q-33 3 -39 35q-6 48 -6 49v1200q0 15 4 35q3 28 15 38.5t40 10.5q51 3 100 0q31 0 43 -11t13 -42q2 -14 2 -45v-584v-588q0 -39 -2 -57q-3 -38 -41 -41zM428 1427q-21 -3 -49 17q-41 29 -103 80q-29 23 -47 23t-47 -23q-17 -13 -49.5 -38t-48.5 -38
q-23 -19 -38.5 -17.5t-35.5 23.5q-8 8 -16.5 18.5t-17.5 23.5t-15 20q-31 39 8 67q139 111 221 174q37 30 74 0q114 -85 225 -174q5 -4 10.5 -11t10.5 -14.5t6 -9.5q-1 -25 -36 -72t-52 -49z" />
    <glyph glyph-name="idieresis" unicode="&#xef;" horiz-adv-x="899" 
d="M311 0h-129q-33 3 -39 35q-6 48 -6 49v1200q0 15 4 35q3 28 15.5 38.5t40.5 10.5q51 3 100 0q31 0 42 -11t13 -42q2 -14 2 -45v-584v-588q0 -39 -2 -57q-3 -38 -41 -41zM432 1436q-44 0 -74 29.5t-30 72.5q0 46 30 75t76 29q42 5 74 -25t33 -79q1 -42 -31.5 -72
t-77.5 -30zM53 1436q-43 0 -73.5 30t-30.5 74q-1 43 30.5 73.5t75.5 28.5q46 3 76.5 -28.5t30.5 -75.5q1 -44 -31 -73t-78 -29z" />
    <glyph glyph-name="ntilde" unicode="&#xf1;" horiz-adv-x="1132" 
d="M174 0h-129q-19 1 -26.5 8.5t-12.5 26.5q-6 21 -6 41v1212v15q1 38 16.5 51.5t55.5 15.5q80 0 121 -2q31 0 46 -10.5t25 -40.5q27 -80 79.5 -239.5t78.5 -239.5q26 -82 51 -148q2 -8 9.5 -21t9.5 -18q6 5 9.5 9.5t5 10.5t2 9t0 11t-0.5 9v580q0 5 6 53q3 29 33 29h143
q13 0 22 -8.5t11 -22.5q0 -9 1 -26t1 -25v-1194q0 -7 -1 -22.5t-1 -22.5q-3 -39 -39 -39q-89 -3 -182 0q-36 0 -51 51q-9 30 -29 89.5t-29 88.5q-21 65 -64 196.5t-65 197.5q-4 12 -14.5 33.5t-11.5 23.5q-2 0 -6.5 -1t-6.5 -1q-4 -20 -4 -31q-4 -94 -4 -143v-412
q0 -8 -1 -26t-1 -27q-6 -38 -41 -41zM197 1452q-84 37 -166 94q-24 14 -25 31t17 41q1 1 47 53q30 37 71 10q9 -6 28 -18t28 -18q32 -20 51 -18t47 28q86 86 203 69q113 -17 209 -106q2 -2 12 -27l-12 -24q-53 -58 -70 -70q-9 -7 -25 -8t-26 4q-15 7 -39.5 23t-36.5 22
q-54 25 -98 -16q-3 -3 -45 -39q-87 -70 -170 -31z" />
    <glyph glyph-name="ograve" unicode="&#xf2;" horiz-adv-x="1087" 
d="M299 6q-95 13 -160 64q-122 91 -133 231q-6 73 -6 143v549q0 154 80 248q71 88 164 107q170 43 295 -19q160 -79 184 -252q6 -41 6 -78v-319q0 -38 0.5 -106.5t0.5 -124.5t-1 -105q-2 -110 -59.5 -195.5t-157.5 -123.5q-90 -36 -213 -19zM338 217q156 -16 176 117v35
q2 104 2 313q0 217 -2 326q0 111 -96 137q-11 3 -24 3.5t-31.5 -0.5t-26.5 -1q-38 0 -71 -24.5t-42 -61.5q-3 -12 -8 -68q0 -411 2 -616q0 -43 8 -74q23 -76 113 -86zM549 1430q-47 15 -96 30q-212 70 -316 107q-31 10 -38 23t1 42q14 46 29 78q3 5 8.5 11t13 12t9.5 8
q21 -3 22 -4q69 -23 416 -140q42 -14 33 -59q-6 -22 -29 -84q-15 -35 -53 -24z" />
    <glyph glyph-name="oacute" unicode="&#xf3;" horiz-adv-x="1087" 
d="M299 6q-95 13 -160 64q-122 91 -133 231q-6 73 -6 143v549q0 154 80 248q71 88 164 107q170 43 295 -19q160 -79 184 -252q6 -41 6 -78v-319q0 -38 0.5 -106.5t0.5 -124.5t-1 -105q-2 -110 -59.5 -195.5t-157.5 -123.5q-90 -36 -213 -19zM338 217q156 -16 176 117v35
q2 104 2 313q0 217 -2 326q0 111 -96 137q-11 3 -24 3.5t-31.5 -0.5t-26.5 -1q-38 0 -71 -24.5t-42 -61.5q-3 -12 -8 -68q0 -411 2 -616q0 -43 8 -74q23 -76 113 -86zM156 1430q-39 -11 -54 24q-19 51 -28 84q-9 46 32 59q347 117 416 140l23 4q2 -2 9.5 -8t12.5 -12t8 -11
q15 -32 29 -78q8 -29 1 -42t-38 -23q-117 -42 -315 -107q-50 -15 -96 -30z" />
    <glyph glyph-name="ocircumflex" unicode="&#xf4;" horiz-adv-x="1087" 
d="M299 6q-95 13 -160 64q-122 91 -133 231q-6 73 -6 143v549q0 154 80 248q71 88 164 107q170 43 295 -19q160 -79 184 -252q6 -41 6 -78v-319q0 -38 0.5 -106.5t0.5 -124.5t-1 -105q-2 -110 -59.5 -195.5t-157.5 -123.5q-90 -36 -213 -19zM338 217q156 -16 176 117v35
q2 104 2 313q0 217 -2 326q0 111 -96 137q-11 3 -24 3.5t-31.5 -0.5t-26.5 -1q-38 0 -71 -24.5t-42 -61.5q-3 -12 -8 -68q0 -411 2 -616q0 -43 8 -74q23 -76 113 -86zM561 1427q-21 -3 -49 17q-33 24 -102 80q-29 23 -47.5 23t-47.5 -23q-16 -13 -49 -38t-49 -38
q-23 -19 -38.5 -17.5t-35.5 23.5q-8 8 -16.5 18.5t-17.5 23.5t-15 20q-31 39 8 67q111 89 222 174q36 29 73 0q131 -98 226 -174q5 -4 10 -11t9.5 -14.5t6.5 -9.5q-1 -25 -36 -72t-52 -49z" />
    <glyph glyph-name="otilde" unicode="&#xf5;" horiz-adv-x="1087" 
d="M299 6q-95 13 -160 64q-122 91 -133 231q-6 73 -6 143v549q0 154 80 248q71 88 164 107q170 43 295 -19q160 -79 184 -252q6 -41 6 -78v-319q0 -38 0.5 -106.5t0.5 -124.5t-1 -105q-2 -110 -59.5 -195.5t-157.5 -123.5q-90 -36 -213 -19zM338 217q156 -16 176 117v35
q2 104 2 313q0 217 -2 326q0 111 -96 137q-11 3 -24 3.5t-31.5 -0.5t-26.5 -1q-38 0 -71 -24.5t-42 -61.5q-3 -12 -8 -68q0 -411 2 -616q0 -43 8 -74q23 -76 113 -86zM201 1452q-84 37 -166 94q-24 14 -25 31t17 41q1 1 47 53q30 37 71 10q9 -6 28 -18t28 -18q32 -20 51 -18
t47 28q86 86 203 69q113 -17 209 -106q2 -2 12 -27l-12 -24q-53 -58 -70 -70q-9 -7 -25 -8t-26 4q-15 7 -39.5 23t-36.5 22q-54 25 -98 -16q-3 -3 -45 -39q-87 -70 -170 -31z" />
    <glyph glyph-name="odieresis" unicode="&#xf6;" horiz-adv-x="1087" 
d="M299 6q-95 13 -160 64q-122 91 -133 231q-6 73 -6 143v549q0 154 80 248q71 88 164 107q170 43 295 -19q160 -79 184 -252q6 -41 6 -78v-319q0 -38 0.5 -106.5t0.5 -124.5t-1 -105q-2 -110 -59.5 -195.5t-157.5 -123.5q-90 -36 -213 -19zM338 217q156 -16 176 117v35
q2 104 2 313q0 217 -2 326q0 111 -96 137q-11 3 -24 3.5t-31.5 -0.5t-26.5 -1q-38 0 -71 -24.5t-42 -61.5q-3 -12 -8 -68q0 -411 2 -616q0 -43 8 -74q23 -76 113 -86zM561 1436q-44 0 -74 29.5t-30 72.5q0 46 30 75t76 29q42 5 74 -25t33 -79q1 -42 -31.5 -72t-77.5 -30z
M182 1436q-43 0 -73.5 30t-30.5 74q-1 43 30.5 73.5t75.5 28.5q46 3 76.5 -28.5t30.5 -75.5q1 -44 -31 -73t-78 -29z" />
    <glyph glyph-name="divide" unicode="&#xf7;" horiz-adv-x="1118" 
d="M51 559q-27 0 -39 12.5t-12 40.5v105q0 32 12.5 44.5t44.5 12.5h322h319q35 0 48.5 -13t13.5 -48v-105q-3 -49 -51 -49h-658zM381 184q-55 -2 -102 43.5t-43 100.5q-4 59 42.5 103t100.5 42q61 -1 101.5 -41t43.5 -100q3 -57 -42 -101.5t-101 -46.5zM379 860
q-62 3 -102.5 45.5t-40.5 100.5q0 59 39.5 101.5t103.5 45.5q58 3 100.5 -41t42.5 -106q0 -60 -42.5 -103.5t-100.5 -42.5z" />
    <glyph glyph-name="oslash" unicode="&#xf8;" horiz-adv-x="1339" 
d="M467 2q-43 -1 -81 -1.5t-79 8.5t-76 28q-178 102 -178 295q-1 114 -1 342.5t-1 341.5q-2 123 74.5 219t200.5 119q199 39 331 -74q117 -96 117 -238q2 -121 2 -364v-359q-1 -124 -93.5 -218t-215.5 -99zM416 213q37 0 55 6q27 7 50 26.5t30.5 45.5t-14.5 53
q-9 11 -95 111t-131 151q-4 4 -9.5 7.5t-12.5 6.5t-10 5q-1 -4 -6.5 -16t-6.5 -19v-225q-3 -69 33.5 -110t116.5 -42zM551 686q1 5 5 15.5t5 15.5v155v150v4q-2 39 -22.5 69.5t-55.5 37.5q-77 18 -131 2q-62 -15 -78.5 -70.5t23.5 -106.5q5 -6 16.5 -18t16.5 -18
q31 -37 94 -111t94 -111q3 -4 33 -14z" />
    <glyph glyph-name="ugrave" unicode="&#xf9;" horiz-adv-x="1085" 
d="M438 -8q-122 -17 -211 16q-183 64 -221 256q-6 40 -6 78v936v25q2 25 11.5 37.5t31.5 13.5q64 3 125 0q26 -1 36.5 -15t10.5 -43v-426v-532q0 -83 61 -117q44 -25 107.5 -18.5t93.5 39.5q31 43 31 82q0 106 1 316t1 316v310q0 29 2 41q5 27 16 37t37 10q55 3 111 0
q26 -1 36 -11.5t13 -37.5q0 -8 1 -25t1 -25v-469h-2v-444q3 -128 -66 -217q-83 -112 -221 -133zM541 1430q-31 10 -97 30q-198 65 -315 107q-31 10 -38 23t1 42q14 46 29 78q3 5 8.5 11t13 12t9.5 8q21 -3 22 -4q68 -23 416 -140q42 -14 33 -59q-6 -22 -29 -84
q-15 -35 -53 -24z" />
    <glyph glyph-name="uacute" unicode="&#xfa;" horiz-adv-x="1085" 
d="M438 -8q-122 -17 -211 16q-183 64 -221 256q-6 40 -6 78v936v25q2 25 11.5 37.5t31.5 13.5q64 3 125 0q26 -1 36.5 -15t10.5 -43v-426v-532q0 -83 61 -117q44 -25 107.5 -18.5t93.5 39.5q31 43 31 82q0 106 1 316t1 316v310q0 29 2 41q5 27 16 37t37 10q55 3 111 0
q26 -1 36 -11.5t13 -37.5q0 -8 1 -25t1 -25v-469h-2v-444q3 -128 -66 -217q-83 -112 -221 -133zM180 1430q-38 -11 -53 24q-23 62 -29 84q-9 45 33 59q348 117 416 140q1 1 22 4q2 -2 9.5 -8t13 -12t8.5 -11q15 -32 29 -78q8 -29 1 -42t-38 -23q-104 -37 -316 -107
q-50 -15 -96 -30z" />
    <glyph glyph-name="ucircumflex" unicode="&#xfb;" horiz-adv-x="1085" 
d="M438 -8q-122 -17 -211 16q-183 64 -221 256q-6 40 -6 78v936v25q2 25 11.5 37.5t31.5 13.5q64 3 125 0q26 -1 36.5 -15t10.5 -43v-426v-532q0 -83 61 -117q44 -25 107.5 -18.5t93.5 39.5q31 43 31 82q0 106 1 316t1 316v310q0 29 2 41q5 27 16 37t37 10q55 3 111 0
q26 -1 36 -11.5t13 -37.5q0 -8 1 -25t1 -25v-469h-2v-444q3 -128 -66 -217q-83 -112 -221 -133zM551 1427q-21 -3 -49 17q-41 29 -103 80q-29 23 -47 23t-47 -23q-16 -13 -48.5 -38t-49.5 -38q-23 -19 -38.5 -17.5t-35.5 23.5q-8 8 -16.5 18.5t-17.5 23.5t-15 20
q-31 39 8 67q139 111 221 174q37 30 74 0q114 -85 225 -174q5 -4 10.5 -11t10.5 -14.5t6 -9.5q-1 -25 -36 -72t-52 -49z" />
    <glyph glyph-name="udieresis" unicode="&#xfc;" horiz-adv-x="1085" 
d="M438 -8q-122 -17 -211 16q-183 64 -221 256q-6 40 -6 78v936v25q2 25 11.5 37.5t31.5 13.5q64 3 125 0q26 -1 36.5 -15t10.5 -43v-426v-532q0 -83 61 -117q44 -25 107.5 -18.5t93.5 39.5q31 43 31 82q0 106 1 316t1 316v310q0 29 2 41q5 27 16 37t37 10q55 3 111 0
q26 -1 36 -11.5t13 -37.5q0 -8 1 -25t1 -25v-469h-2v-444q3 -128 -66 -217q-83 -112 -221 -133zM541 1436q-44 0 -74.5 29.5t-30.5 72.5q0 45 30.5 74.5t76.5 29.5q42 5 73.5 -25t32.5 -79q1 -42 -31 -72t-77 -30zM162 1436q-43 0 -74 30t-31 74q-1 43 31 73.5t76 28.5
q46 3 76 -28.5t30 -75.5q1 -44 -30.5 -73t-77.5 -29z" />
    <glyph glyph-name="yacute" unicode="&#xfd;" horiz-adv-x="1144" 
d="M338 0q-49 0 -49 51v211v160q3 71 -27 149q-42 120 -126 359.5t-126 359.5q-15 47 -4 62.5t62 15.5h86q33 0 49 -11t28 -42l129 -369q8 -24 17 -35q17 -23 35 2q7 11 14 33q24 66 67 189.5t60 171.5q15 39 30.5 50t57.5 11q1 0 45 1t45 -1q11 0 31 -4q17 -6 22 -15t0 -26
q-2 -8 -41 -127q-38 -107 -112.5 -320t-112.5 -319q-16 -50 -16 -96q2 -129 2 -387q0 -23 -2 -33q-3 -21 -14 -30t-35 -11h-115zM186 1430q-38 -11 -53 24q-23 62 -29 84q-9 45 33 59q348 117 416 140q1 1 22 4q2 -2 9.5 -8t13 -12t8.5 -11q15 -32 29 -78q8 -29 1 -42
t-38 -23q-117 -42 -315 -107q-66 -20 -97 -30z" />
    <glyph glyph-name="ydieresis" unicode="&#xff;" horiz-adv-x="1144" 
d="M338 0q-49 0 -49 51v211v160q3 71 -27 149q-42 120 -126 359.5t-126 359.5q-15 47 -4 62.5t62 15.5h86q33 0 49 -11t28 -42l129 -369q8 -24 17 -35q17 -23 35 2q7 11 14 33q24 66 67 189.5t60 171.5q15 39 30.5 50t57.5 11q1 0 45 1t45 -1q11 0 31 -4q17 -6 22 -15t0 -26
q-2 -8 -41 -127q-38 -107 -112.5 -320t-112.5 -319q-16 -50 -16 -96q2 -129 2 -387q0 -23 -2 -33q-3 -21 -14 -30t-35 -11h-115zM580 1436q-44 0 -74.5 29.5t-30.5 72.5q0 45 30.5 74.5t76.5 29.5q42 5 73.5 -25t32.5 -79q1 -42 -31 -72t-77 -30zM201 1436q-43 0 -74 30
t-31 74q-1 43 31 73.5t76 28.5q46 3 76 -28.5t30 -75.5q1 -44 -30.5 -73t-77.5 -29z" />
    <glyph glyph-name="Wcircumflex" unicode="&#x174;" horiz-adv-x="1323" 
d="M340 0q-170 0 -254 2q-39 0 -39 45q-6 125 -14 389q-5 115 -14.5 345t-14.5 345q-2 59 -2 177q0 29 12 41t41 12q81 4 119 0q17 -3 37 -31q6 -8 6 -37q4 -94 8 -282q3 -97 23 -580q0 -8 3.5 -23.5t4.5 -19.5q2 -1 6 -2t6 -2q2 5 10.5 25t10.5 32q28 103 88 346
q9 37 23.5 48.5t52.5 11.5h61q37 0 53 -12.5t23 -49.5q76 -303 88 -346q4 -20 20 -55q2 2 11 2q10 45 10 53q3 75 8 224.5t8 224.5q6 209 15 417q2 34 14 46t45 12h96q35 -2 47.5 -14.5t12.5 -47.5q-12 -302 -21 -589q-4 -76 -8 -232q-6 -141 -14 -426q-3 -47 -43 -47h-258
q-39 0 -52 45q-36 153 -63 250q-2 7 -8.5 20.5t-8.5 20.5q-3 0 -8.5 -1t-7.5 -1q-4 -16 -16 -54t-17 -59q-7 -29 -21.5 -86.5t-21.5 -85.5q-10 -51 -57 -51zM674 1427q-21 -3 -49 17q-41 29 -103 80q-29 23 -47 23t-47 -23q-17 -13 -49.5 -38t-48.5 -38q-23 -19 -38.5 -17.5
t-35.5 23.5q-8 8 -16.5 18.5t-17.5 23.5t-15 20q-31 39 8 67q140 111 221 174q37 30 74 0q114 -85 225 -174q5 -4 10.5 -11t10.5 -14.5t6 -9.5q-1 -25 -36 -72t-52 -49z" />
    <glyph glyph-name="wcircumflex" unicode="&#x175;" horiz-adv-x="1323" 
d="M340 0q-170 0 -254 2q-39 0 -39 45q-6 125 -14 389q-5 115 -14.5 345t-14.5 345q-2 59 -2 177q0 29 12 41t41 12q81 4 119 0q17 -3 37 -31q6 -8 6 -37q4 -94 8 -282q3 -97 23 -580q0 -8 3.5 -23.5t4.5 -19.5q2 -1 6 -2t6 -2q2 5 10.5 25t10.5 32q28 103 88 346
q9 37 23.5 48.5t52.5 11.5h61q37 0 53 -12.5t23 -49.5q76 -303 88 -346q4 -20 20 -55q2 2 11 2q10 45 10 53q3 75 8 224.5t8 224.5q6 209 15 417q2 34 14 46t45 12h96q35 -2 47.5 -14.5t12.5 -47.5q-12 -302 -21 -589q-4 -76 -8 -232q-6 -141 -14 -426q-3 -47 -43 -47h-258
q-39 0 -52 45q-36 153 -63 250q-2 7 -8.5 20.5t-8.5 20.5q-3 0 -8.5 -1t-7.5 -1q-4 -16 -16 -54t-17 -59q-7 -29 -21.5 -86.5t-21.5 -85.5q-10 -51 -57 -51zM674 1427q-21 -3 -49 17q-41 29 -103 80q-29 23 -47 23t-47 -23q-17 -13 -49.5 -38t-48.5 -38q-23 -19 -38.5 -17.5
t-35.5 23.5q-8 8 -16.5 18.5t-17.5 23.5t-15 20q-31 39 8 67q140 111 221 174q37 30 74 0q114 -85 225 -174q5 -4 10.5 -11t10.5 -14.5t6 -9.5q-1 -25 -36 -72t-52 -49z" />
    <glyph glyph-name="Ycircumflex" unicode="&#x176;" horiz-adv-x="1144" 
d="M338 0q-49 0 -49 51v211v160q3 71 -27 149q-42 120 -126 359.5t-126 359.5q-15 47 -4 62.5t62 15.5h86q33 0 49 -11t28 -42l129 -369q8 -24 17 -35q17 -23 35 2q7 11 14 33q24 66 67 189.5t60 171.5q15 39 30.5 50t57.5 11q1 0 45 1t45 -1q11 0 31 -4q17 -6 22 -15t0 -26
q-2 -8 -41 -127q-38 -107 -112.5 -320t-112.5 -319q-16 -50 -16 -96q2 -129 2 -387q0 -23 -2 -33q-3 -21 -14 -30t-35 -11h-115zM592 1427q-21 -3 -49 17q-41 29 -103 80q-29 23 -47 23t-47 -23q-16 -13 -49 -38t-49 -38q-23 -19 -38.5 -17.5t-35.5 23.5q-8 8 -16.5 18.5
t-17.5 23.5t-15 20q-31 39 8 67q140 111 221 174q37 30 74 0q114 -85 225 -174q5 -4 10.5 -11t10.5 -14.5t6 -9.5q-1 -25 -36 -72t-52 -49z" />
    <glyph glyph-name="ycircumflex" unicode="&#x177;" horiz-adv-x="1144" 
d="M338 0q-49 0 -49 51v211v160q3 71 -27 149q-42 120 -126 359.5t-126 359.5q-15 47 -4 62.5t62 15.5h86q33 0 49 -11t28 -42l129 -369q8 -24 17 -35q17 -23 35 2q7 11 14 33q24 66 67 189.5t60 171.5q15 39 30.5 50t57.5 11q1 0 45 1t45 -1q11 0 31 -4q17 -6 22 -15t0 -26
q-2 -8 -41 -127q-38 -107 -112.5 -320t-112.5 -319q-16 -50 -16 -96q2 -129 2 -387q0 -23 -2 -33q-3 -21 -14 -30t-35 -11h-115zM592 1427q-21 -3 -49 17q-41 29 -103 80q-29 23 -47 23t-47 -23q-16 -13 -49 -38t-49 -38q-23 -19 -38.5 -17.5t-35.5 23.5q-8 8 -16.5 18.5
t-17.5 23.5t-15 20q-31 39 8 67q140 111 221 174q37 30 74 0q114 -85 225 -174q5 -4 10.5 -11t10.5 -14.5t6 -9.5q-1 -25 -36 -72t-52 -49z" />
    <glyph glyph-name="Ydieresis" unicode="&#x178;" horiz-adv-x="1144" 
d="M338 0q-49 0 -49 51v211v160q3 71 -27 149q-42 120 -126 359.5t-126 359.5q-15 47 -4 62.5t62 15.5h86q33 0 49 -11t28 -42l129 -369q8 -24 17 -35q17 -23 35 2q7 11 14 33q24 66 67 189.5t60 171.5q15 39 30.5 50t57.5 11q1 0 45 1t45 -1q11 0 31 -4q17 -6 22 -15t0 -26
q-2 -8 -41 -127q-38 -107 -112.5 -320t-112.5 -319q-16 -50 -16 -96q2 -129 2 -387q0 -23 -2 -33q-3 -21 -14 -30t-35 -11h-115zM580 1436q-44 0 -74.5 29.5t-30.5 72.5q0 45 30.5 74.5t76.5 29.5q42 5 73.5 -25t32.5 -79q1 -42 -31 -72t-77 -30zM201 1436q-43 0 -74 30
t-31 74q-1 43 31 73.5t76 28.5q46 3 76 -28.5t30 -75.5q1 -44 -30.5 -73t-77.5 -29z" />
    <glyph glyph-name="circumflex" unicode="&#x2c6;" horiz-adv-x="645" 
d="M516 1427q-21 -3 -49 17q-33 24 -102 80q-29 23 -47.5 23t-47.5 -23q-16 -13 -48.5 -38t-49.5 -38q-23 -19 -38.5 -17.5t-35.5 23.5q-8 8 -16.5 18.5t-17.5 23.5t-15 20q-31 39 8 67q111 89 222 174q37 29 73 0q131 -98 226 -174q5 -4 10 -11t9.5 -14.5t6.5 -9.5
q-1 -25 -36 -72t-52 -49z" />
    <glyph glyph-name="ring" unicode="&#x2da;" horiz-adv-x="501" 
d="M260 1432q-90 -1 -153.5 59t-65.5 147q0 86 61.5 148t149.5 63q86 0 149 -59.5t64 -144.5q2 -85 -60 -149t-145 -64zM254 1575q29 0 48.5 19.5t19.5 47.5q-1 26 -23 47t-47 21q-26 -1 -47 -23.5t-21 -48.5q2 -28 22 -46t48 -17z" />
    <glyph glyph-name="tilde" unicode="&#x2dc;" horiz-adv-x="790" 
d="M227 1452q-84 37 -166 94q-24 14 -25 31t17 41q1 1 47 53q30 38 72 10q9 -6 27.5 -18t27.5 -18q32 -20 51.5 -18t47.5 28q86 86 202 69q113 -17 209 -106q4 -4 13 -27q-11 -22 -13 -24q-5 -6 -16.5 -18.5t-18 -19.5t-16 -16.5t-18.5 -15.5q-9 -7 -25.5 -8t-26.5 4
q-15 7 -39 23t-36 22q-55 25 -99 -16q-3 -3 -45 -39q-87 -70 -170 -31z" />
    <glyph glyph-name="gravecomb" unicode="&#x300;" horiz-adv-x="0" 
d="M-442 1430q-31 10 -97 30q-198 65 -315 107q-31 10 -38 23t1 42q14 46 29 78q3 5 8.5 11t13 12t9.5 8q21 -3 22 -4q68 -23 416 -140q42 -14 33 -59q-6 -22 -29 -84q-15 -35 -53 -24z" />
    <glyph glyph-name="acutecomb" unicode="&#x301;" horiz-adv-x="0" 
d="M-811 1430q-38 -11 -53 24q-23 62 -29 84q-9 45 33 59q347 117 416 140q1 1 22 4q2 -2 9.5 -8t13 -12t8.5 -11q15 -32 29 -78q8 -29 1 -42t-38 -23q-104 -37 -316 -107q-49 -15 -96 -30z" />
    <glyph glyph-name="uni0302" unicode="&#x302;" horiz-adv-x="0" 
d="M-446 1427q-22 -3 -50 17q-33 24 -102 80q-29 23 -47 23t-47 -23q-17 -12 -50 -38t-49 -38q-23 -19 -38 -17.5t-35 23.5q-8 8 -16.5 18.5t-17.5 23.5t-15 20q-31 39 8 67q139 111 221 174q37 30 74 0q114 -85 225 -174q5 -4 10.5 -11t10.5 -14.5t6 -9.5q-1 -25 -36 -72
t-52 -49z" />
    <glyph glyph-name="tildecomb" unicode="&#x303;" horiz-adv-x="0" 
d="M-881 1452q-84 37 -166 94q-24 14 -25 31t17 41q1 1 47 53q30 38 72 10q9 -6 27.5 -18t27.5 -18q32 -20 51.5 -18t47.5 28q86 86 202 69q113 -17 209 -106q4 -4 13 -27q-11 -22 -13 -24q-5 -6 -16.5 -18.5t-18 -19.5t-16 -16.5t-18.5 -15.5q-9 -7 -25.5 -8t-26.5 4
q-15 7 -39 23t-36 22q-55 25 -99 -16q-3 -3 -45 -39q-87 -70 -170 -31z" />
    <glyph glyph-name="uni0304" unicode="&#x304;" horiz-adv-x="0" 
d="M-616 1438q-28 0 -39 10.5t-11 38.5v119q0 38 35 41q42 6 45 6h508q47 0 62.5 -15.5t15.5 -62.5v-80q0 -34 -11.5 -45.5t-45.5 -11.5h-277h-282z" />
    <glyph glyph-name="uni0307" unicode="&#x307;" horiz-adv-x="0" 
d="M-467 1432q-43 0 -73.5 30t-30.5 74q0 43 31 73t75 29q46 3 76.5 -28.5t30.5 -75.5q1 -44 -31 -73t-78 -29z" />
    <glyph glyph-name="uni0308" unicode="&#x308;" horiz-adv-x="0" 
d="M-467 1436q-44 0 -74 29.5t-30 72.5q0 46 30 75t76 29q42 5 74 -25t33 -79q1 -42 -31.5 -72t-77.5 -30zM-846 1436q-43 0 -73.5 30t-30.5 74q-1 43 30.5 73.5t75.5 28.5q46 3 76.5 -28.5t30.5 -75.5q1 -44 -31 -73t-78 -29z" />
    <glyph glyph-name="uni030A" unicode="&#x30a;" horiz-adv-x="0" 
d="M-563 1432q-90 -1 -153.5 59t-65.5 147q0 86 61.5 148t149.5 63q86 0 149 -59.5t64 -144.5q2 -85 -60 -149t-145 -64zM-569 1575q29 0 48 19.5t19 47.5q-1 26 -22.5 47t-46.5 21q-26 -1 -47 -23.5t-21 -48.5q2 -28 22 -46t48 -17z" />
    <glyph glyph-name="uni0326" unicode="&#x326;" horiz-adv-x="0" 
d="M-229 -492q-26 1 -34.5 22t5.5 44q11 15 41 49q14 20 12 35.5t-22 32.5q-62 51 -66 114.5t51 114.5q66 57 146 27q78 -29 90 -109l2.5 -10t2.5 -10.5t1 -7.5q-6 -194 -156 -285q-34 -20 -73 -17z" />
    <glyph glyph-name="uni0327" unicode="&#x327;" horiz-adv-x="0" 
d="M-592 -426q-20 -4 -33.5 6.5t-15.5 32.5v39q0 24 1.5 33.5t2 19t11 15t17 8.5t31.5 12q38 17 50 41q11 27 -31 56q-3 2 -4 3q-46 35 -58 70.5t3 91.5q0 12 4 12q72 20 90 21q43 4 57 -31q17 -41 51 -80q68 -73 54.5 -166.5t-101.5 -140.5q-36 -21 -129 -43z" />
    <glyph glyph-name="uni0328" unicode="&#x328;" horiz-adv-x="0" 
d="M-31 -401q-72 -26 -142.5 -21t-131 50t-82.5 118q-4 15 -6 37.5t-2 23.5q5 68 30 124t68 122q25 38 64 10q8 -6 24.5 -17t20.5 -14.5t14 -12t10 -13.5t2 -14t-2.5 -19t-11 -23.5t-17.5 -31.5q-20 -32 -34 -78q-14 -42 6 -71.5t61 -26.5q43 3 75 -15.5t67 -54.5
q41 -50 -13 -73z" />
    <glyph glyph-name="Wgrave" unicode="&#x1e80;" horiz-adv-x="1323" 
d="M340 0q-170 0 -254 2q-39 0 -39 45q-6 125 -14 389q-5 115 -14.5 345t-14.5 345q-2 59 -2 177q0 29 12 41t41 12q81 4 119 0q17 -3 37 -31q6 -8 6 -37q4 -94 8 -282q3 -97 23 -580q0 -8 3.5 -23.5t4.5 -19.5q2 -1 6 -2t6 -2q2 5 10.5 25t10.5 32q28 103 88 346
q9 37 23.5 48.5t52.5 11.5h61q37 0 53 -12.5t23 -49.5q76 -303 88 -346q4 -20 20 -55q2 2 11 2q10 45 10 53q3 75 8 224.5t8 224.5q6 209 15 417q2 34 14 46t45 12h96q35 -2 47.5 -14.5t12.5 -47.5q-12 -302 -21 -589q-4 -76 -8 -232q-6 -141 -14 -426q-3 -47 -43 -47h-258
q-39 0 -52 45q-36 153 -63 250q-2 7 -8.5 20.5t-8.5 20.5q-3 0 -8.5 -1t-7.5 -1q-4 -16 -16 -54t-17 -59q-7 -29 -21.5 -86.5t-21.5 -85.5q-10 -51 -57 -51zM674 1430q-46 15 -96 30q-212 70 -316 107q-31 10 -38 23t1 42q14 46 29 78q3 5 8.5 11t13 12t9.5 8q21 -3 22 -4
q69 -23 416 -140q42 -14 33 -59q-6 -22 -29 -84q-15 -35 -53 -24z" />
    <glyph glyph-name="wgrave" unicode="&#x1e81;" horiz-adv-x="1323" 
d="M340 0q-170 0 -254 2q-39 0 -39 45q-6 125 -14 389q-5 115 -14.5 345t-14.5 345q-2 59 -2 177q0 29 12 41t41 12q81 4 119 0q17 -3 37 -31q6 -8 6 -37q4 -94 8 -282q3 -97 23 -580q0 -8 3.5 -23.5t4.5 -19.5q2 -1 6 -2t6 -2q2 5 10.5 25t10.5 32q28 103 88 346
q9 37 23.5 48.5t52.5 11.5h61q37 0 53 -12.5t23 -49.5q76 -303 88 -346q4 -20 20 -55q2 2 11 2q10 45 10 53q3 75 8 224.5t8 224.5q6 209 15 417q2 34 14 46t45 12h96q35 -2 47.5 -14.5t12.5 -47.5q-12 -302 -21 -589q-4 -76 -8 -232q-6 -141 -14 -426q-3 -47 -43 -47h-258
q-39 0 -52 45q-36 153 -63 250q-2 7 -8.5 20.5t-8.5 20.5q-3 0 -8.5 -1t-7.5 -1q-4 -16 -16 -54t-17 -59q-7 -29 -21.5 -86.5t-21.5 -85.5q-10 -51 -57 -51zM674 1430q-46 15 -96 30q-212 70 -316 107q-31 10 -38 23t1 42q14 46 29 78q3 5 8.5 11t13 12t9.5 8q21 -3 22 -4
q69 -23 416 -140q42 -14 33 -59q-6 -22 -29 -84q-15 -35 -53 -24z" />
    <glyph glyph-name="Wacute" unicode="&#x1e82;" horiz-adv-x="1323" 
d="M340 0q-170 0 -254 2q-39 0 -39 45q-6 125 -14 389q-5 115 -14.5 345t-14.5 345q-2 59 -2 177q0 29 12 41t41 12q81 4 119 0q17 -3 37 -31q6 -8 6 -37q4 -94 8 -282q3 -97 23 -580q0 -8 3.5 -23.5t4.5 -19.5q2 -1 6 -2t6 -2q2 5 10.5 25t10.5 32q28 103 88 346
q9 37 23.5 48.5t52.5 11.5h61q37 0 53 -12.5t23 -49.5q76 -303 88 -346q4 -20 20 -55q2 2 11 2q10 45 10 53q3 75 8 224.5t8 224.5q6 209 15 417q2 34 14 46t45 12h96q35 -2 47.5 -14.5t12.5 -47.5q-12 -302 -21 -589q-4 -76 -8 -232q-6 -141 -14 -426q-3 -47 -43 -47h-258
q-39 0 -52 45q-36 153 -63 250q-2 7 -8.5 20.5t-8.5 20.5q-3 0 -8.5 -1t-7.5 -1q-4 -16 -16 -54t-17 -59q-7 -29 -21.5 -86.5t-21.5 -85.5q-10 -51 -57 -51zM289 1430q-38 -11 -53 24q-23 62 -29 84q-9 45 33 59q381 129 415 140l23 4q2 -2 9.5 -8t13 -12t8.5 -11
q13 -27 28 -78q8 -29 1 -42t-38 -23q-117 -42 -315 -107q-49 -15 -96 -30z" />
    <glyph glyph-name="wacute" unicode="&#x1e83;" horiz-adv-x="1323" 
d="M340 0q-170 0 -254 2q-39 0 -39 45q-6 125 -14 389q-5 115 -14.5 345t-14.5 345q-2 59 -2 177q0 29 12 41t41 12q81 4 119 0q17 -3 37 -31q6 -8 6 -37q4 -94 8 -282q3 -97 23 -580q0 -8 3.5 -23.5t4.5 -19.5q2 -1 6 -2t6 -2q2 5 10.5 25t10.5 32q28 103 88 346
q9 37 23.5 48.5t52.5 11.5h61q37 0 53 -12.5t23 -49.5q76 -303 88 -346q4 -20 20 -55q2 2 11 2q10 45 10 53q3 75 8 224.5t8 224.5q6 209 15 417q2 34 14 46t45 12h96q35 -2 47.5 -14.5t12.5 -47.5q-12 -302 -21 -589q-4 -76 -8 -232q-6 -141 -14 -426q-3 -47 -43 -47h-258
q-39 0 -52 45q-36 153 -63 250q-2 7 -8.5 20.5t-8.5 20.5q-3 0 -8.5 -1t-7.5 -1q-4 -16 -16 -54t-17 -59q-7 -29 -21.5 -86.5t-21.5 -85.5q-10 -51 -57 -51zM289 1430q-38 -11 -53 24q-23 62 -29 84q-9 45 33 59q381 129 415 140l23 4q2 -2 9.5 -8t13 -12t8.5 -11
q13 -27 28 -78q8 -29 1 -42t-38 -23q-117 -42 -315 -107q-49 -15 -96 -30z" />
    <glyph glyph-name="Wdieresis" unicode="&#x1e84;" horiz-adv-x="1323" 
d="M340 0q-170 0 -254 2q-39 0 -39 45q-6 125 -14 389q-5 115 -14.5 345t-14.5 345q-2 59 -2 177q0 29 12 41t41 12q81 4 119 0q17 -3 37 -31q6 -8 6 -37q4 -94 8 -282q3 -97 23 -580q0 -8 3.5 -23.5t4.5 -19.5q2 -1 6 -2t6 -2q2 5 10.5 25t10.5 32q28 103 88 346
q9 37 23.5 48.5t52.5 11.5h61q37 0 53 -12.5t23 -49.5q76 -303 88 -346q4 -20 20 -55q2 2 11 2q10 45 10 53q3 75 8 224.5t8 224.5q6 209 15 417q2 34 14 46t45 12h96q35 -2 47.5 -14.5t12.5 -47.5q-12 -302 -21 -589q-4 -76 -8 -232q-6 -141 -14 -426q-3 -47 -43 -47h-258
q-39 0 -52 45q-36 153 -63 250q-2 7 -8.5 20.5t-8.5 20.5q-3 0 -8.5 -1t-7.5 -1q-4 -16 -16 -54t-17 -59q-7 -29 -21.5 -86.5t-21.5 -85.5q-10 -51 -57 -51zM670 1436q-44 0 -74.5 29.5t-30.5 72.5q0 45 30.5 74.5t76.5 29.5q42 5 73.5 -25t32.5 -79q1 -42 -31 -72t-77 -30z
M291 1436q-43 0 -74 30t-31 74q-1 43 31 73.5t76 28.5q46 3 76 -28.5t30 -75.5q1 -44 -30.5 -73t-77.5 -29z" />
    <glyph glyph-name="wdieresis" unicode="&#x1e85;" horiz-adv-x="1323" 
d="M340 0q-170 0 -254 2q-39 0 -39 45q-6 125 -14 389q-5 115 -14.5 345t-14.5 345q-2 59 -2 177q0 29 12 41t41 12q81 4 119 0q17 -3 37 -31q6 -8 6 -37q4 -94 8 -282q3 -97 23 -580q0 -8 3.5 -23.5t4.5 -19.5q2 -1 6 -2t6 -2q2 5 10.5 25t10.5 32q28 103 88 346
q9 37 23.5 48.5t52.5 11.5h61q37 0 53 -12.5t23 -49.5q76 -303 88 -346q4 -20 20 -55q2 2 11 2q10 45 10 53q3 75 8 224.5t8 224.5q6 209 15 417q2 34 14 46t45 12h96q35 -2 47.5 -14.5t12.5 -47.5q-12 -302 -21 -589q-4 -76 -8 -232q-6 -141 -14 -426q-3 -47 -43 -47h-258
q-39 0 -52 45q-36 153 -63 250q-2 7 -8.5 20.5t-8.5 20.5q-3 0 -8.5 -1t-7.5 -1q-4 -16 -16 -54t-17 -59q-7 -29 -21.5 -86.5t-21.5 -85.5q-10 -51 -57 -51zM670 1436q-44 0 -74.5 29.5t-30.5 72.5q0 45 30.5 74.5t76.5 29.5q42 5 73.5 -25t32.5 -79q1 -42 -31 -72t-77 -30z
M291 1436q-43 0 -74 30t-31 74q-1 43 31 73.5t76 28.5q46 3 76 -28.5t30 -75.5q1 -44 -30.5 -73t-77.5 -29z" />
    <glyph glyph-name="Ygrave" unicode="&#x1ef2;" horiz-adv-x="1144" 
d="M338 0q-49 0 -49 51v211v160q3 71 -27 149q-42 120 -126 359.5t-126 359.5q-15 47 -4 62.5t62 15.5h86q33 0 49 -11t28 -42l129 -369q8 -24 17 -35q17 -23 35 2q7 11 14 33q24 66 67 189.5t60 171.5q15 39 30.5 50t57.5 11q1 0 45 1t45 -1q11 0 31 -4q17 -6 22 -15t0 -26
q-2 -8 -41 -127q-38 -107 -112.5 -320t-112.5 -319q-16 -50 -16 -96q2 -129 2 -387q0 -23 -2 -33q-3 -21 -14 -30t-35 -11h-115zM582 1430q-31 10 -97 30q-198 65 -315 107q-31 10 -38 23t1 42q14 46 29 78q3 5 8.5 11t13 12t9.5 8q21 -3 22 -4q69 -23 416 -140
q42 -14 33 -59q-6 -22 -29 -84q-15 -35 -53 -24z" />
    <glyph glyph-name="ygrave" unicode="&#x1ef3;" horiz-adv-x="1144" 
d="M338 0q-49 0 -49 51v211v160q3 71 -27 149q-42 120 -126 359.5t-126 359.5q-15 47 -4 62.5t62 15.5h86q33 0 49 -11t28 -42l129 -369q8 -24 17 -35q17 -23 35 2q7 11 14 33q24 66 67 189.5t60 171.5q15 39 30.5 50t57.5 11q1 0 45 1t45 -1q11 0 31 -4q17 -6 22 -15t0 -26
q-2 -8 -41 -127q-38 -107 -112.5 -320t-112.5 -319q-16 -50 -16 -96q2 -129 2 -387q0 -23 -2 -33q-3 -21 -14 -30t-35 -11h-115zM582 1430q-31 10 -97 30q-198 65 -315 107q-31 10 -38 23t1 42q14 46 29 78q3 5 8.5 11t13 12t9.5 8q21 -3 22 -4q69 -23 416 -140
q42 -14 33 -59q-6 -22 -29 -84q-15 -35 -53 -24z" />
    <glyph glyph-name="endash" unicode="&#x2013;" horiz-adv-x="931" 
d="M49 551q-28 0 -38.5 10.5t-10.5 38.5v119q0 38 35 41q42 6 45 6h508q47 0 62.5 -15.5t15.5 -62.5v-80q0 -34 -12 -45.5t-46 -11.5h-276h-283z" />
    <glyph glyph-name="emdash" unicode="&#x2014;" horiz-adv-x="1177" 
d="M457 567h-402q-30 0 -41.5 12.5t-13.5 45.5v96q0 30 12 43t43 18h25h751q7 0 23 -2t23 -2q34 -5 34 -39v-114q-2 -37 -12 -47.5t-45 -10.5h-397z" />
    <glyph glyph-name="quoteleft" unicode="&#x2018;" horiz-adv-x="552" 
d="M147 1038q-36 -2 -106 2q-41 3 -41 50v149v147q0 49 51 52h88q31 -1 43.5 -15t12.5 -45v-282q3 -55 -48 -58z" />
    <glyph glyph-name="quoteright" unicode="&#x2019;" horiz-adv-x="552" 
d="M147 1038q-36 -2 -106 2q-41 3 -41 50v149v147q0 49 51 52h88q31 -1 43.5 -15t12.5 -45v-282q3 -55 -48 -58z" />
    <glyph glyph-name="quotedblleft" unicode="&#x201c;" horiz-adv-x="854" 
d="M449 1034q-37 -2 -107 2q-41 3 -41 49v150l1 73q0 74 -1 74q0 49 51 52h88q31 -1 43.5 -15t12.5 -45v-282q3 -55 -47 -58zM150 1036q-63 -3 -113 2q-11 2 -23 14.5t-12 22.5q-2 104 -2 318q0 39 45 39q44 5 96 2q29 -1 41.5 -15.5t12.5 -44.5v-141v-141q0 -53 -45 -56z
" />
    <glyph glyph-name="quotedblright" unicode="&#x201d;" horiz-adv-x="854" 
d="M449 1034q-37 -2 -107 2q-41 3 -41 49v150l1 73q0 74 -1 74q0 49 51 52h88q31 -1 43.5 -15t12.5 -45v-282q3 -55 -47 -58zM150 1036q-63 -3 -113 2q-11 2 -23 14.5t-12 22.5q-2 104 -2 318q0 39 45 39q44 5 96 2q29 -1 41.5 -15.5t12.5 -44.5v-141v-141q0 -53 -45 -56z
" />
    <glyph glyph-name="guilsinglleft" unicode="&#x2039;" horiz-adv-x="1167" 
d="M442 252q-16 13 -47.5 41t-46.5 41q-53 49 -158.5 147.5t-158.5 147.5q-31 29 -31 43.5t31 42.5q66 62 197 183t196 183q30 26 46 25t44 -29q41 -41 72 -80q3 -3 5.5 -7.5t6 -12t6.5 -12.5q-25 -35 -33 -43q-32 -30 -68.5 -63.5t-80.5 -73.5t-70 -64q-35 -31 -35.5 -47.5
t33.5 -48.5q113 -101 217 -199q29 -26 31 -43.5t-23 -48.5q-13 -13 -36.5 -39t-36.5 -39q-31 -31 -60 -4z" />
    <glyph glyph-name="guilsinglright" unicode="&#x203a;" horiz-adv-x="1165" 
d="M96 260q-28 28 -82 90q-30 37 6 68q39 36 117 108.5t117 108.5q29 28 29.5 42t-27.5 40q-39 36 -115.5 107.5t-115.5 107.5q-25 23 -25 39t23 41q34 40 67 73q23 25 39 26t39 -21q124 -113 403 -371q5 -4 10 -10.5t11.5 -16.5t9.5 -14q-3 -4 -9 -15t-10.5 -17t-9.5 -11
q-135 -125 -409 -375q-36 -36 -68 0z" />
    <glyph glyph-name="fraction" unicode="&#x2044;" horiz-adv-x="1275" 
d="M104 0v2h-63q-30 2 -37.5 13.5t4.5 39.5q24 59 115 279q395 933 407 962q22 52 36 61t73 9h96q29 -1 36.5 -14t-3.5 -39q-19 -48 -53.5 -132.5t-46.5 -113.5q-70 -165 -209.5 -493.5t-208.5 -493.5q-25 -60 -39.5 -70t-79.5 -10h-27z" />
    <glyph glyph-name="Euro" unicode="&#x20ac;" horiz-adv-x="1196" 
d="M696 68q-61 -45 -150.5 -59t-180.5 9t-150 80q-101 101 -104 250q-3 48 0 96q0 43 -39 43q-49 0 -62.5 26.5t-3.5 80.5q7 35 55 35q47 0 50 43q1 34 -6.5 44.5t-38.5 16.5q-43 8 -57.5 31t-4.5 67q10 43 51 43q31 0 42 11.5t14 44.5q1 17 2 51t2 55t5 49.5t11 51.5
q32 115 130.5 178t225.5 57q226 -10 312 -184q18 -37 39 -135q4 -24 -10.5 -40t-41.5 -18h-110q-48 0 -55 54q-6 42 -30.5 69t-62.5 33q-41 5 -65 6t-57 -11.5t-54 -41.5q-17 -27 -20 -57q-6 -41 -6 -125q0 -50 53 -50q21 1 60.5 1t60.5 1q50 0 59 -47q9 -50 -8 -71.5
t-66 -22.5q-79 0 -118 -2q-45 0 -41 -55q3 -47 45 -47q63 3 127 0q32 0 46 -14.5t17 -49.5q2 -39 -11 -56.5t-46 -21.5q-10 -1 -22 -1t-26 0.5t-22 0.5h-57q-51 3 -51 -47q-3 -55 6 -110q7 -51 39.5 -79t83.5 -30q73 -3 110.5 20t52.5 81q13 44 52 47h121q48 -3 45 -56
q-11 -149 -140 -245z" />
    <glyph glyph-name="trademark" unicode="&#x2122;" horiz-adv-x="1261" 
d="M158 0q-19 3 -25 23v18v287v286v17q-4 16 -18 16q-27 0 -41 2q-33 0 -51 2q-21 0 -21 23v74q0 22 21 22q12 2 36 2h275q25 0 37 -2q18 0 18 -18v-80q-3 -21 -22 -21q-20 -2 -64 -2q-31 0 -39 -7.5t-8 -39.5v-563v-14q0 -23 -23 -23q-25 -2 -75 -2zM649 0q-11 0 -31 1
t-32 1q-19 3 -19 21q0 6 -1 15.5t-1 14.5v682v6q0 31 7 38t38 7h115q23 0 33 -26q11 -48 41 -162q0 -5 3.5 -12.5t4.5 -10.5q6 0 6 -2q2 5 7 15.5t7 15.5q6 24 18.5 75t18.5 75q5 19 12 25.5t27 6.5h119q22 0 28.5 -7t6.5 -29v-594v-121q0 -33 -29 -33h-65q-29 0 -29 33v233
v193q0 7 -3 21.5t-3 17.5h-8q-2 -7 -7.5 -24t-7.5 -27q-6 -21 -17.5 -65.5t-17.5 -66.5q-4 -20 -11 -25t-28 -5h-47q-23 0 -32 24q-8 33 -41 160q-1 4 -11 29h-6q0 -4 -2 -13.5t-2 -13.5v-416v-14q-1 -27 -8.5 -34t-32.5 -9z" />
    <glyph glyph-name="minus" unicode="&#x2212;" horiz-adv-x="872" 
d="M256 553q23 0 65.5 0.5t77 0.5t64.5 -1q51 0 51 49v94q-2 48 -14.5 60t-63.5 12h-356q-31 0 -43 -6q-30 -15 -33 -33q-4 -45 -4 -135q3 -41 49 -41h207z" />
    </font>
</defs>
</svg>
