<?xml version="1.0" standalone="no"?>
<!DOCTYPE svg PUBLIC "-//W3C//DTD SVG 1.1//EN" "http://www.w3.org/Graphics/SVG/1.1/DTD/svg11.dtd" >
<svg xmlns="http://www.w3.org/2000/svg" xmlns:xlink="http://www.w3.org/1999/xlink" version="1.1">
<metadata>
Created by FontForge 20170731 at Fri Mar  3 03:11:17 2023
 By Aleksey,,,
Copyright 2016 Greg Nicholls
</metadata>
<defs>
<font id="Revelstoke-Condensed" horiz-adv-x="1050" >
  <font-face 
    font-family="Revelstoke Condensed"
    font-weight="400"
    font-stretch="condensed"
    units-per-em="2048"
    panose-1="0 0 5 6 0 0 0 0 0 0"
    ascent="1638"
    descent="-410"
    x-height="1561"
    cap-height="1591"
    bbox="-1073.51 -503.373 1011.51 1958"
    underline-thickness="102"
    underline-position="-307"
    unicode-range="U+0020-2212"
  />
<missing-glyph horiz-adv-x="1177" 
d="M965 1946v-2356h-746v2356h746zM784 340h-391v-266h391v266zM707 262v-110h-236v110h236zM784 748h-235v-134h80v56h78v-111h-236v189h-78v-267h391v267zM784 1034h-77v-155h-314v-80h391v235zM784 1176h-391v-78h156v-88h-156v-76h236v164h155v78zM549 1403v-84h-78v84
h78zM629 1485h-236v-246h391v80h-155v166zM784 1788h-389v-78h154v-88h-156v-78h391v78h-155v88h155v78zM784 18h-391v-77h166l-166 -111v-78h391v78h-239l164 111h75v77z" />
    <glyph glyph-name=".notdef" horiz-adv-x="1177" 
d="M965 1946v-2356h-746v2356h746zM784 340h-391v-266h391v266zM707 262v-110h-236v110h236zM784 748h-235v-134h80v56h78v-111h-236v189h-78v-267h391v267zM784 1034h-77v-155h-314v-80h391v235zM784 1176h-391v-78h156v-88h-156v-76h236v164h155v78zM549 1403v-84h-78v84
h78zM629 1485h-236v-246h391v80h-155v166zM784 1788h-389v-78h154v-88h-156v-78h391v78h-155v88h155v78zM784 18h-391v-77h166l-166 -111v-78h391v78h-239l164 111h75v77z" />
    <glyph glyph-name=".null" horiz-adv-x="0" 
 />
    <glyph glyph-name="nonmarkingreturn" horiz-adv-x="682" 
 />
    <glyph glyph-name="space" unicode=" " horiz-adv-x="1126" 
 />
    <glyph glyph-name="exclam" unicode="!" horiz-adv-x="571" 
d="M168 494q-75 -28 -131 6q-17 8 -21 43q-2 7 -2 49v903v35q3 41 16.5 55t53.5 17h43q43 -3 56.5 -16.5t13.5 -57.5q2 -164 2 -488q0 -311 -2 -467q0 -4 1 -17t0 -19.5t-3 -16.5t-9 -16t-18 -10zM111 0q-43 -1 -76 29t-35 71q-1 43 32 78t74 35q43 -1 74.5 -32.5
t32.5 -74.5q0 -44 -29.5 -74t-72.5 -32z" />
    <glyph glyph-name="quotedbl" unicode="&#x22;" horiz-adv-x="817" 
d="M57 1133q-33 3 -44 13.5t-11 41.5q-2 59 -2 180v150q2 47 15.5 60t62.5 13h20q37 -3 49 -14t13 -47q2 -35 2 -107v-215q-1 -51 -15 -63t-67 -12h-23zM377 1133q-51 0 -65 12t-15 59v156v166q1 42 17 53.5t69 11.5q46 -2 60 -14.5t14 -54.5q3 -159 0 -322q0 -44 -14 -55.5
t-66 -11.5z" />
    <glyph glyph-name="numbersign" unicode="#" horiz-adv-x="1206" 
d="M168 0q-59 2 -71.5 15.5t-8.5 72.5q2 36 8 107.5t8 107.5q3 46 -5 57.5t-50 18.5q-27 4 -38 17.5t-11 39.5v51q2 43 10 53.5t49 14.5q25 3 34 5t20 10t14.5 23t5.5 44q13 132 21 250q3 36 -5 46t-47 19q-45 12 -45 54v108q10 4 21.5 9.5t15.5 6.5q57 14 68.5 26t17.5 67
q6 58 25 284q4 51 18.5 63.5t65.5 14.5h28q47 -3 60.5 -19t9.5 -63q-17 -161 -25 -276q-2 -1 -1 -39t1 -39q19 -8 41 -11.5t36 -3t41 2.5t36 2q31 0 35 45q4 52 13.5 156.5t13.5 156.5q1 6 1.5 19t2 20.5t4.5 17t9.5 15.5t16.5 8q49 9 131 -6q7 -1 13 -26.5t4 -45.5
q-4 -54 -13.5 -153.5t-11.5 -122.5q-1 -11 -1 -24t0.5 -27.5t0.5 -20.5q9 -6 21 -12q10 -3 31 -7.5t34 -9.5t17 -12q12 -31 8 -119q-1 -20 -14.5 -27.5t-38.5 -11.5q-59 -6 -71 -18.5t-15 -69.5q-3 -40 -9.5 -120.5t-9.5 -120.5q0 -8 1 -24.5t1 -23.5q13 -10 15 -10
q67 -17 83.5 -44t4.5 -97q-8 -40 -48 -45q-57 -9 -67 -20t-16 -70q-20 -192 -23 -236q-6 -50 -55 -53q-27 -1 -42.5 -1t-31.5 1.5t-23.5 4t-15 9t-9.5 13t-3 20.5t0 27.5t4 36.5q11 91 14 206q1 38 -8.5 48.5t-46.5 13.5q-34 2 -52 2.5t-35.5 -3.5t-24.5 -9.5t-14 -21.5
t-9.5 -34t-5.5 -51q-1 -15 -6.5 -88t-10.5 -113q-3 -37 -13.5 -47.5t-47.5 -13.5h-35zM408 557q67 0 80.5 13t19.5 83q4 72 20 221q5 48 -7.5 62.5t-59.5 15.5h-49q-47 0 -61 -13t-17 -60q-4 -43 -11.5 -128t-11.5 -128q-3 -35 8 -48t46 -16q14 -2 43 -2z" />
    <glyph glyph-name="dollar" unicode="$" horiz-adv-x="1044" 
d="M297 -160q-51 6 -51 56v43q3 57 -51 77q-115 44 -158.5 129.5t-36.5 206.5q3 35 12 45.5t43 14.5h35q58 0 71.5 -13t16.5 -73q3 -83 34.5 -114.5t113.5 -31.5h14q100 0 132.5 33t35.5 137q6 149 -107 262q-24 24 -87 82t-95 92q-89 89 -145 166q-74 106 -74 236
q0 82 2 123q3 179 168 252q41 17 60 39t18 63q-3 34 10 44.5t51 12.5h35q53 0 66 -11t14 -58q2 -30 13 -48t38 -28q113 -42 160 -110t49 -187q0 -21 0.5 -31.5t-1 -24.5t-2 -20t-5 -14.5t-7 -11t-11.5 -6.5t-15.5 -4.5t-21.5 -1.5t-26.5 -0.5t-33.5 1.5q-53 0 -53 54
q0 52 -4 79q-12 100 -111 109q-50 3 -100 0q-104 -9 -113 -109q-23 -193 90 -311q31 -31 89 -86t71 -67q17 -18 52 -51t53 -50q166 -169 149 -379v-37q9 -236 -213 -309q-44 -15 -47 -69q-3 -72 -29.5 -92.5t-97.5 -8.5z" />
    <glyph glyph-name="percent" unicode="%" horiz-adv-x="1112" 
d="M20 16q0 2 7 33t12 47l504 1401q22 60 70 82.5t110 -0.5q7 -3 14.5 -16t5.5 -21q-2 -30 -22 -84q-182 -511 -483 -1345q-32 -91 -73.5 -110t-144.5 13zM545 16q-88 -1 -148.5 59t-60.5 148q-1 87 58.5 148t146.5 63q85 0 148.5 -62t64.5 -147q0 -85 -62 -147t-147 -62z
M543 162q25 0 44 18t19 43t-19 44.5t-44 19.5q-28 0 -45 -17t-17 -45q0 -27 17.5 -45t44.5 -18zM211 1147q-88 0 -151.5 61.5t-59.5 145.5q3 98 62.5 153.5t146.5 55.5q94 1 152 -62.5t55 -144.5q0 -89 -58 -148.5t-147 -60.5zM207 1294q28 -1 45.5 15.5t17.5 44.5
q1 26 -16 44.5t-43 20.5q-25 0 -45.5 -19t-20.5 -42q-2 -25 17 -44.5t45 -19.5z" />
    <glyph glyph-name="ampersand" unicode="&#x26;" horiz-adv-x="1171" 
d="M313 4q-147 -3 -233 117q-128 180 -49 436q35 116 129 213q44 47 46.5 64.5t-26.5 74.5q-117 221 -59 422q25 99 96 164q73 68 166 63.5t160 -79.5q65 -74 78 -181q31 -257 -121 -442q-36 -44 -37.5 -60t26.5 -67q8 -14 31 -58t37 -67q9 -17 47 -69q9 17 23.5 44.5
t21.5 41.5q16 38 64 28q80 -17 95.5 -46.5t-17.5 -104.5q-26 -66 -50 -105q-41 -66 7 -139q34 -58 49 -94q17 -34 13 -48.5t-34 -35.5q-6 -3 -26 -15q-30 -16 -43.5 -22t-28 -1.5t-23.5 16.5t-28 42q-4 7 -15 22t-18 27q-43 -30 -57 -41q-117 -98 -224 -100zM352 199
q13 8 25 16.5t27 21.5t21 18t25 24t21 20q30 30 6 72q-124 226 -141 256q-2 4 -6 8t-9.5 8t-7.5 6l-16 -4l-18 -12q-116 -128 -95 -295q5 -44 39 -107q24 -37 58 -46t71 14zM358 987q3 3 11.5 9t13.5 11t8 9q85 137 41 295q-16 59 -61 59q-15 1 -28 -7t-19 -16.5t-15 -25.5
q-37 -68 -23 -167.5t72 -166.5z" />
    <glyph glyph-name="quotesingle" unicode="'" horiz-adv-x="520" 
d="M80 1133q-51 0 -65 11.5t-15 57.5v158v166q1 42 17 53.5t69 11.5q46 -2 60 -14.5t14 -54.5q3 -159 0 -322q0 -44 -14 -55.5t-66 -11.5z" />
    <glyph glyph-name="parenleft" unicode="(" horiz-adv-x="731" 
d="M299 29q-24 -24 -44 -22.5t-40 28.5q-49 64 -88 137q-89 170 -113 360q-61 478 140 877q27 53 47 80q23 34 38.5 37t47.5 -19q4 -3 11 -9t11 -9q45 -37 49 -55.5t-22 -69.5q-241 -448 -111 -950q34 -126 109 -240q14 -18 39 -61q-68 -78 -74 -84z" />
    <glyph glyph-name="parenright" unicode=")" horiz-adv-x="722" 
d="M39 47q-31 27 -35 43.5t16 52.5q179 313 160 723q-16 285 -153 486q-1 2 -8 12t-9 13.5t-6 12.5t-4 14t1.5 12t6.5 14q21 28 92 86q4 3 21.5 -6.5t25.5 -18.5q31 -41 74 -113q106 -187 131 -420q10 -102 13 -163q-9 -422 -179 -721q-22 -38 -34 -54.5t-29.5 -19.5
t-34.5 8t-49 39z" />
    <glyph glyph-name="asterisk" unicode="*" horiz-adv-x="966" 
d="M446 948q-11 -3 -26 2t-23 13q-8 6 -15 15t-14 20.5t-12 17.5q-28 36 -55 69q-14 -19 -38 -53l-36 -51q-25 -34 -45 -36.5t-61 20.5q-42 23 -48 40.5t17 51.5q11 18 33.5 49.5t30.5 44.5q22 35 16 49t-47 29q-8 3 -36 12t-44 16q-32 12 -39.5 26.5t0.5 43.5q3 7 9.5 21.5
t9.5 21.5q22 42 71 25q36 -12 121 -37q4 62 4 72q1 17 1 49.5t1 48.5q3 30 16 41t46 14q5 0 13.5 -0.5t16 -0.5t13.5 1q28 0 40.5 -11t14.5 -36q1 -17 1 -51.5t1 -50.5q1 -12 5.5 -37t6.5 -39q83 26 117 35q31 9 45 4t29 -31q5 -8 14 -31q12 -35 5 -50t-44 -30
q-15 -6 -46 -17t-46 -17q-6 -2 -19.5 -11t-23.5 -14q11 -17 39 -59t43 -64q31 -47 15 -81t-77 -44z" />
    <glyph glyph-name="plus" unicode="+" horiz-adv-x="1105" 
d="M373 418q-61 -1 -75.5 13t-16.5 75q-1 16 1 57.5t-1 73.5t-13 63h-192q-2 0 -16.5 0.5t-20 1.5t-15.5 4t-14.5 9.5t-5.5 15.5q-8 44 4 131q0 7 17 13t32 6q24 2 150 2q49 0 61.5 12.5t12.5 62.5q1 23 1 71.5t1 72.5q0 40 12.5 52t54.5 15h37q43 -2 58 -15.5t16 -55.5
q1 -20 1 -42.5t-0.5 -50.5t-0.5 -44q2 -54 13 -66t65 -12h141q38 -1 51.5 -14.5t16.5 -51.5v-43q-3 -43 -16.5 -57t-57.5 -15q-33 -2 -205 -2q-4 -39 -8 -104v-123q-3 -53 -53 -53q-12 -2 -35 -2z" />
    <glyph glyph-name="comma" unicode="," horiz-adv-x="624" 
d="M78 -254q-45 -14 -70 23q-6 9 -8 17t2.5 18t6 13t9.5 15q10 16 32 47.5t32 48.5q29 49 -4 92q-54 77 -2 138q20 25 49.5 34.5t58.5 0.5q79 -25 82 -119v-25q-10 -155 -116 -258q-35 -31 -72 -45z" />
    <glyph glyph-name="hyphen" unicode="-" horiz-adv-x="776" 
d="M61 707q-37 1 -47.5 11.5t-13.5 47.5v35q2 56 15 69t69 13q170 3 342 0q56 0 69 -13t15 -69v-41q-3 -53 -55 -53h-199h-195z" />
    <glyph glyph-name="period" unicode="." horiz-adv-x="567" 
d="M104 0q-48 0 -76.5 30t-27.5 79q2 43 32.5 73.5t73.5 30.5q40 -2 71.5 -35t31.5 -74q0 -44 -30.5 -74t-74.5 -30z" />
    <glyph glyph-name="slash" unicode="/" horiz-adv-x="1081" 
d="M82 0q-25 0 -35 2q-35 3 -43 14t2 45q9 29 35 101q79 219 236.5 658.5t236.5 658.5q1 2 2 7t2 7q49 128 178 88q33 -10 27 -43q-3 -23 -16 -53q-106 -299 -502 -1399q-22 -63 -38.5 -74.5t-84.5 -11.5z" />
    <glyph glyph-name="zero" unicode="0" horiz-adv-x="1044" 
d="M254 4q-107 11 -179 88.5t-73 186.5v514h-2q0 329 2 493q0 130 70.5 210.5t197.5 92.5q94 9 193 -10q93 -17 153.5 -88.5t65.5 -167.5q4 -119 4 -358v-586q0 -41 -4 -115q-6 -103 -77 -177t-173 -83q-89 -9 -178 0zM256 188q93 -9 176 5q19 3 38.5 22t23.5 39
q40 118 -19 205q-104 142 -239 329q-4 6 -10.5 12.5t-18.5 17.5t-21 20q-8 -82 -8 -90q-1 -60 -1 -127t0.5 -149t0.5 -126q0 -47 4 -72q14 -78 74 -86zM481 766q3 0 9.5 1t9.5 1q6 75 6 76q2 135 2 407q-1 9 -2 28.5t-2 29.5q-15 94 -111 100q-89 0 -106 -2q-41 -2 -69 -24
t-34 -60q-22 -132 35 -205q34 -44 71 -95t81 -113t69 -97q7 -9 23 -27t18 -20z" />
    <glyph glyph-name="one" unicode="1" horiz-adv-x="776" 
d="M358 2q-89 -5 -107 10.5t-18 100.5q1 160 1 340t-0.5 400.5t-0.5 340.5q0 12 -1 37t-1 37l-18 6q-6 -9 -19.5 -26.5t-19.5 -26.5q-28 -38 -45.5 -42t-60.5 19q-4 2 -12.5 7t-12.5 7q-37 25 -42.5 43.5t17.5 57.5q25 43 74.5 122.5t59.5 96.5q31 54 86 51h122q55 0 58 -59
v-49v-1369v-49q-3 -32 -15.5 -43.5t-44.5 -11.5z" />
    <glyph glyph-name="two" unicode="2" horiz-adv-x="1017" 
d="M631 0h-547q-39 1 -49 12.5t-12 53.5q-9 121 49 221q72 118 199 340.5t178 308.5q76 128 69 317q-3 81 -33 114t-104 36q-28 0 -68 -4q-70 -3 -92 -60q-25 -59 -82 -53h-8q-69 0 -84 25t12 92q72 171 242 180q61 3 123 0q105 -3 180.5 -84t79.5 -196q4 -78 4 -115
q3 -160 -65 -285q-132 -238 -347 -618q-21 -47 -49 -99q19 -1 48 -3.5t42 -2.5h304q45 0 56 -12.5t13 -63.5v-34q-3 -45 -13 -57t-46 -13z" />
    <glyph glyph-name="three" unicode="3" horiz-adv-x="1040" 
d="M420 8q-101 -12 -207 10q-160 34 -207 205q-10 39 2 56t51 22q30 1 55.5 0t48 -16.5t34.5 -46.5q0 -3 4 -7q24 -29 81 -41.5t113.5 -2t79.5 39.5q24 30 27 72q4 191 0 287q-3 108 -119 114q-19 1 -28.5 2t-23 3t-18.5 3t-13 5.5t-10 6.5t-5.5 10.5t-4 13.5t-1.5 18.5
t-0.5 22t0.5 28.5q0 58 14.5 73.5t71.5 14.5q69 -2 104.5 34.5t34.5 111.5q0 1 1 118.5t-1 118.5q-1 67 -33 98.5t-100 34.5q-32 3 -64 0q-84 -3 -119 -65q-22 -34 -76 -47t-89 6q-30 16 -17 69q19 81 87 142.5t151 68.5q96 9 192 0q101 -10 171 -87t75 -179v-164v-129
q6 -113 -51 -190q-30 -40 0 -84q54 -76 51 -183q-1 -39 -1 -83t0.5 -98.5t0.5 -84.5q0 -127 -69 -207.5t-193 -93.5z" />
    <glyph glyph-name="four" unicode="4" 
d="M528 0q-62 0 -75 13.5t-13 76.5v186q-2 51 -13 62.5t-60 11.5h-265q-67 1 -83.5 17.5t-18.5 81.5q0 89 27 174q163 535 262 868q3 8 8 24.5t8 24.5q17 43 60 43q136 0 206 -2q42 0 45 -45q2 -18 2 -57q3 -215 3 -428q0 -48 -0.5 -135.5t-0.5 -159t1 -135.5
q0 -62 10.5 -73.5t70.5 -12.5h10.5h11.5t10.5 -0.5t11 -1.5t9.5 -2t9 -4t7 -6t6 -8t3 -11q9 -47 -6 -125q-1 -3 -4 -6.5t-9 -6t-11 -4.5t-12.5 -4.5l-10.5 -3.5q-6 -2 -37 -2q-51 -1 -60 -11t-9 -63q-1 -34 -1.5 -100.5t-1.5 -99.5q0 -49 -12.5 -61.5t-62.5 -14.5h-15z
M358 535q56 0 69 12.5t13 68.5v572q0 12 -10 74q-2 0 -6 1t-6 1q-17 -34 -23 -50q-12 -40 -36.5 -119.5t-36.5 -119.5q-74 -246 -111 -371q-13 -46 -5 -56.5t58 -12.5h94z" />
    <glyph glyph-name="five" unicode="5" horiz-adv-x="993" 
d="M416 4q-83 -9 -166 0q-84 9 -148.5 69.5t-83.5 145.5q-9 37 2 54t46 18q29 1 54.5 2t48 -14.5t34.5 -49.5q0 -2 4 -6q15 -29 72.5 -41t116 -1t75.5 40q21 49 23 72q3 183 0 366q0 86 -84 107q-34 6 -68 6h-240q-46 2 -60 15.5t-15 60.5q-1 1 -0.5 161.5t0.5 161.5v308
q0 57 15 73.5t69 16.5h481q54 0 67 -14t13 -70v-43q0 -50 -51 -53h-50q-33 0 -94.5 0.5t-112.5 0.5t-96 -1q-40 0 -52.5 -13t-12.5 -55v-307q2 -39 13 -51t50 -13q22 -1 67 -1t68 -1q113 -6 190 -85t81 -195q3 -194 0 -387q-5 -113 -77 -191.5t-179 -85.5z" />
    <glyph glyph-name="six" unicode="6" horiz-adv-x="1048" 
d="M438 4q-107 -15 -213 6q-98 19 -160.5 95t-62.5 176q-3 507 0 1015q1 124 80 204.5t203 86.5q81 3 143 -2q90 -6 159.5 -64.5t92.5 -146.5q11 -42 -1 -58.5t-56 -19.5q-21 -3 -42 -1t-38 7t-32 20.5t-24 39.5q-10 20 -36 31q-97 43 -203 4q-61 -24 -64 -97v-350
q1 -30 12 -37.5t44 -5.5q148 5 178 4q106 -5 182.5 -79t85.5 -181q3 -30 3.5 -61.5t-0.5 -75t-1 -61.5h2q0 -18 0.5 -52t0.5 -62t-1 -52q-6 -118 -71.5 -192t-180.5 -91zM371 180q74 3 107 34.5t34 102.5q2 0 1 111l-1 111q0 63 -4 92q-15 89 -107 98q-52 3 -106 0
q-54 -5 -81 -32t-30 -81v-157v-92q-7 -118 35 -155t152 -32z" />
    <glyph glyph-name="seven" unicode="7" horiz-adv-x="933" 
d="M129 16q-6 0 -13 16.5t-7 28.5q0 3 18 89q155 680 266 1153q1 5 4 18.5t4 21.5q6 35 -4 48t-47 14q-40 1 -85.5 1t-101 -0.5t-85.5 -0.5q-51 0 -63.5 13.5t-14.5 66.5v26q3 40 14.5 51.5t51.5 12.5h249v2h230q62 -2 75 -18t1 -74q-23 -102 -70.5 -303t-71.5 -303
q-95 -420 -180 -781q-1 -5 -3 -19t-4 -21.5t-6 -17.5t-11.5 -16t-18.5 -8q-41 -8 -127 0z" />
    <glyph glyph-name="eight" unicode="8" horiz-adv-x="1044" 
d="M387 0q-100 0 -164 12q-90 17 -150.5 81.5t-66.5 154.5q-9 150 2 393q0 36 43 111q30 50 0 90q-49 67 -49 147q0 28 -1 108t-0.5 135t5.5 107q7 103 81 172.5t179 77.5q76 3 152 0q112 -7 186.5 -84t79.5 -190q2 -27 2 -158v-123q3 -119 -53 -196q-30 -44 2 -84
q54 -77 51 -191q-4 -172 0 -258q2 -54 -15.5 -106t-53 -96t-95.5 -72.5t-135 -30.5zM293 184q46 -3 94 0q113 3 119 115v135l1 76q1 76 -1 76q-3 49 -32 77t-79 33q-53 3 -106 0q-47 -5 -76.5 -32t-30.5 -72q-8 -140 -2 -301q3 -50 32.5 -77t80.5 -30zM389 899
q57 3 85.5 31.5t31.5 85.5v135v143q-6 100 -98 115q-63 9 -127 0q-46 -6 -72 -33t-29 -71q-6 -150 0 -301q3 -47 32 -73.5t77 -29.5q16 -2 100 -2z" />
    <glyph glyph-name="nine" unicode="9" horiz-adv-x="1046" 
d="M422 4q-102 -12 -205 10q-163 37 -205 207q-10 38 3 55.5t53 20.5q49 4 81 -7t50 -52q23 -54 94 -54q54 -3 108 0q85 6 103 92q6 34 6 70v258q0 10 -10 78q-28 0 -75 -0.5t-83 -0.5t-68 1q-117 6 -193.5 87t-78.5 198q-3 168 0 336q2 116 75.5 196t188.5 90q78 6 156 0
q116 -9 190 -86.5t74 -189.5q3 -517 0 -1030q0 -112 -73.5 -189.5t-190.5 -89.5zM274 862q64 -8 144 2q38 4 60 29t24 63q6 178 0 357q-3 79 -86 92q-69 9 -142 0q-84 -9 -90 -102v-164v-172q6 -93 90 -105z" />
    <glyph glyph-name="colon" unicode=":" horiz-adv-x="575" 
d="M104 805q-42 2 -73 34t-31 74t31 73.5t73 31.5q43 1 75 -29.5t34 -73.5q0 -43 -33 -76.5t-76 -33.5zM113 0q-47 0 -76.5 30t-28.5 79q1 42 33 73t74 31q41 -1 71.5 -34t30.5 -75q0 -44 -30 -74t-74 -30z" />
    <glyph glyph-name="semicolon" unicode=";" horiz-adv-x="624" 
d="M78 -256q-43 -17 -70 20q-5 8 -7 15t0.5 15t3.5 11t7.5 13.5t7.5 11.5q10 18 32 50.5t30 45.5q28 48 -2 90q-55 78 -4 138q20 24 50 34t58 2q79 -25 82 -120v-23q-7 -154 -116 -258q-29 -29 -72 -45zM154 788q-42 -2 -76 32.5t-33 78.5q0 43 31.5 72.5t75.5 29.5
q43 0 73.5 -30.5t30.5 -73.5q1 -41 -30 -74t-72 -35z" />
    <glyph glyph-name="less" unicode="&#x3c;" horiz-adv-x="919" 
d="M465 334q-13 -10 -51 4q-5 2 -10.5 6.5t-11.5 12t-9 10.5q-229 245 -350 376q-33 37 -33.5 53t31.5 50q60 66 362 393q8 7 26.5 21t26.5 20q22 -21 60 -55.5t55 -50.5q-18 -34 -42.5 -64t-60.5 -67t-48 -50q-41 -47 -127 -137q-37 -41 -37 -59.5t37 -59.5
q35 -38 104.5 -112.5t104.5 -112.5q29 -32 63 -74q-2 -11 -6 -20.5t-11 -19t-11.5 -15t-15 -14t-14 -11.5t-17 -12.5t-15.5 -11.5z" />
    <glyph glyph-name="equal" unicode="=" horiz-adv-x="958" 
d="M88 481q-57 2 -72.5 16.5t-15.5 71.5v35q3 33 16 47t47 15h130h315q61 0 76.5 -16t15.5 -81v-14q-2 -43 -16.5 -57.5t-57.5 -14.5q-78 -2 -229 -2h-209zM82 893q-52 1 -66 15.5t-16 64.5v35q1 40 15.5 53.5t54.5 15.5q1 1 54 0.5t54 -0.5h336h5q16 0 24.5 -0.5t21 -3.5
t19 -10t8.5 -19q11 -56 -6 -126q-1 -8 -22 -15.5t-38 -7.5q-78 -2 -229 -2h-215z" />
    <glyph glyph-name="greater" unicode="&#x3e;" horiz-adv-x="907" 
d="M45 381l-10 10q-33 33 -33.5 50t29.5 51q41 44 121.5 132t121.5 132q21 28 41 53q-21 31 -41 53q-117 129 -237 258q-37 41 -36 58t42 57l20 20q32 28 50 27.5t47 -31.5q26 -27 55.5 -58.5t65 -70t55.5 -59.5q29 -32 87.5 -95t86.5 -94q39 -43 38.5 -66.5t-40.5 -66.5
q-217 -233 -330 -356q-43 -47 -64.5 -47.5t-68.5 43.5z" />
    <glyph glyph-name="question" unicode="?" horiz-adv-x="1040" 
d="M291 473q-75 -1 -92 19t-2 94q23 114 96 211q39 53 121 151q52 67 68.5 113t21.5 133q-2 10 -6.5 36.5t-9 45t-11.5 35.5q-42 96 -147 90q-100 -3 -140 -103q-23 -57 -55.5 -74t-91.5 -3q-46 12 -43 57q11 107 81.5 192.5t178.5 104.5q107 20 201 -16.5t153 -119
t66 -192.5q16 -250 -127 -411q-21 -23 -56.5 -69.5t-41.5 -53.5q-62 -81 -86 -178q-9 -41 -21.5 -50.5t-56.5 -11.5zM283 0q-44 0 -75 29t-32 73q0 45 32.5 78.5t74.5 32.5t72 -33.5t30 -75.5q0 -44 -29 -74t-73 -30z" />
    <glyph glyph-name="at" unicode="@" horiz-adv-x="1290" 
d="M584 0q-251 0 -322 4q-103 7 -174 78.5t-82 175.5q-6 52 -6 100v875q0 14 1 40t1 38q0 68 32 129.5t101 104.5t162 46q172 6 344 0q130 -4 209.5 -86t79.5 -213q3 -406 0 -815q0 -60 -12 -100q-30 -118 -138 -139q-135 -28 -198 65q-29 41 -65.5 56.5t-86.5 13.5
q-98 0 -150.5 53.5t-54.5 151.5v452q1 92 54 146t145 59q26 2 88.5 9.5t95.5 8.5q64 3 77 -9.5t13 -76.5v-645v-13.5v-15.5t1 -13.5t4 -16t7.5 -14t11.5 -16t17 -15.5q2 11 8.5 41.5t6.5 44.5q3 385 0 766q0 74 -33 106.5t-107 32.5h-301q-68 0 -100.5 -32t-32.5 -99v-961
q0 -72 34.5 -104.5t109.5 -32.5q41 -1 124 -1t125 -1h9.5h10t9 -0.5t10 -1t8.5 -2t8 -4t7 -5.5t7 -7.5t5 -10.5q9 -23 6 -71t-16 -58q-25 -18 -53 -18zM457 551q36 0 49.5 15t13.5 57q0 94 -4 278q0 72 -2 107q0 46 -43 43q-15 0 -51 -4q-2 -5 -4 -9.5t-3 -7t-1 -4.5
q-4 -286 -4 -428q0 -44 49 -47z" />
    <glyph glyph-name="A" unicode="A" 
d="M608 0q-53 -1 -75 18t-25 64q-2 28 -13 80.5t-12 60.5q-6 45 -53 45h-164q-50 0 -59 -51q-4 -24 -12.5 -73t-12.5 -74q-4 -18 -7.5 -29t-14 -21.5t-25.5 -13.5q-29 -9 -65 -8.5t-60 20.5q-8 7 -10 29.5t2 36.5q8 55 68 424q26 153 82.5 483.5t85.5 503.5q10 69 24 80.5
t84 11.5h29q41 -2 55 -13t21 -50q7 -36 18 -107t12 -78q35 -208 103.5 -623.5t103.5 -623.5q9 -59 -5 -75.5t-75 -16.5zM377 446q41 1 53 16t6 56q-9 56 -30.5 179t-32.5 188q-2 15 -9.5 43t-9.5 39h-14q-1 -3 -7 -20t-7 -25q-5 -31 -17.5 -110t-22.5 -135t-22 -108
q-11 -51 -10.5 -75.5t13 -36.5t40 -11.5t70.5 0.5z" />
    <glyph glyph-name="B" unicode="B" horiz-adv-x="1042" 
d="M80 0q-52 0 -66 14t-14 66v717v673v58q3 36 14 47t47 12h193h143q115 -3 197 -80t86 -190q7 -140 0 -350q-2 -47 -43 -127q-14 -28 -15 -46t15 -46q48 -69 45 -179q-3 -135 0 -272q3 -118 -80.5 -204.5t-185.5 -86.5q-57 0 -169 -3t-167 -3zM244 182q70 -3 141 0
q53 3 83.5 32t33.5 81q6 148 0 293q-6 106 -115 112q-71 3 -143 0q-42 -2 -54 -14.5t-12 -54.5q-2 -61 -2 -187q0 -132 2 -200q1 -38 13.5 -49t52.5 -13zM238 885q76 -3 149 0q50 2 80 26.5t33 69.5q7 132 0 330q-3 41 -30 65t-71 27q-89 7 -157 4q-40 -1 -52 -13.5
t-12 -50.5q-2 -68 -2 -200q0 -133 2 -201q0 -36 11.5 -46.5t48.5 -10.5z" />
    <glyph glyph-name="C" unicode="C" horiz-adv-x="1032" 
d="M586 78q-61 -53 -158 -71t-193 5t-153 80q-82 82 -82 184q0 699 2 1047q0 93 58 165t149 95q131 35 262 0q93 -23 150.5 -95t60.5 -169q1 -21 1 -45t-0.5 -57.5t-0.5 -55.5q-19 0 -46.5 -0.5t-48 -0.5t-38.5 1q-41 3 -41 47q-1 10 -1.5 43.5t-2.5 51.5q-4 54 -32.5 80.5
t-82.5 29.5q-59 3 -106 -2q-88 -6 -103 -92q-4 -23 -4 -72v-895q0 -43 4 -63q12 -90 96 -99q65 -6 130 0q84 9 96 99q4 31 4 92q3 53 55 53q30 -1 51 1t34.5 -3t21 -9.5t11 -18t4.5 -29t1 -43.5v-10q0 -157 -98 -244z" />
    <glyph glyph-name="D" unicode="D" horiz-adv-x="1044" 
d="M78 0q-49 0 -63.5 15.5t-14.5 68.5v715v682q0 37 2 57q0 49 49 49q22 0 193.5 1t191.5 -5q102 -9 171 -85t75 -181q4 -84 4 -252v-680q0 -65 -6 -129q-9 -98 -79 -169.5t-167 -78.5q-119 -8 -356 -8zM240 182q75 -3 151 0q49 3 78 31t35 78q2 18 2 57v895q0 39 -2 57
q-15 97 -109 103q-45 4 -135 4q-57 0 -68.5 -12.5t-11.5 -71.5v-530v-316q0 -26 -0.5 -74t-0.5 -87t1 -74q1 -36 12.5 -47t47.5 -13z" />
    <glyph glyph-name="E" unicode="E" horiz-adv-x="917" 
d="M78 2q-49 0 -63.5 15.5t-14.5 66.5v715v702q0 60 12.5 73t71.5 15q287 0 430 -2q4 0 17 0.5t19 0t15.5 -2.5t15 -8t7.5 -16q8 -53 -6 -125q-1 -7 -21.5 -13t-36.5 -6q-78 -2 -235 -2h-58q-53 0 -53 -53q1 -72 1 -215t1 -215q0 -32 11.5 -42.5t44.5 -12.5q22 -1 65 0t64 0
q38 -3 51 -16t16 -50v-37q-1 -47 -15.5 -61.5t-60.5 -16.5h-108q-45 -2 -56.5 -14t-11.5 -57q-3 -191 0 -379q0 -43 12.5 -57t53.5 -15q28 -1 60 -1t71.5 0.5t60.5 0.5q54 0 66 -12.5t14 -65.5q0 -56 -14.5 -75t-61.5 -19q-182 -3 -364 0z" />
    <glyph glyph-name="F" unicode="F" horiz-adv-x="927" 
d="M92 0q-58 0 -75 17t-17 75v1409q0 60 13.5 73t72.5 13h438q4 0 16.5 0.5t19 0t15.5 -2.5t14 -8t7 -16q8 -42 -4 -125q-3 -14 -57 -19h-259q-45 0 -57 -4q-11 -5 -22 -16.5t-11 -20.5q-2 -162 -2 -495q51 -2 52 -2q92 5 136.5 -7t55 -38.5t4.5 -81.5q-5 -31 -16 -42
t-43 -14h-115q-53 -2 -63.5 -12t-10.5 -61v-480v-51q-2 -57 -19 -74.5t-73 -17.5z" />
    <glyph glyph-name="G" unicode="G" horiz-adv-x="1048" 
d="M279 2q-103 3 -180.5 72t-90.5 170q-8 47 -8 106v445v436q0 66 8 115q27 176 199 229q126 39 270 2q90 -22 147.5 -93t63.5 -165v-109q3 -54 -55 -57q-8 -2 -23 -2q-65 -3 -82.5 13.5t-17.5 82.5q0 29 -2 43q-3 57 -30.5 85.5t-84.5 31.5q-67 0 -100 -2q-97 -6 -109 -100
q-2 -10 -2 -58v-903q0 -57 4 -72q17 -82 90 -88q70 -6 136 0q43 5 68 30.5t28 68.5q2 36 2 77t-1 90t-1 76q0 24 -11.5 35t-37.5 14q-79 6 -95.5 26.5t-7.5 98.5q3 31 15.5 44t42.5 14q108 3 215 0q35 -1 47 -14.5t12 -49.5q0 -38 1 -133t0.5 -164t-3.5 -133
q-4 -108 -84 -183.5t-188 -78.5q-68 -3 -135 0z" />
    <glyph glyph-name="H" unicode="H" horiz-adv-x="1007" 
d="M590 4q-71 -9 -94 11.5t-23 93.5v423q-2 56 -15 68.5t-69 11.5q-11 0 -60 2t-80 -0.5t-63 -11.5q-4 -62 -4 -88v-414q0 -3 0.5 -20t0 -23.5t-3.5 -18t-10 -17.5t-19 -9q-32 -7 -125 2q-6 1 -13 14.5t-10 26.5q-2 7 -2 49v1383q0 29 2 43q0 25 2 29q11 22 28 28t44.5 3.5
t36.5 -1.5q57 7 65 -41q4 -46 4 -71v-580v-90q9 -2 23.5 -6t24 -6t18.5 -2q76 -3 151 0q46 0 59.5 13t14.5 62v516v144q1 37 12.5 48t46.5 13q83 6 100 -9.5t17 -100.5v-1362q0 -25 -4 -99q-52 -14 -55 -14z" />
    <glyph glyph-name="I" unicode="I" horiz-adv-x="538" 
d="M57 4q-57 10 -57 59v66v674v665v52q3 46 15.5 57.5t56.5 13.5h51q32 -3 43 -14t12 -43q2 -14 2 -43v-1385q0 -69 -26 -91t-97 -11z" />
    <glyph glyph-name="J" unicode="J" horiz-adv-x="837" 
d="M37 8q-9 0 -21 11t-12 20q-7 62 0 104q1 10 16 21.5t29 13.5q15 3 31 3.5t38 -0.5t32 -1q81 1 113 33.5t32 112.5v1130q0 39 2 57q2 44 16 58t58 14q16 3 35 0q47 0 60 -13.5t13 -62.5v-608v-594q0 -170 -131 -256q-28 -19 -61 -30.5t-57.5 -16.5t-67 -4t-60 2t-65.5 6z
" />
    <glyph glyph-name="K" unicode="K" horiz-adv-x="1017" 
d="M586 0q-50 2 -68 16t-31 66l-147 522q-4 14 -9 29.5t-13 36t-13 35.5q-9 -11 -20.5 -24t-14.5 -17q-2 -4 -6 -13.5t-6 -13.5q-91 -154 -76 -328q5 -59 0 -235q0 -40 -13.5 -54.5t-51.5 -19.5q-40 0 -58 2q-54 6 -57 61q-2 18 -2 56v1354v43q3 42 18 55.5t58 15.5h28
q51 0 64.5 -13.5t15.5 -64.5v-458v-76q21 -7 23 -8q3 7 17 30t20 37q194 414 225 477q28 64 53 70q38 11 135 2q6 0 12.5 -14.5t6.5 -24.5q-1 -9 -4.5 -18.5t-10.5 -23.5t-8 -17q-165 -358 -200 -428q-33 -71 -13 -144q35 -119 73 -253t84 -298t71 -253q20 -70 4.5 -90.5
t-86.5 -18.5z" />
    <glyph glyph-name="L" unicode="L" horiz-adv-x="901" 
d="M453 0h-367q-57 2 -71.5 16.5t-14.5 71.5v709v688q0 39 2 57q1 15 6 25t16 14t19.5 5.5t24.5 2.5q64 2 83 -5t23 -36q4 -27 4 -80v-1173v-51.5t5.5 -33t9.5 -22t22 -9.5t32 -5h50q20 0 58 0.5t69.5 0.5t58.5 -1q37 -1 47.5 -12.5t12.5 -48.5v-21q0 -60 -15 -75t-75 -17z
" />
    <glyph glyph-name="M" unicode="M" horiz-adv-x="1169" 
d="M717 6q-54 0 -69 14.5t-15 69.5v815q0 30 -3.5 85t-4.5 73q-11 0 -15 2q-22 -90 -28 -121q-8 -43 -23.5 -130t-23.5 -130q-7 -51 -21.5 -63.5t-64.5 -14.5h-95q-42 2 -55 12.5t-20 51.5q-10 51 -29 154.5t-29 154.5q-2 12 -5 25.5t-7 29.5t-6 25q-6 -2 -19 -2
q-1 -12 -2.5 -32.5t-2.5 -37.5t-1 -33v-788v-57q0 -71 -38.5 -96.5t-104.5 1.5q-10 3 -19 15t-12 24q-4 13 -4 66v1368v45t5 29t9 19t20.5 8.5t29.5 4.5h45h92q53 0 68 -12t22 -61q8 -47 29 -164t32 -182q2 -11 41 -218h23q3 14 10 45.5t10 49.5q15 82 42.5 239.5
t41.5 231.5q9 49 21.5 59t62.5 12q16 0 45 0.5t53 0.5t46 -1q36 -1 47 -12t14 -47q2 -18 2 -57v-1354v-29q-2 -57 -19 -73t-75 -15z" />
    <glyph glyph-name="N" unicode="N" horiz-adv-x="1036" 
d="M121 4q-72 -10 -96.5 10.5t-24.5 91.5v1385v35q3 40 14.5 50.5t51.5 12.5q27 2 38.5 2.5t30.5 0t25 -0.5t18.5 -5t15.5 -7t11.5 -12.5t10.5 -16.5t8.5 -23.5t9.5 -29t10 -37.5q55 -196 200 -723q4 -15 9.5 -30.5t13 -36t12.5 -35.5q10 14 15.5 31t6 24.5t0 29t-0.5 23.5
q2 1 1 322l-1 321v95q1 82 17.5 97.5t94.5 10.5q40 -2 51.5 -12.5t14.5 -50.5v-49v-1362v-58q0 -48 -47 -51q-86 -4 -127 0q-28 3 -41.5 21t-20.5 49q-92 332 -112 399q-76 277 -101 365q-9 31 -28 78h-17q-1 -13 -4.5 -54t-3.5 -63v-697q0 -26 -4 -84q-6 -2 -24.5 -8.5
t-26.5 -7.5z" />
    <glyph glyph-name="O" unicode="O" horiz-adv-x="1036" 
d="M383 0q-17 1 -50 1t-50 1q-113 2 -192.5 77t-86.5 187q-4 78 -4 236v702q0 41 4 123q9 102 79.5 176t172.5 84q108 10 207 -8q102 -20 161.5 -95.5t61.5 -180.5v-502q0 -49 -1.5 -155t-1 -186.5t4.5 -154.5q4 -132 -89 -222.5t-216 -82.5zM387 182q61 4 88.5 32.5
t32.5 88.5v43l1 447q1 447 -1 448q0 74 -14 105q-10 23 -24.5 37t-35 18.5t-35.5 6t-42 0.5t-38 -1q-101 4 -126 -70q-13 -35 -13 -84v-456v-445q0 -46 2 -71q15 -85 99 -97q63 -7 106 -2z" />
    <glyph glyph-name="P" unicode="P" horiz-adv-x="1013" 
d="M74 0q-50 2 -62 14.5t-12 61.5v717v680v51q0 51 53 51q37 0 118.5 1.5t143.5 1t119 -4.5q96 -6 166.5 -85t75.5 -183q1 -28 1 -60.5t-0.5 -72t-0.5 -60.5v-238q-3 -124 -81.5 -203.5t-201.5 -84.5q-21 -1 -64 -1t-65 -1q-59 0 -71.5 -11.5t-12.5 -68.5v-344
q0 -83 -2 -101q-3 -35 -14 -45.5t-47 -13.5h-43zM410 770q39 6 62.5 36t23.5 73q3 204 0 407q0 41 -20.5 69.5t-59.5 37.5q-104 23 -223 0q-13 -56 -12.5 -313t14.5 -310q116 -17 215 0z" />
    <glyph glyph-name="Q" unicode="Q" horiz-adv-x="1056" 
d="M549 -8q-25 25 -72 22q-139 -12 -207 -8q-112 4 -185.5 85t-82.5 206q-2 23 -2 65v873v43q4 149 89 232t233 83q94 0 120 -4q109 -17 176 -93.5t72 -186.5v-52v-458l1 -240q1 -240 -1 -240q0 -56 -16 -118q-8 -24 -7 -50t19 -45q29 -37 -8 -69q-8 -7 -24.5 -21.5
t-24.5 -21.5q-46 -39 -80 -2zM348 205q-3 8 -14.5 28t-15 31t1.5 29t24 35q52 42 70.5 44t89.5 -30q0 5 3 25.5t3 29.5q3 442 0 881q0 45 -16 76q-9 19 -23 31.5t-29 17.5t-33 7t-35.5 1t-35.5 0q-34 1 -55.5 -1t-46 -16.5t-37.5 -43.5q-15 -34 -15 -90v-924q0 -44 4 -64
q12 -57 58.5 -76t101.5 9z" />
    <glyph glyph-name="R" unicode="R" horiz-adv-x="1036" 
d="M555 4q-33 5 -47 25.5t-19 54.5q-13 69 -37 205t-36 205q-6 32 -8 45t-9.5 29t-11.5 19.5t-21 8t-30.5 4.5h-46.5h-44.5t-28.5 -4.5t-19.5 -8t-8 -18.5t-4.5 -27.5v-43.5v-387q0 -67 -15.5 -82t-84.5 -15q-4 0 -14 1t-15 1q-50 0 -53 54q-2 18 -2 57v680v674q0 39 2 57
q7 53 55 53q33 0 116.5 1t144.5 0.5t118 -3.5q89 -6 161 -75.5t75 -157.5q10 -172 2 -516q0 -73 -64 -140q-42 -45 -30 -110q4 -19 88 -471q15 -76 -10 -101.5t-103 -13.5zM379 780q118 3 121 119q6 197 0 393q-3 117 -121 123q-43 4 -129 0q-42 0 -54 -12.5t-12 -54.5
q-2 0 -1 -125l1 -125l-1 -129q-1 -129 1 -129q0 -37 11.5 -48.5t46.5 -11.5q67 -3 137 0z" />
    <glyph glyph-name="S" unicode="S" horiz-adv-x="993" 
d="M317 2q-149 -14 -243 94q-81 95 -70 275q0 6 4 14q9 16 22.5 23t24.5 7.5t30 -0.5t28 -1q51 7 57 -45q3 -11 4 -24t1 -29t1 -25q6 -96 90 -105q50 -7 129 0q32 3 53 24.5t27 57.5q36 188 -53 297q-43 51 -189 197q-13 13 -38 39.5t-37 40.5q-183 189 -154 491
q12 110 89 183t183 73q128 0 175 -12q87 -22 141 -95t57 -169q4 -35 2 -51q0 -6 1.5 -30t-2.5 -36t-19 -16q-12 -3 -24 -5t-27.5 -1.5t-24 1t-27.5 3t-24 2.5q-9 0 -19 41q-2 13 -3.5 46.5t-4.5 51.5q-18 82 -94 88q-63 3 -115 -2q-79 -6 -92 -102q-24 -218 125 -361
q18 -17 59 -55.5t72 -68.5t57 -60q63 -72 109 -154q92 -160 37 -401q-20 -89 -90.5 -144t-159.5 -57h-68z" />
    <glyph glyph-name="T" unicode="T" horiz-adv-x="976" 
d="M309 0q-35 5 -48.5 19t-14.5 51v241v398v610q0 51 -12 63t-66 13q-76 0 -115 2q-51 3 -51 55v12q-3 75 12.5 91t89.5 16h486h11h11.5t11 -0.5t11 -1t9.5 -2t9 -4t6.5 -5.5t5.5 -7.5t3 -10.5q6 -42 -11 -125q-1 -7 -17.5 -12.5t-31.5 -5.5q-25 -2 -70 -2.5t-59 -1.5
q-55 0 -49 -52v-67v-1165q0 -73 -25 -95t-96 -14z" />
    <glyph glyph-name="U" unicode="U" horiz-adv-x="1048" 
d="M236 8q-102 19 -167 96.5t-67 182.5v608h-2q0 397 2 596q0 5 -1 17t-0.5 19.5t2 16.5t7.5 15t15 8q15 3 33.5 3.5t31 0t35.5 -2t33 -1.5q4 -1 10 -13.5t8 -23.5q2 -20 2 -64v-1087q0 -60 8 -107q17 -79 101 -88q59 -6 121 0q40 4 65.5 32t30.5 69q2 31 2 92v1053v36
q0 78 33.5 103.5t109.5 3.5q19 -5 37 -37q3 -5 3.5 -12t-0.5 -17t-1 -14v-1190q0 -111 -64 -192.5t-169 -100.5q-115 -19 -219 -2z" />
    <glyph glyph-name="V" unicode="V" horiz-adv-x="1058" 
d="M416 10q-95 -23 -146 10q-17 10 -26 64q-22 132 -66 397.5t-67 397.5q-17 105 -52 314t-53 314q-9 55 2.5 68.5t67.5 15.5h37q38 -2 51 -12.5t20 -48.5q7 -42 21.5 -127t21.5 -127q69 -416 101 -598q1 -10 7 -29.5t7 -25.5q3 0 8.5 -1t7.5 -1q2 7 11.5 44t13.5 56
q80 485 131 782q3 25 14 49.5t23 28.5q49 15 125 4q32 -6 22 -61q-7 -54 -28 -176q-35 -210 -105.5 -631t-105.5 -631q-1 -4 -3 -18t-3.5 -20t-6 -15.5t-12 -14.5t-18.5 -8z" />
    <glyph glyph-name="W" unicode="W" horiz-adv-x="1280" 
d="M246 0q-82 0 -121 2q-46 2 -62.5 17t-17.5 59q-12 472 -20 723q-3 109 -23 657v15q-3 83 15 101t100 15q40 -3 53 -16t14 -53q12 -378 21 -746q2 -69 7 -207.5t7 -208.5q0 -8 3.5 -24.5t4.5 -22.5q13 0 19 -2q49 221 53 244q16 69 42 196.5t32 153.5q11 51 56.5 72.5
t88.5 -6.5q22 -14 31 -60q14 -58 36.5 -165t30.5 -142q13 -67 46 -217q3 -12 10 -36.5t10 -37.5q3 0 9 1t9 1q1 11 6.5 68.5t6.5 87.5q8 267 20 831q4 148 10 222q1 41 14 53t56 14h21q61 0 74.5 -12.5t13.5 -71.5q-1 -50 -3.5 -150.5t-3.5 -150.5q-8 -324 -28 -930
q-4 -136 -8 -208q-3 -35 -16 -49t-46 -15q-92 -3 -184 0q-35 3 -49 18t-23 58q-13 57 -37 171t-37 171q-1 10 -7.5 30t-8.5 27q-13 -6 -21 -17t-10 -17t-4 -23.5t-2 -18.5q-14 -56 -63 -301q-15 -69 -34 -83.5t-91 -16.5z" />
    <glyph glyph-name="X" unicode="X" horiz-adv-x="1032" 
d="M563 6q-53 3 -71 68q-18 53 -53.5 159.5t-53.5 159.5q-4 10 -14.5 33.5t-14.5 36.5h-16q-3 -7 -13.5 -29t-13.5 -33q-19 -55 -55.5 -162.5t-54.5 -162.5q-17 -50 -75 -69.5t-101 9.5q-17 10 -17 35q0 10 15 55q159 480 200 596q30 87 0 175q-42 118 -116 338.5t-91 271.5
q-25 75 -14 90.5t88 15.5q59 -2 73.5 -12t33.5 -65q26 -74 112 -332q11 -33 27 -64q3 0 9 -1t9 -1q1 3 12.5 30t16.5 42q18 55 55 163t56 163q18 56 32 65.5t74 11.5h35q43 -3 52.5 -15.5t-3.5 -55.5q-32 -97 -96.5 -289.5t-95.5 -288.5q-9 -27 -19.5 -59t-15 -41t-8 -29
t-3.5 -23.5t3.5 -23.5t8 -29.5t15 -42t19.5 -59.5q29 -86 86 -258t86 -258q11 -28 18 -62q12 -44 -35 -51q-29 -2 -86 -2z" />
    <glyph glyph-name="Y" unicode="Y" horiz-adv-x="1060" 
d="M424 12q-78 -29 -131 8q-12 8 -17 64q0 364 -2 436q0 94 -24 176q-44 156 -131 445t-105 350q-21 69 -10 84.5t82 15.5q63 0 77.5 -11t33.5 -71q22 -71 65 -214.5t64 -215.5q4 -12 28 -78q11 0 17 -2q4 14 13.5 37.5t12.5 32.5q22 72 64.5 216t64.5 216q3 17 7 30
t10 22.5t10.5 16t14.5 10.5t16.5 6t22.5 3t25 1t31.5 -0.5t36.5 -0.5q9 -3 16 -19.5t7 -29.5q-1 -15 -9 -42.5t-9 -33.5q-166 -548 -230 -774q-20 -64 -20 -139q-1 -77 -1 -229.5t-1 -229.5q0 -4 1 -17.5t0 -20t-3 -16t-9 -16t-18 -10.5z" />
    <glyph glyph-name="Z" unicode="Z" horiz-adv-x="917" 
d="M471 0h-385q-55 0 -69 13.5t-17 68.5q-3 85 27 182q63 192 176 544t149 464q4 13 8.5 28t10.5 36t10 36q-14 1 -34 4t-34 4.5t-26 1.5q-179 0 -215 2q-46 0 -57 12t-13 60q-3 22 0 43q2 37 13 48.5t46 11.5q154 2 459 2q35 -1 45.5 -13t12.5 -49q6 -99 -23 -190
q-66 -200 -185 -570.5t-147 -455.5q-15 -51 -24 -90q61 -9 67 -9q35 -1 74.5 -1t87.5 0.5t74 0.5q49 -1 62.5 -14.5t15.5 -60.5q2 -78 -14 -93.5t-95 -15.5z" />
    <glyph glyph-name="bracketleft" unicode="[" horiz-adv-x="704" 
d="M51 0q-46 0 -49 47q-2 23 -2 66v680v665v51q3 46 15.5 59t56.5 13q95 3 215 -4q33 -1 45 -14.5t14 -49.5v-14q1 -71 -13 -86t-85 -18q-43 -2 -55 -13t-13 -53v-86v-975q0 -64 12 -77.5t74 -16.5q56 -2 68 -14t12 -68v-43q-3 -49 -51 -49h-244z" />
    <glyph glyph-name="backslash" unicode="\" horiz-adv-x="1062" 
d="M612 -4q-59 0 -73 10.5t-33 67.5q-164 469 -492 1411q-1 3 -4 11.5t-4 14.5q-10 40 -1.5 52.5t48.5 15.5h29q65 2 82 -10t37 -72q225 -643 489 -1411q2 -4 5 -13.5t5 -13.5q9 -35 0.5 -47.5t-45.5 -15.5h-43z" />
    <glyph glyph-name="bracketright" unicode="]" horiz-adv-x="704" 
d="M45 2q-4 0 -12 4q-18 8 -25.5 22t-7.5 26t1.5 30.5t0.5 28.5q-7 58 41 63q4 1 14 1t15 1q69 3 80.5 14.5t11.5 77.5v1039v34q0 57 -51 54h-15q-72 3 -86.5 19t-11.5 91q1 46 14.5 59t57.5 15q29 1 86.5 2t85.5 2q72 0 87 -14.5t15 -85.5v-694v-682v-56q-7 -51 -49 -51
h-252z" />
    <glyph glyph-name="asciicircum" unicode="^" horiz-adv-x="927" 
d="M109 1202q-18 4 -25 8q-44 34 -63 54.5t-19.5 44t16.5 44.5t58 58q26 23 77 69.5t76 69.5q31 28 48.5 28.5t50.5 -26.5q182 -167 215 -198q26 -26 27 -41.5t-21 -44.5q-5 -3 -14 -17q-43 -50 -65.5 -51t-72.5 43q-12 12 -36 34.5t-37 33.5q-28 23 -43 23.5t-43 -21.5
q-13 -10 -35.5 -32t-34.5 -32q-10 -9 -59 -47z" />
    <glyph glyph-name="underscore" unicode="_" horiz-adv-x="1261" 
d="M451 0h-359q-63 0 -78.5 16.5t-13.5 79.5q0 19 2 29q3 48 49 51q8 0 24.5 1t24.5 1h703q73 0 88 -17t12 -91q-2 -45 -14.5 -57.5t-59.5 -12.5h-378z" />
    <glyph glyph-name="a" unicode="a" 
d="M608 0q-53 -1 -75 18t-25 64q-2 28 -13 80.5t-12 60.5q-6 45 -53 45h-164q-50 0 -59 -51q-4 -24 -12.5 -73t-12.5 -74q-4 -18 -7.5 -29t-14 -21.5t-25.5 -13.5q-29 -9 -65 -8.5t-60 20.5q-8 7 -10 29.5t2 36.5q8 55 68 424q26 153 82.5 483.5t85.5 503.5q10 69 24 80.5
t84 11.5h29q41 -2 55 -13t21 -50q7 -36 18 -107t12 -78q35 -208 103.5 -623.5t103.5 -623.5q9 -59 -5 -75.5t-75 -16.5zM377 446q41 1 53 16t6 56q-9 56 -30.5 179t-32.5 188q-2 15 -9.5 43t-9.5 39h-14q-1 -3 -7 -20t-7 -25q-5 -31 -17.5 -110t-22.5 -135t-22 -108
q-11 -51 -10.5 -75.5t13 -36.5t40 -11.5t70.5 0.5z" />
    <glyph glyph-name="b" unicode="b" horiz-adv-x="1042" 
d="M80 0q-52 0 -66 14t-14 66v717v673v58q3 36 14 47t47 12h193h143q115 -3 197 -80t86 -190q7 -140 0 -350q-2 -47 -43 -127q-14 -28 -15 -46t15 -46q48 -69 45 -179q-3 -135 0 -272q3 -118 -80.5 -204.5t-185.5 -86.5q-57 0 -169 -3t-167 -3zM244 182q70 -3 141 0
q53 3 83.5 32t33.5 81q6 148 0 293q-6 106 -115 112q-71 3 -143 0q-42 -2 -54 -14.5t-12 -54.5q-2 -61 -2 -187q0 -132 2 -200q1 -38 13.5 -49t52.5 -13zM238 885q76 -3 149 0q50 2 80 26.5t33 69.5q7 132 0 330q-3 41 -30 65t-71 27q-89 7 -157 4q-40 -1 -52 -13.5
t-12 -50.5q-2 -68 -2 -200q0 -133 2 -201q0 -36 11.5 -46.5t48.5 -10.5z" />
    <glyph glyph-name="c" unicode="c" horiz-adv-x="1032" 
d="M586 78q-61 -53 -158 -71t-193 5t-153 80q-82 82 -82 184q0 699 2 1047q0 93 58 165t149 95q131 35 262 0q93 -23 150.5 -95t60.5 -169q1 -21 1 -45t-0.5 -57.5t-0.5 -55.5q-19 0 -46.5 -0.5t-48 -0.5t-38.5 1q-41 3 -41 47q-1 10 -1.5 43.5t-2.5 51.5q-4 54 -32.5 80.5
t-82.5 29.5q-59 3 -106 -2q-88 -6 -103 -92q-4 -23 -4 -72v-895q0 -43 4 -63q12 -90 96 -99q65 -6 130 0q84 9 96 99q4 31 4 92q3 53 55 53q30 -1 51 1t34.5 -3t21 -9.5t11 -18t4.5 -29t1 -43.5v-10q0 -157 -98 -244z" />
    <glyph glyph-name="d" unicode="d" horiz-adv-x="1044" 
d="M78 0q-49 0 -63.5 15.5t-14.5 68.5v715v682q0 37 2 57q0 49 49 49q22 0 193.5 1t191.5 -5q102 -9 171 -85t75 -181q4 -84 4 -252v-680q0 -65 -6 -129q-9 -98 -79 -169.5t-167 -78.5q-119 -8 -356 -8zM240 182q75 -3 151 0q49 3 78 31t35 78q2 18 2 57v895q0 39 -2 57
q-15 97 -109 103q-45 4 -135 4q-57 0 -68.5 -12.5t-11.5 -71.5v-530v-316q0 -26 -0.5 -74t-0.5 -87t1 -74q1 -36 12.5 -47t47.5 -13z" />
    <glyph glyph-name="e" unicode="e" horiz-adv-x="917" 
d="M78 2q-49 0 -63.5 15.5t-14.5 66.5v715v702q0 60 12.5 73t71.5 15q287 0 430 -2q4 0 17 0.5t19 0t15.5 -2.5t15 -8t7.5 -16q8 -53 -6 -125q-1 -7 -21.5 -13t-36.5 -6q-78 -2 -235 -2h-58q-53 0 -53 -53q1 -72 1 -215t1 -215q0 -32 11.5 -42.5t44.5 -12.5q22 -1 65 0t64 0
q38 -3 51 -16t16 -50v-37q-1 -47 -15.5 -61.5t-60.5 -16.5h-108q-45 -2 -56.5 -14t-11.5 -57q-3 -191 0 -379q0 -43 12.5 -57t53.5 -15q28 -1 60 -1t71.5 0.5t60.5 0.5q54 0 66 -12.5t14 -65.5q0 -56 -14.5 -75t-61.5 -19q-182 -3 -364 0z" />
    <glyph glyph-name="f" unicode="f" horiz-adv-x="927" 
d="M92 0q-58 0 -75 17t-17 75v1409q0 60 13.5 73t72.5 13h438q4 0 16.5 0.5t19 0t15.5 -2.5t14 -8t7 -16q8 -42 -4 -125q-3 -14 -57 -19h-259q-45 0 -57 -4q-11 -5 -22 -16.5t-11 -20.5q-2 -162 -2 -495q51 -2 52 -2q92 5 136.5 -7t55 -38.5t4.5 -81.5q-5 -31 -16 -42
t-43 -14h-115q-53 -2 -63.5 -12t-10.5 -61v-480v-51q-2 -57 -19 -74.5t-73 -17.5z" />
    <glyph glyph-name="g" unicode="g" horiz-adv-x="1048" 
d="M279 2q-103 3 -180.5 72t-90.5 170q-8 47 -8 106v445v436q0 66 8 115q27 176 199 229q126 39 270 2q90 -22 147.5 -93t63.5 -165v-109q3 -54 -55 -57q-8 -2 -23 -2q-65 -3 -82.5 13.5t-17.5 82.5q0 29 -2 43q-3 57 -30.5 85.5t-84.5 31.5q-67 0 -100 -2q-97 -6 -109 -100
q-2 -10 -2 -58v-903q0 -57 4 -72q17 -82 90 -88q70 -6 136 0q43 5 68 30.5t28 68.5q2 36 2 77t-1 90t-1 76q0 24 -11.5 35t-37.5 14q-79 6 -95.5 26.5t-7.5 98.5q3 31 15.5 44t42.5 14q108 3 215 0q35 -1 47 -14.5t12 -49.5q0 -38 1 -133t0.5 -164t-3.5 -133
q-4 -108 -84 -183.5t-188 -78.5q-68 -3 -135 0z" />
    <glyph glyph-name="h" unicode="h" horiz-adv-x="1007" 
d="M590 4q-71 -9 -94 11.5t-23 93.5v423q-2 56 -15 68.5t-69 11.5q-11 0 -60 2t-80 -0.5t-63 -11.5q-4 -62 -4 -88v-414q0 -3 0.5 -20t0 -23.5t-3.5 -18t-10 -17.5t-19 -9q-32 -7 -125 2q-6 1 -13 14.5t-10 26.5q-2 7 -2 49v1383q0 29 2 43q0 25 2 29q11 22 28 28t44.5 3.5
t36.5 -1.5q57 7 65 -41q4 -46 4 -71v-580v-90q9 -2 23.5 -6t24 -6t18.5 -2q76 -3 151 0q46 0 59.5 13t14.5 62v516v144q1 37 12.5 48t46.5 13q83 6 100 -9.5t17 -100.5v-1362q0 -25 -4 -99q-52 -14 -55 -14z" />
    <glyph glyph-name="i" unicode="i" horiz-adv-x="538" 
d="M57 4q-57 10 -57 59v66v674v665v52q3 46 15.5 57.5t56.5 13.5h51q32 -3 43 -14t12 -43q2 -14 2 -43v-1385q0 -69 -26 -91t-97 -11z" />
    <glyph glyph-name="j" unicode="j" horiz-adv-x="837" 
d="M37 8q-9 0 -21 11t-12 20q-7 62 0 104q1 10 16 21.5t29 13.5q15 3 31 3.5t38 -0.5t32 -1q81 1 113 33.5t32 112.5v1130q0 39 2 57q2 44 16 58t58 14q16 3 35 0q47 0 60 -13.5t13 -62.5v-608v-594q0 -170 -131 -256q-28 -19 -61 -30.5t-57.5 -16.5t-67 -4t-60 2t-65.5 6z
" />
    <glyph glyph-name="k" unicode="k" horiz-adv-x="1017" 
d="M586 0q-50 2 -68 16t-31 66l-147 522q-4 14 -9 29.5t-13 36t-13 35.5q-9 -11 -20.5 -24t-14.5 -17q-2 -4 -6 -13.5t-6 -13.5q-91 -154 -76 -328q5 -59 0 -235q0 -40 -13.5 -54.5t-51.5 -19.5q-40 0 -58 2q-54 6 -57 61q-2 18 -2 56v1354v43q3 42 18 55.5t58 15.5h28
q51 0 64.5 -13.5t15.5 -64.5v-458v-76q21 -7 23 -8q3 7 17 30t20 37q194 414 225 477q28 64 53 70q38 11 135 2q6 0 12.5 -14.5t6.5 -24.5q-1 -9 -4.5 -18.5t-10.5 -23.5t-8 -17q-165 -358 -200 -428q-33 -71 -13 -144q35 -119 73 -253t84 -298t71 -253q20 -70 4.5 -90.5
t-86.5 -18.5z" />
    <glyph glyph-name="l" unicode="l" horiz-adv-x="901" 
d="M453 0h-367q-57 2 -71.5 16.5t-14.5 71.5v709v688q0 39 2 57q1 15 6 25t16 14t19.5 5.5t24.5 2.5q64 2 83 -5t23 -36q4 -27 4 -80v-1173v-51.5t5.5 -33t9.5 -22t22 -9.5t32 -5h50q20 0 58 0.5t69.5 0.5t58.5 -1q37 -1 47.5 -12.5t12.5 -48.5v-21q0 -60 -15 -75t-75 -17z
" />
    <glyph glyph-name="m" unicode="m" horiz-adv-x="1169" 
d="M717 6q-54 0 -69 14.5t-15 69.5v815q0 30 -3.5 85t-4.5 73q-11 0 -15 2q-22 -90 -28 -121q-8 -43 -23.5 -130t-23.5 -130q-7 -51 -21.5 -63.5t-64.5 -14.5h-95q-42 2 -55 12.5t-20 51.5q-10 51 -29 154.5t-29 154.5q-2 12 -5 25.5t-7 29.5t-6 25q-6 -2 -19 -2
q-1 -12 -2.5 -32.5t-2.5 -37.5t-1 -33v-788v-57q0 -71 -38.5 -96.5t-104.5 1.5q-10 3 -19 15t-12 24q-4 13 -4 66v1368v45t5 29t9 19t20.5 8.5t29.5 4.5h45h92q53 0 68 -12t22 -61q8 -47 29 -164t32 -182q2 -11 41 -218h23q3 14 10 45.5t10 49.5q15 82 42.5 239.5
t41.5 231.5q9 49 21.5 59t62.5 12q16 0 45 0.5t53 0.5t46 -1q36 -1 47 -12t14 -47q2 -18 2 -57v-1354v-29q-2 -57 -19 -73t-75 -15z" />
    <glyph glyph-name="n" unicode="n" horiz-adv-x="1036" 
d="M121 4q-72 -10 -96.5 10.5t-24.5 91.5v1385v35q3 40 14.5 50.5t51.5 12.5q27 2 38.5 2.5t30.5 0t25 -0.5t18.5 -5t15.5 -7t11.5 -12.5t10.5 -16.5t8.5 -23.5t9.5 -29t10 -37.5q55 -196 200 -723q4 -15 9.5 -30.5t13 -36t12.5 -35.5q10 14 15.5 31t6 24.5t0 29t-0.5 23.5
q2 1 1 322l-1 321v95q1 82 17.5 97.5t94.5 10.5q40 -2 51.5 -12.5t14.5 -50.5v-49v-1362v-58q0 -48 -47 -51q-86 -4 -127 0q-28 3 -41.5 21t-20.5 49q-92 332 -112 399q-76 277 -101 365q-9 31 -28 78h-17q-1 -13 -4.5 -54t-3.5 -63v-697q0 -26 -4 -84q-6 -2 -24.5 -8.5
t-26.5 -7.5z" />
    <glyph glyph-name="o" unicode="o" horiz-adv-x="1036" 
d="M383 0q-17 1 -50 1t-50 1q-113 2 -192.5 77t-86.5 187q-4 78 -4 236v702q0 41 4 123q9 102 79.5 176t172.5 84q108 10 207 -8q102 -20 161.5 -95.5t61.5 -180.5v-502q0 -49 -1.5 -155t-1 -186.5t4.5 -154.5q4 -132 -89 -222.5t-216 -82.5zM387 182q61 4 88.5 32.5
t32.5 88.5v43l1 447q1 447 -1 448q0 74 -14 105q-10 23 -24.5 37t-35 18.5t-35.5 6t-42 0.5t-38 -1q-101 4 -126 -70q-13 -35 -13 -84v-456v-445q0 -46 2 -71q15 -85 99 -97q63 -7 106 -2z" />
    <glyph glyph-name="p" unicode="p" horiz-adv-x="1013" 
d="M74 0q-50 2 -62 14.5t-12 61.5v717v680v51q0 51 53 51q37 0 118.5 1.5t143.5 1t119 -4.5q96 -6 166.5 -85t75.5 -183q1 -28 1 -60.5t-0.5 -72t-0.5 -60.5v-238q-3 -124 -81.5 -203.5t-201.5 -84.5q-21 -1 -64 -1t-65 -1q-59 0 -71.5 -11.5t-12.5 -68.5v-344
q0 -83 -2 -101q-3 -35 -14 -45.5t-47 -13.5h-43zM410 770q39 6 62.5 36t23.5 73q3 204 0 407q0 41 -20.5 69.5t-59.5 37.5q-104 23 -223 0q-13 -56 -12.5 -313t14.5 -310q116 -17 215 0z" />
    <glyph glyph-name="q" unicode="q" horiz-adv-x="1056" 
d="M549 -8q-25 25 -72 22q-139 -12 -207 -8q-112 4 -185.5 85t-82.5 206q-2 23 -2 65v873v43q4 149 89 232t233 83q94 0 120 -4q109 -17 176 -93.5t72 -186.5v-52v-458l1 -240q1 -240 -1 -240q0 -56 -16 -118q-8 -24 -7 -50t19 -45q29 -37 -8 -69q-8 -7 -24.5 -21.5
t-24.5 -21.5q-46 -39 -80 -2zM348 205q-3 8 -14.5 28t-15 31t1.5 29t24 35q52 42 70.5 44t89.5 -30q0 5 3 25.5t3 29.5q3 442 0 881q0 45 -16 76q-9 19 -23 31.5t-29 17.5t-33 7t-35.5 1t-35.5 0q-34 1 -55.5 -1t-46 -16.5t-37.5 -43.5q-15 -34 -15 -90v-924q0 -44 4 -64
q12 -57 58.5 -76t101.5 9z" />
    <glyph glyph-name="r" unicode="r" horiz-adv-x="1036" 
d="M555 4q-33 5 -47 25.5t-19 54.5q-13 69 -37 205t-36 205q-6 32 -8 45t-9.5 29t-11.5 19.5t-21 8t-30.5 4.5h-46.5h-44.5t-28.5 -4.5t-19.5 -8t-8 -18.5t-4.5 -27.5v-43.5v-387q0 -67 -15.5 -82t-84.5 -15q-4 0 -14 1t-15 1q-50 0 -53 54q-2 18 -2 57v680v674q0 39 2 57
q7 53 55 53q33 0 116.5 1t144.5 0.5t118 -3.5q89 -6 161 -75.5t75 -157.5q10 -172 2 -516q0 -73 -64 -140q-42 -45 -30 -110q4 -19 88 -471q15 -76 -10 -101.5t-103 -13.5zM379 780q118 3 121 119q6 197 0 393q-3 117 -121 123q-43 4 -129 0q-42 0 -54 -12.5t-12 -54.5
q-2 0 -1 -125l1 -125l-1 -129q-1 -129 1 -129q0 -37 11.5 -48.5t46.5 -11.5q67 -3 137 0z" />
    <glyph glyph-name="s" unicode="s" horiz-adv-x="993" 
d="M317 2q-149 -14 -243 94q-81 95 -70 275q0 6 4 14q9 16 22.5 23t24.5 7.5t30 -0.5t28 -1q51 7 57 -45q3 -11 4 -24t1 -29t1 -25q6 -96 90 -105q50 -7 129 0q32 3 53 24.5t27 57.5q36 188 -53 297q-43 51 -189 197q-13 13 -38 39.5t-37 40.5q-183 189 -154 491
q12 110 89 183t183 73q128 0 175 -12q87 -22 141 -95t57 -169q4 -35 2 -51q0 -6 1.5 -30t-2.5 -36t-19 -16q-12 -3 -24 -5t-27.5 -1.5t-24 1t-27.5 3t-24 2.5q-9 0 -19 41q-2 13 -3.5 46.5t-4.5 51.5q-18 82 -94 88q-63 3 -115 -2q-79 -6 -92 -102q-24 -218 125 -361
q18 -17 59 -55.5t72 -68.5t57 -60q63 -72 109 -154q92 -160 37 -401q-20 -89 -90.5 -144t-159.5 -57h-68z" />
    <glyph glyph-name="t" unicode="t" horiz-adv-x="976" 
d="M309 0q-35 5 -48.5 19t-14.5 51v241v398v610q0 51 -12 63t-66 13q-76 0 -115 2q-51 3 -51 55v12q-3 75 12.5 91t89.5 16h486h11h11.5t11 -0.5t11 -1t9.5 -2t9 -4t6.5 -5.5t5.5 -7.5t3 -10.5q6 -42 -11 -125q-1 -7 -17.5 -12.5t-31.5 -5.5q-25 -2 -70 -2.5t-59 -1.5
q-55 0 -49 -52v-67v-1165q0 -73 -25 -95t-96 -14z" />
    <glyph glyph-name="u" unicode="u" horiz-adv-x="1048" 
d="M236 8q-102 19 -167 96.5t-67 182.5v608h-2q0 397 2 596q0 5 -1 17t-0.5 19.5t2 16.5t7.5 15t15 8q15 3 33.5 3.5t31 0t35.5 -2t33 -1.5q4 -1 10 -13.5t8 -23.5q2 -20 2 -64v-1087q0 -60 8 -107q17 -79 101 -88q59 -6 121 0q40 4 65.5 32t30.5 69q2 31 2 92v1053v36
q0 78 33.5 103.5t109.5 3.5q19 -5 37 -37q3 -5 3.5 -12t-0.5 -17t-1 -14v-1190q0 -111 -64 -192.5t-169 -100.5q-115 -19 -219 -2z" />
    <glyph glyph-name="v" unicode="v" horiz-adv-x="1058" 
d="M416 10q-95 -23 -146 10q-17 10 -26 64q-22 132 -66 397.5t-67 397.5q-17 105 -52 314t-53 314q-9 55 2.5 68.5t67.5 15.5h37q38 -2 51 -12.5t20 -48.5q7 -42 21.5 -127t21.5 -127q69 -416 101 -598q1 -10 7 -29.5t7 -25.5q3 0 8.5 -1t7.5 -1q2 7 11.5 44t13.5 56
q80 485 131 782q3 25 14 49.5t23 28.5q49 15 125 4q32 -6 22 -61q-7 -54 -28 -176q-35 -210 -105.5 -631t-105.5 -631q-1 -4 -3 -18t-3.5 -20t-6 -15.5t-12 -14.5t-18.5 -8z" />
    <glyph glyph-name="w" unicode="w" horiz-adv-x="1280" 
d="M246 0q-82 0 -121 2q-46 2 -62.5 17t-17.5 59q-12 472 -20 723q-3 109 -23 657v15q-3 83 15 101t100 15q40 -3 53 -16t14 -53q12 -378 21 -746q2 -69 7 -207.5t7 -208.5q0 -8 3.5 -24.5t4.5 -22.5q13 0 19 -2q49 221 53 244q16 69 42 196.5t32 153.5q11 51 56.5 72.5
t88.5 -6.5q22 -14 31 -60q14 -58 36.5 -165t30.5 -142q13 -67 46 -217q3 -12 10 -36.5t10 -37.5q3 0 9 1t9 1q1 11 6.5 68.5t6.5 87.5q8 267 20 831q4 148 10 222q1 41 14 53t56 14h21q61 0 74.5 -12.5t13.5 -71.5q-1 -50 -3.5 -150.5t-3.5 -150.5q-8 -324 -28 -930
q-4 -136 -8 -208q-3 -35 -16 -49t-46 -15q-92 -3 -184 0q-35 3 -49 18t-23 58q-13 57 -37 171t-37 171q-1 10 -7.5 30t-8.5 27q-13 -6 -21 -17t-10 -17t-4 -23.5t-2 -18.5q-14 -56 -63 -301q-15 -69 -34 -83.5t-91 -16.5z" />
    <glyph glyph-name="x" unicode="x" horiz-adv-x="1032" 
d="M563 6q-53 3 -71 68q-18 53 -53.5 159.5t-53.5 159.5q-4 10 -14.5 33.5t-14.5 36.5h-16q-3 -7 -13.5 -29t-13.5 -33q-19 -55 -55.5 -162.5t-54.5 -162.5q-17 -50 -75 -69.5t-101 9.5q-17 10 -17 35q0 10 15 55q159 480 200 596q30 87 0 175q-42 118 -116 338.5t-91 271.5
q-25 75 -14 90.5t88 15.5q59 -2 73.5 -12t33.5 -65q26 -74 112 -332q11 -33 27 -64q3 0 9 -1t9 -1q1 3 12.5 30t16.5 42q18 55 55 163t56 163q18 56 32 65.5t74 11.5h35q43 -3 52.5 -15.5t-3.5 -55.5q-32 -97 -96.5 -289.5t-95.5 -288.5q-9 -27 -19.5 -59t-15 -41t-8 -29
t-3.5 -23.5t3.5 -23.5t8 -29.5t15 -42t19.5 -59.5q29 -86 86 -258t86 -258q11 -28 18 -62q12 -44 -35 -51q-29 -2 -86 -2z" />
    <glyph glyph-name="y" unicode="y" horiz-adv-x="1060" 
d="M424 12q-78 -29 -131 8q-12 8 -17 64q0 364 -2 436q0 94 -24 176q-44 156 -131 445t-105 350q-21 69 -10 84.5t82 15.5q63 0 77.5 -11t33.5 -71q22 -71 65 -214.5t64 -215.5q4 -12 28 -78q11 0 17 -2q4 14 13.5 37.5t12.5 32.5q22 72 64.5 216t64.5 216q3 17 7 30
t10 22.5t10.5 16t14.5 10.5t16.5 6t22.5 3t25 1t31.5 -0.5t36.5 -0.5q9 -3 16 -19.5t7 -29.5q-1 -15 -9 -42.5t-9 -33.5q-166 -548 -230 -774q-20 -64 -20 -139q-1 -77 -1 -229.5t-1 -229.5q0 -4 1 -17.5t0 -20t-3 -16t-9 -16t-18 -10.5z" />
    <glyph glyph-name="z" unicode="z" horiz-adv-x="917" 
d="M471 0h-385q-55 0 -69 13.5t-17 68.5q-3 85 27 182q63 192 176 544t149 464q4 13 8.5 28t10.5 36t10 36q-14 1 -34 4t-34 4.5t-26 1.5q-179 0 -215 2q-46 0 -57 12t-13 60q-3 22 0 43q2 37 13 48.5t46 11.5q154 2 459 2q35 -1 45.5 -13t12.5 -49q6 -99 -23 -190
q-66 -200 -185 -570.5t-147 -455.5q-15 -51 -24 -90q61 -9 67 -9q35 -1 74.5 -1t87.5 0.5t74 0.5q49 -1 62.5 -14.5t15.5 -60.5q2 -78 -14 -93.5t-95 -15.5z" />
    <glyph glyph-name="braceleft" unicode="{" horiz-adv-x="835" 
d="M360 2q-117 -7 -176 57.5t-65 186.5q-2 34 -0.5 118.5t0.5 118.5q0 44 -10 99q-6 52 -58 84q-33 20 -45.5 58t-0.5 75.5t44 56.5q63 37 70 119q1 26 4 107.5t6 127.5q4 112 14 162q23 102 101 151t180 27q6 0 14 -4q13 -6 21 -14.5t11 -18t4 -21t0.5 -22.5t0.5 -22
q0 -62 -41 -76q-7 -2 -20 -2.5t-17 -1.5q-54 -3 -66 -13.5t-18 -62.5q-3 -29 -3.5 -81.5t-2.5 -75.5q-8 -159 -20 -236q-3 -20 -24 -66.5t-21 -72.5q-1 -24 19.5 -69t23.5 -66q10 -81 14 -248q1 -15 1.5 -63t2.5 -74q3 -33 15.5 -45t48.5 -15h43q35 -3 47.5 -15t17.5 -46
q8 -74 -14 -96t-101 -21z" />
    <glyph glyph-name="bar" unicode="|" horiz-adv-x="536" 
d="M68 -160q-42 1 -53 13t-13 55q-2 14 -2 43v1698q0 83 24 102.5t109 7.5q40 -6 43 -45q2 -25 2 -72v-845v-852q0 -25 -1 -39t-2.5 -28t-7 -20t-12 -11.5t-20.5 -6.5t-28 -1t-39 1z" />
    <glyph glyph-name="braceright" unicode="}" horiz-adv-x="821" 
d="M104 0q-78 0 -92.5 15.5t-11.5 93.5q2 43 13.5 55.5t52.5 15.5q30 2 44 3t28.5 6.5t19 9.5t9 20.5t4.5 29t1 44.5q5 235 10 301q5 52 37 121q20 48 0 88q-49 90 -53 250q-4 162 -8 241q-3 45 -17 57.5t-59 14.5q-57 5 -69.5 18.5t-12.5 73.5q0 62 13.5 76t74.5 16
q125 4 184.5 -63t67.5 -197q3 -37 4 -79t1 -93t1 -78q3 -50 12 -100q16 -64 56 -78q49 -19 49 -86q0 -26 -1 -38t-6 -31t-18 -31.5t-35 -22.5q-47 -20 -47 -112q-1 -38 -1 -112.5t-1 -111.5q0 -38 -8 -112q-13 -113 -77 -163t-165 -42z" />
    <glyph glyph-name="asciitilde" unicode="~" horiz-adv-x="1054" 
d="M602 1360q-7 5 -21.5 11.5t-19.5 10.5q-8 6 -25.5 19t-25.5 18q-37 23 -60.5 20.5t-54.5 -32.5l-14 -14q-110 -130 -260 -31q-49 30 -103 78q-35 30 -4 69l45 45q30 27 66 2q11 -5 25 -16q38 -32 56.5 -41t42.5 0t58 47q42 49 99.5 60.5t117.5 -15.5q71 -32 144 -92
q30 -25 29 -44.5t-31 -47.5q-12 -11 -64 -47z" />
    <glyph glyph-name="exclamdown" unicode="&#xa1;" horiz-adv-x="571" 
d="M168 741q11 -4 18 -10t9 -16t3 -16.5t0 -19.5t-1 -17q2 -156 2 -467q0 -324 -2 -488q0 -44 -13.5 -57.5t-56.5 -16.5h-43q-40 3 -53.5 17t-16.5 55v35v903q0 42 2 49q4 35 21 43q56 34 131 6zM111 1235q43 -2 72.5 -32.5t29.5 -74.5q-1 -43 -32.5 -73.5t-74.5 -32.5
q-41 0 -74 35t-32 78q2 41 35 71t76 29z" />
    <glyph glyph-name="cent" unicode="&#xa2;" horiz-adv-x="1013" 
d="M342 305q-21 12 -29 39q-7 15 -2 43q6 55 -53 70q-113 33 -186 130t-72 228q16 253 264 338q50 17 47 61q-3 34 0 68q4 26 19.5 35.5t52.5 9.5q39 0 53 -8.5t17 -34.5q2 -12 2 -76q0 -40 47 -61q68 -33 106 -62q30 -21 31.5 -36t-21.5 -41q-17 -21 -32 -33
q-31 -30 -46 -31t-48 25q-52 41 -109 44t-100 -23t-70 -70q-80 -138 20 -258q49 -61 126.5 -66.5t138.5 47.5q1 1 7.5 9t10.5 10q25 22 40 22t38 -20q64 -53 61 -86.5t-75 -79.5q-39 -24 -74 -35q-54 -20 -51 -68v-30q-3 -43 -36.5 -61t-76.5 1z" />
    <glyph glyph-name="sterling" unicode="&#xa3;" horiz-adv-x="1046" 
d="M473 0h-385q-57 0 -71.5 15.5t-16.5 72.5q-3 56 39 113q38 53 51 123q9 44 23 204q7 60 -50 66q-49 8 -49 65v21v22t1.5 19t4.5 19.5t8.5 15t13.5 14t20 9t28 5.5q-17 136 -27 226q-37 286 146 458q103 95 216.5 89.5t209.5 -101.5q29 -28 28 -47t-32 -47
q-20 -17 -45 -35q-39 -25 -74 0q-28 22 -35 27q-38 25 -70 22.5t-67 -33.5q-90 -83 -98 -192q0 -50 -1.5 -67.5t4 -67t7.5 -66.5t10 -66.5t10 -66.5q5 -42 56 -45h114q40 -2 54.5 -15t15.5 -52q1 -19 -3 -55.5t-5 -49.5q-62 -2 -150 -6q-38 -3 -50.5 -14t-12.5 -45
q3 -157 -35 -312q0 -1 4 -35q40 -4 62 -4h286q51 -2 65 -16t15 -66v-34q-3 -40 -17 -53.5t-55 -14.5h-143z" />
    <glyph glyph-name="currency" unicode="&#xa4;" horiz-adv-x="1079" 
d="M131 416q-52 25 -53 26q-9 7 -29 21t-25.5 18.5t-15.5 15.5t-8.5 18.5t5 20t16 27t32.5 33.5q50 50 27 106q-42 96 0 191q24 58 -27 106q-1 1 -4 4.5t-4 4.5q-5 6 -14 14.5t-14.5 14.5t-11.5 15t-4.5 15.5t5.5 17.5q24 37 92 76q6 4 24.5 -1t24.5 -13q61 -90 183 -51
q34 10 112 -11q64 -18 99 29q9 12 18 21q31 31 48.5 31.5t54.5 -25.5q5 -4 15 -12.5t15 -12.5q28 -25 29.5 -40.5t-23.5 -43.5q-16 -20 -26 -28q-54 -46 -29 -117q31 -90 0 -180q-22 -63 25 -113q40 -39 48.5 -60.5t-6 -40.5t-63.5 -49q-28 -17 -41.5 -15.5t-38.5 24.5
l-18 18q-26 29 -49 38t-66 -3q-74 -24 -155 2q-61 22 -99 -29q-40 -50 -49 -63zM354 662q37 -3 69.5 22t45.5 68q2 7 5.5 24.5t6.5 28.5q-3 7 -9 24t-12 31.5t-14 26.5q-33 47 -84 47t-88 -45q-37 -49 -26 -125q6 -39 37.5 -69t68.5 -33z" />
    <glyph glyph-name="yen" unicode="&#xa5;" horiz-adv-x="1132" 
d="M410 2q-77 -5 -93 10.5t-16 93.5q-1 38 -1 53.5t-6 34t-10 22.5t-22.5 9.5t-34 5.5h-53.5q-90 0 -108 2q-32 1 -42 14t-10 52q-2 42 6.5 55.5t40.5 16.5q22 2 138 2q77 2 93.5 26.5t-7.5 106.5q-69 6 -74 6q-21 1 -61 1t-60 1q-52 1 -71.5 30t-2.5 79q4 13 12.5 20t17 9
t22.5 3h114q27 0 41 0.5t26.5 4.5t16 9t4 17.5t-3.5 26t-12 39.5q-38 117 -114.5 350.5t-114.5 349.5q-21 65 -23 74q-6 30 2.5 42t38.5 15q20 2 57 2q48 -2 63 -12.5t30 -56.5q9 -25 153 -467q19 -52 45 -82q3 8 14.5 31t16.5 36q108 326 151 463q1 4 5.5 18.5t7 21t8 17
t13 16t18.5 7.5q40 10 127 2q6 -1 13 -16.5t9 -28.5q0 -7 -16 -55q-39 -119 -117 -356.5t-117 -356.5q-7 -18 -14 -47q-10 -37 -1 -49.5t46 -14.5h143q40 -1 52 -14t12 -51q2 -43 -9.5 -58t-50.5 -18q-24 -1 -74.5 -1t-74.5 -1q-51 -1 -64 -16t-10 -66q0 -8 13 -51
q18 -1 48.5 -3t37.5 -3q1 0 57 0.5t57 -0.5q48 -3 68 -38.5t-4 -76.5q-12 -20 -54 -25q-25 -2 -143 -2q-54 0 -67 -12.5t-13 -64.5q-2 -33 -2 -99q0 -53 -53 -53h-14z" />
    <glyph glyph-name="copyright" unicode="&#xa9;" horiz-adv-x="1175" 
d="M410 383q-172 0 -290 117.5t-120 287.5q0 172 119 291t289 119t289.5 -118t119.5 -287q0 -172 -118 -291t-289 -119zM430 559q-91 -8 -163 43.5t-89 136.5q-19 86 25.5 165.5t126.5 107.5q86 29 161.5 -2t116.5 -113q-16 -25 -41.5 -29.5t-50.5 4.5q-10 3 -31 13t-32 14
q-89 28 -140 -41q-22 -32 -19.5 -74t28.5 -71q58 -64 143 -27q46 20 113 37h9t10 -5t9 -5q-4 -66 -52.5 -107.5t-123.5 -46.5zM410 508q121 0 204.5 84t81.5 203q-3 116 -87 197.5t-201 80.5q-116 0 -200 -81.5t-85 -196.5q-1 -120 82 -203.5t205 -83.5z" />
    <glyph glyph-name="guillemotleft" unicode="&#xab;" horiz-adv-x="1370" 
d="M967 381q-47 -44 -68.5 -43.5t-64.5 47.5q-113 123 -330 356q-40 43 -40.5 66.5t38.5 66.5q28 31 87 94t87 95q20 21 55.5 59.5t65 70t55.5 58.5q29 31 46.5 31.5t49.5 -27.5q3 -3 10 -9.5t11 -10.5q41 -40 42 -57t-36 -58q-160 -172 -238 -258q-19 -22 -41 -53
q20 -25 41 -53q41 -44 122 -132t122 -132q30 -34 29.5 -51t-33.5 -50zM504 381q-47 -44 -68.5 -43.5t-64.5 47.5q-113 123 -330 356q-40 43 -40.5 66.5t38.5 66.5q29 31 87 94t87 95q20 21 55.5 59.5t65 70t55.5 58.5q29 31 46.5 31.5t49.5 -27.5q3 -3 10 -9.5t11 -10.5
q41 -40 42 -57t-36 -58q-160 -172 -238 -258q-19 -22 -41 -53q20 -25 41 -53q41 -44 122 -132t122 -132q30 -34 29.5 -51t-33.5 -50z" />
    <glyph glyph-name="registered" unicode="&#xae;" horiz-adv-x="1032" 
d="M340 930q-60 -2 -118 19.5t-107 61.5t-80.5 105.5t-34.5 145.5q-4 138 95.5 236.5t240.5 98.5q142 1 239 -93.5t99 -235.5q0 -142 -95.5 -238.5t-238.5 -99.5zM180 1106q15 64 13 173t-19 140q-74 -61 -73 -158t79 -155zM242 1057q90 -56 196 8q-23 3 -40.5 20t-26.5 36
t-24.5 37t-35.5 22q-61 -111 -69 -123zM334 1288q19 0 33.5 7.5t11.5 25.5q-1 6 -7.5 12.5t-20 16t-21.5 16.5q-5 -7 -13.5 -17t-13.5 -17t-6 -13q-3 -17 8.5 -24t28.5 -7zM489 1106q51 28 71.5 81t8.5 122q-29 140 -172 182q-106 28 -153 -41q12 0 32 -0.5t35 -0.5t29 1
q86 7 129 -63.5t-4 -139.5q-30 -43 -2 -92q7 -12 26 -49z" />
    <glyph glyph-name="guillemotright" unicode="&#xbb;" horiz-adv-x="1370" 
d="M45 381l-10 10q-33 33 -33.5 50t29.5 51q41 44 121.5 132t121.5 132q21 28 41 53q-21 31 -41 53q-117 129 -237 258q-37 41 -36 58t42 57l20 20q32 28 50 27.5t47 -31.5q26 -27 55.5 -58.5t65 -70t55.5 -59.5q29 -32 87.5 -95t86.5 -94q39 -43 38.5 -66.5t-40.5 -66.5
q-217 -233 -330 -356q-43 -47 -64.5 -47.5t-68.5 43.5zM508 381l-10 10q-33 33 -33.5 50t29.5 51q41 44 121.5 132t121.5 132q21 28 41 53q-21 31 -41 53q-117 129 -237 258q-37 41 -36 58t42 57l20 20q32 28 50 27.5t47 -31.5q26 -27 55.5 -58.5t65 -70t55.5 -59.5
q29 -32 87 -95t87 -94q39 -43 38.5 -66.5t-40.5 -66.5q-217 -233 -330 -356q-43 -47 -64.5 -47.5t-68.5 43.5z" />
    <glyph glyph-name="questiondown" unicode="&#xbf;" horiz-adv-x="1040" 
d="M391 770q75 1 92 -19t2 -94q-23 -114 -96 -211q-39 -53 -121 -151q-52 -67 -68.5 -113t-21.5 -133q2 -10 6.5 -36.5t9 -45t11.5 -35.5q42 -96 147 -90q100 3 140 103q23 57 55.5 74.5t91.5 3.5q46 -12 43 -58q-11 -107 -81.5 -192.5t-178.5 -104.5q-107 -20 -201 16.5
t-153 119t-66 192.5q-17 251 127 412q16 17 32 37.5t35.5 45.5t30.5 39q62 80 86 179q9 41 21 50t57 11zM399 1243q44 0 75 -29t32 -73q0 -45 -32.5 -78.5t-74.5 -32.5t-72 33.5t-30 75.5q0 44 29 74t73 30z" />
    <glyph glyph-name="Agrave" unicode="&#xc0;" 
d="M608 0q-53 -1 -75 18t-25 64q-2 28 -13 80.5t-12 60.5q-6 45 -53 45h-164q-50 0 -59 -51q-4 -24 -12.5 -73t-12.5 -74q-4 -18 -7.5 -29t-14 -21.5t-25.5 -13.5q-29 -9 -65 -8.5t-60 20.5q-8 7 -10 29.5t2 36.5q8 55 68 424q26 153 82.5 483.5t85.5 503.5q10 69 24 80.5
t84 11.5h29q41 -2 55 -13t21 -50q7 -36 18 -107t12 -78q35 -208 103.5 -623.5t103.5 -623.5q9 -59 -5 -75.5t-75 -16.5zM377 446q41 1 53 16t6 56q-9 56 -30.5 179t-32.5 188q-2 15 -9.5 43t-9.5 39h-14q-1 -3 -7 -20t-7 -25q-5 -31 -17.5 -110t-22.5 -135t-22 -108
q-11 -51 -10.5 -75.5t13 -36.5t40 -11.5t70.5 0.5zM524 1618q-57 23 -191 75t-206 81q-29 12 -36 28t3 45q1 5 17 47q19 41 35.5 48.5t56.5 -7.5q52 -19 372 -145q17 -6 26.5 -11.5t17.5 -18.5t6 -31q-29 -75 -39 -93q-17 -33 -62 -18z" />
    <glyph glyph-name="Aacute" unicode="&#xc1;" 
d="M608 0q-53 -1 -75 18t-25 64q-2 28 -13 80.5t-12 60.5q-6 45 -53 45h-164q-50 0 -59 -51q-4 -24 -12.5 -73t-12.5 -74q-4 -18 -7.5 -29t-14 -21.5t-25.5 -13.5q-29 -9 -65 -8.5t-60 20.5q-8 7 -10 29.5t2 36.5q8 55 68 424q26 153 82.5 483.5t85.5 503.5q10 69 24 80.5
t84 11.5h29q41 -2 55 -13t21 -50q7 -36 18 -107t12 -78q35 -208 103.5 -623.5t103.5 -623.5q9 -59 -5 -75.5t-75 -16.5zM377 446q41 1 53 16t6 56q-9 56 -30.5 179t-32.5 188q-2 15 -9.5 43t-9.5 39h-14q-1 -3 -7 -20t-7 -25q-5 -31 -17.5 -110t-22.5 -135t-22 -108
q-11 -51 -10.5 -75.5t13 -36.5t40 -11.5t70.5 0.5zM172 1636q-44 -17 -60.5 -10t-35.5 51q-11 25 -17 39t-7.5 28t1.5 20.5t14 15.5t24.5 15.5t39.5 16.5q53 21 160 62.5t160 62.5q37 14 61 21q4 -4 18.5 -13t20.5 -14q7 -7 10 -20q5 -13 13 -32.5t10.5 -27t4.5 -19.5
t-2 -18t-13.5 -15t-26 -16.5t-41.5 -17.5q-65 -23 -181 -69t-153 -60z" />
    <glyph glyph-name="Acircumflex" unicode="&#xc2;" 
d="M608 0q-53 -1 -75 18t-25 64q-2 28 -13 80.5t-12 60.5q-6 45 -53 45h-164q-50 0 -59 -51q-4 -24 -12.5 -73t-12.5 -74q-4 -18 -7.5 -29t-14 -21.5t-25.5 -13.5q-29 -9 -65 -8.5t-60 20.5q-8 7 -10 29.5t2 36.5q8 55 68 424q26 153 82.5 483.5t85.5 503.5q10 69 24 80.5
t84 11.5h29q41 -2 55 -13t21 -50q7 -36 18 -107t12 -78q35 -208 103.5 -623.5t103.5 -623.5q9 -59 -5 -75.5t-75 -16.5zM377 446q41 1 53 16t6 56q-9 56 -30.5 179t-32.5 188q-2 15 -9.5 43t-9.5 39h-14q-1 -3 -7 -20t-7 -25q-5 -31 -17.5 -110t-22.5 -135t-22 -108
q-11 -51 -10.5 -75.5t13 -36.5t40 -11.5t70.5 0.5zM168 1651q-8 3 -15 5t-8 3q-44 27 -63 43t-19.5 34.5t16.5 35t58 45.5q44 30 154 110q30 21 47.5 21t48.5 -21q101 -70 217 -155q26 -20 26.5 -32t-22.5 -34q-4 -6 -12 -14q-43 -39 -65 -40t-72 34q-12 9 -36.5 26.5
t-37.5 26.5q-28 19 -43 19t-43 -19q-11 -6 -23 -14.5t-25.5 -19t-21.5 -15.5q-37 -22 -61 -39z" />
    <glyph glyph-name="Atilde" unicode="&#xc3;" horiz-adv-x="1073" 
d="M608 0q-53 -1 -75 18t-25 64q-2 28 -13 80.5t-12 60.5q-6 45 -53 45h-164q-50 0 -59 -51q-4 -24 -12.5 -73t-12.5 -74q-4 -18 -7.5 -29t-14 -21.5t-25.5 -13.5q-29 -9 -65 -8.5t-60 20.5q-8 7 -10 29.5t2 36.5q8 55 68 424q26 153 82.5 483.5t85.5 503.5q10 69 24 80.5
t84 11.5h29q41 -2 55 -13t21 -50q7 -36 18 -107t12 -78q35 -208 103.5 -623.5t103.5 -623.5q9 -59 -5 -75.5t-75 -16.5zM377 446q41 1 53 16t6 56q-9 56 -30.5 179t-32.5 188q-2 15 -9.5 43t-9.5 39h-14q-1 -3 -7 -20t-7 -25q-5 -31 -17.5 -110t-22.5 -135t-22 -108
q-11 -51 -10.5 -75.5t13 -36.5t40 -11.5t70.5 0.5zM141 1677q-38 22 -121 88q-40 34 -2 76l31 31q37 36 56 37t59 -29q13 -9 35 -27q42 -34 82 9q12 15 41 39q73 67 180 45q94 -19 192 -117q4 -4 11 -15.5t10 -15.5q-15 -31 -17 -33l-9 -9l-11.5 -11.5l-9.5 -9.5
q-47 -41 -63.5 -41.5t-67.5 37.5q-51 36 -76 33.5t-70 -48.5q-60 -63 -118 -72.5t-132 33.5z" />
    <glyph glyph-name="Adieresis" unicode="&#xc4;" 
d="M608 0q-53 -1 -75 18t-25 64q-2 28 -13 80.5t-12 60.5q-6 45 -53 45h-164q-50 0 -59 -51q-4 -24 -12.5 -73t-12.5 -74q-4 -18 -7.5 -29t-14 -21.5t-25.5 -13.5q-29 -9 -65 -8.5t-60 20.5q-8 7 -10 29.5t2 36.5q8 55 68 424q26 153 82.5 483.5t85.5 503.5q10 69 24 80.5
t84 11.5h29q41 -2 55 -13t21 -50q7 -36 18 -107t12 -78q35 -208 103.5 -623.5t103.5 -623.5q9 -59 -5 -75.5t-75 -16.5zM377 446q41 1 53 16t6 56q-9 56 -30.5 179t-32.5 188q-2 15 -9.5 43t-9.5 39h-14q-1 -3 -7 -20t-7 -25q-5 -31 -17.5 -110t-22.5 -135t-22 -108
q-11 -51 -10.5 -75.5t13 -36.5t40 -11.5t70.5 0.5zM158 1739q-44 2 -73.5 32t-29.5 74q2 46 31.5 74t75.5 27q45 -1 73.5 -30.5t28.5 -74.5q-1 -43 -33 -73.5t-73 -28.5zM530 1739q-44 2 -72.5 32t-27.5 74q0 46 29.5 74.5t75.5 26.5q44 0 73 -30t29 -75q0 -41 -33 -72.5
t-74 -29.5z" />
    <glyph glyph-name="Aring" unicode="&#xc5;" 
d="M608 0q-53 -1 -75 18t-25 64q-2 28 -13 80.5t-12 60.5q-6 45 -53 45h-164q-50 0 -59 -51q-4 -24 -12.5 -73t-12.5 -74q-4 -18 -7.5 -29t-14 -21.5t-25.5 -13.5q-29 -9 -65 -8.5t-60 20.5q-8 7 -10 29.5t2 36.5q8 55 68 424q26 153 82.5 483.5t85.5 503.5q10 69 24 80.5
t84 11.5h29q41 -2 55 -13t21 -50q7 -36 18 -107t12 -78q35 -208 103.5 -623.5t103.5 -623.5q9 -59 -5 -75.5t-75 -16.5zM377 446q41 1 53 16t6 56q-9 56 -30.5 179t-32.5 188q-2 15 -9.5 43t-9.5 39h-14q-1 -3 -7 -20t-7 -25q-5 -31 -17.5 -110t-22.5 -135t-22 -108
q-11 -51 -10.5 -75.5t13 -36.5t40 -11.5t70.5 0.5zM344 1624q-70 0 -116 46.5t-46 117.5q0 69 46.5 114.5t117.5 45.5q68 0 117 -49t47 -115q-1 -67 -49.5 -113.5t-116.5 -46.5zM342 1737q19 -1 35 13.5t18 33.5q0 19 -15 35t-34 16q-20 1 -34.5 -13t-14.5 -34
q-1 -20 12.5 -35.5t32.5 -15.5z" />
    <glyph glyph-name="Ccedilla" unicode="&#xc7;" horiz-adv-x="1042" 
d="M586 78q-61 -53 -158 -71t-193 5t-153 80q-82 82 -82 184q0 699 2 1047q0 93 58 165t149 95q131 35 262 0q93 -23 150.5 -95t60.5 -169q1 -21 1 -45t-0.5 -57.5t-0.5 -55.5q-19 0 -46.5 -0.5t-48 -0.5t-38.5 1q-41 3 -41 47q-1 10 -1.5 43.5t-2.5 51.5q-4 54 -32.5 80.5
t-82.5 29.5q-59 3 -106 -2q-88 -6 -103 -92q-4 -23 -4 -72v-895q0 -43 4 -63q12 -90 96 -99q65 -6 130 0q84 9 96 99q4 31 4 92q3 53 55 53q30 -1 51 1t34.5 -3t21 -9.5t11 -18t4.5 -29t1 -43.5v-10q0 -157 -98 -244zM293 -502q-45 -9 -55 41v39q-11 61 51 86q41 17 57.5 40
t7.5 49t-45 52q-41 30 -50 68.5t-3 95.5q3 28 20 38.5t46 12.5q80 7 88 -38q12 -49 57 -105q89 -119 33 -242q-52 -109 -207 -137z" />
    <glyph glyph-name="Egrave" unicode="&#xc8;" horiz-adv-x="968" 
d="M78 2q-49 0 -63.5 15.5t-14.5 66.5v715v702q0 60 12.5 73t71.5 15q287 0 430 -2q4 0 17 0.5t19 0t15.5 -2.5t15 -8t7.5 -16q8 -53 -6 -125q-1 -7 -21.5 -13t-36.5 -6q-78 -2 -235 -2h-58q-53 0 -53 -53q1 -72 1 -215t1 -215q0 -32 11.5 -42.5t44.5 -12.5q22 -1 65 0t64 0
q38 -3 51 -16t16 -50v-37q-1 -47 -15.5 -61.5t-60.5 -16.5h-108q-45 -2 -56.5 -14t-11.5 -57q-3 -191 0 -379q0 -43 12.5 -57t53.5 -15q28 -1 60 -1t71.5 0.5t60.5 0.5q54 0 66 -12.5t14 -65.5q0 -56 -14.5 -75t-61.5 -19q-182 -3 -364 0zM471 1618q-57 23 -191 75t-206 81
q-29 12 -36 28t3 45q3 13 16 47q19 41 36 48.5t57 -7.5q51 -19 372 -145q17 -6 26.5 -11.5t17 -18.5t5.5 -31q-29 -75 -39 -93q-17 -33 -61 -18z" />
    <glyph glyph-name="Eacute" unicode="&#xc9;" horiz-adv-x="960" 
d="M78 2q-49 0 -63.5 15.5t-14.5 66.5v715v702q0 60 12.5 73t71.5 15q287 0 430 -2q4 0 17 0.5t19 0t15.5 -2.5t15 -8t7.5 -16q8 -53 -6 -125q-1 -7 -21.5 -13t-36.5 -6q-78 -2 -235 -2h-58q-53 0 -53 -53q1 -72 1 -215t1 -215q0 -32 11.5 -42.5t44.5 -12.5q22 -1 65 0t64 0
q38 -3 51 -16t16 -50v-37q-1 -47 -15.5 -61.5t-60.5 -16.5h-108q-45 -2 -56.5 -14t-11.5 -57q-3 -191 0 -379q0 -43 12.5 -57t53.5 -15q28 -1 60 -1t71.5 0.5t60.5 0.5q54 0 66 -12.5t14 -65.5q0 -56 -14.5 -75t-61.5 -19q-182 -3 -364 0zM152 1636q-44 -17 -61 -10t-36 51
q-22 48 -23.5 68.5t14 33.5t65.5 33q53 21 159.5 62.5t159.5 62.5q33 13 62 21q4 -4 17.5 -13t20.5 -14q8 -8 11 -20q5 -13 13 -32.5t10.5 -26.5t4 -20t-2.5 -18.5t-13.5 -14.5t-26 -16.5t-41.5 -17.5q-64 -23 -178.5 -68.5t-154.5 -60.5z" />
    <glyph glyph-name="Ecircumflex" unicode="&#xca;" horiz-adv-x="980" 
d="M78 2q-49 0 -63.5 15.5t-14.5 66.5v715v702q0 60 12.5 73t71.5 15q287 0 430 -2q4 0 17 0.5t19 0t15.5 -2.5t15 -8t7.5 -16q8 -53 -6 -125q-1 -7 -21.5 -13t-36.5 -6q-78 -2 -235 -2h-58q-53 0 -53 -53q1 -72 1 -215t1 -215q0 -32 11.5 -42.5t44.5 -12.5q22 -1 65 0t64 0
q38 -3 51 -16t16 -50v-37q-1 -47 -15.5 -61.5t-60.5 -16.5h-108q-45 -2 -56.5 -14t-11.5 -57q-3 -191 0 -379q0 -43 12.5 -57t53.5 -15q28 -1 60 -1t71.5 0.5t60.5 0.5q54 0 66 -12.5t14 -65.5q0 -56 -14.5 -75t-61.5 -19q-182 -3 -364 0zM131 1651q-8 3 -14.5 5t-7.5 3
q-44 27 -63.5 43t-20 34.5t16.5 35t58 45.5q44 30 154 110q30 21 47.5 21t48.5 -21q101 -70 217 -155q26 -20 26.5 -32t-22.5 -34q-4 -6 -12 -14q-43 -39 -65 -40t-72 34q-13 9 -37.5 26.5t-36.5 26.5q-28 19 -43 19t-43 -19q-15 -8 -40 -27t-29 -22q-44 -26 -62 -39z" />
    <glyph glyph-name="Edieresis" unicode="&#xcb;" horiz-adv-x="993" 
d="M78 2q-49 0 -63.5 15.5t-14.5 66.5v715v702q0 60 12.5 73t71.5 15q287 0 430 -2q4 0 17 0.5t19 0t15.5 -2.5t15 -8t7.5 -16q8 -53 -6 -125q-1 -7 -21.5 -13t-36.5 -6q-78 -2 -235 -2h-58q-53 0 -53 -53q1 -72 1 -215t1 -215q0 -32 11.5 -42.5t44.5 -12.5q22 -1 65 0t64 0
q38 -3 51 -16t16 -50v-37q-1 -47 -15.5 -61.5t-60.5 -16.5h-108q-45 -2 -56.5 -14t-11.5 -57q-3 -191 0 -379q0 -43 12.5 -57t53.5 -15q28 -1 60 -1t71.5 0.5t60.5 0.5q54 0 66 -12.5t14 -65.5q0 -56 -14.5 -75t-61.5 -19q-182 -3 -364 0zM123 1739q-44 2 -73.5 32t-29.5 74
q2 46 31.5 74t75.5 27q45 -1 73.5 -30.5t28.5 -74.5q-1 -43 -33 -73.5t-73 -28.5zM496 1739q-44 2 -73 32t-28 74q0 46 29.5 74.5t75.5 26.5q44 0 73 -30t29 -75q0 -41 -32.5 -72.5t-73.5 -29.5z" />
    <glyph glyph-name="Igrave" unicode="&#xcc;" horiz-adv-x="843" 
d="M184 4q-57 10 -57 59v66v674v665v52q3 46 15.5 57.5t56.5 13.5h51q32 -3 43 -14t12 -43q2 -14 2 -43v-1385q0 -69 -26 -91t-97 -11zM385 1618q-57 23 -191 75t-206 81q-29 12 -36 28t3 45q3 13 16 47q19 41 35.5 48.5t56.5 -7.5q76 -29 373 -145q17 -6 26.5 -11.5
t17 -18.5t5.5 -31q-29 -75 -39 -93q-17 -33 -61 -18z" />
    <glyph glyph-name="Iacute" unicode="&#xcd;" horiz-adv-x="845" 
d="M211 4q-57 10 -57 59v66v674v665v52q3 46 15 58t56 13h51q33 -3 44 -14t12 -43q2 -14 2 -43v-1385q0 -69 -26 -91t-97 -11zM70 1636q-44 -17 -61 -10t-36 51q-22 48 -23.5 68.5t14 33.5t65.5 33q53 21 159.5 62.5t159.5 62.5q33 13 62 21q4 -4 18.5 -13t20.5 -14
q7 -7 10 -20q5 -13 13 -32.5t10.5 -26.5t4 -20t-2.5 -18.5t-13.5 -14.5t-26 -16.5t-41.5 -17.5q-64 -23 -178.5 -68.5t-154.5 -60.5z" />
    <glyph glyph-name="Icircumflex" unicode="&#xce;" horiz-adv-x="876" 
d="M211 4q-57 10 -57 59v66v674v665v52q3 46 15 58t56 13h51q33 -3 44 -14t12 -43q2 -14 2 -43v-1385q0 -69 -26 -91t-97 -11zM55 1651q-8 3 -14.5 5t-7.5 3q-44 27 -63 43t-19.5 34.5t16.5 35t58 45.5q25 18 153 110q30 21 47.5 21t48.5 -21q117 -80 218 -155
q26 -20 26.5 -32t-22.5 -34q-2 -3 -13 -14q-43 -39 -65 -40t-72 34q-13 9 -37.5 26.5t-36.5 26.5q-28 19 -43 19t-43 -19q-15 -8 -40 -27t-29 -22q-44 -26 -62 -39z" />
    <glyph glyph-name="Idieresis" unicode="&#xcf;" horiz-adv-x="888" 
d="M211 4q-57 10 -57 59v66v674v665v52q3 46 15 58t56 13h51q33 -3 44 -14t12 -43q2 -14 2 -43v-1385q0 -69 -26 -91t-97 -11zM51 1739q-44 1 -73 31.5t-29 74.5q2 46 31 74t75 27t74.5 -31t28.5 -74q-1 -43 -33.5 -73.5t-73.5 -28.5zM424 1739q-44 2 -72.5 32t-27.5 74
q0 46 29 74t75 27q44 0 73 -30t29 -75q0 -41 -32.5 -72.5t-73.5 -29.5z" />
    <glyph glyph-name="Ntilde" unicode="&#xd1;" horiz-adv-x="1124" 
d="M121 4q-72 -10 -96.5 10.5t-24.5 91.5v1385v35q3 40 14.5 50.5t51.5 12.5q27 2 38.5 2.5t30.5 0t25 -0.5t18.5 -5t15.5 -7t11.5 -12.5t10.5 -16.5t8.5 -23.5t9.5 -29t10 -37.5q55 -196 200 -723q4 -15 9.5 -30.5t13 -36t12.5 -35.5q10 14 15.5 31t6 24.5t0 29t-0.5 23.5
q2 1 1 322l-1 321v95q1 82 17.5 97.5t94.5 10.5q40 -2 51.5 -12.5t14.5 -50.5v-49v-1362v-58q0 -48 -47 -51q-86 -4 -127 0q-28 3 -41.5 21t-20.5 49q-92 332 -112 399q-76 277 -101 365q-9 31 -28 78h-17q-1 -13 -4.5 -54t-3.5 -63v-697q0 -26 -4 -84q-6 -2 -24.5 -8.5
t-26.5 -7.5zM143 1677q-35 20 -120 88q-41 35 -3 76l31 31q37 36 56 37t59 -29q13 -9 35 -27q42 -34 82 9q12 15 41 39q73 67 180 45q94 -19 192 -117q4 -4 11 -15.5t10 -15.5q-15 -31 -17 -33l-9 -9l-11.5 -11.5l-9.5 -9.5q-47 -41 -63.5 -41.5t-67.5 37.5q-51 36 -76 33.5
t-70 -48.5q-60 -63 -118 -72.5t-132 33.5z" />
    <glyph glyph-name="Ograve" unicode="&#xd2;" horiz-adv-x="1046" 
d="M383 0q-17 1 -50 1t-50 1q-113 2 -192.5 77t-86.5 187q-4 78 -4 236v702q0 41 4 123q9 102 79.5 176t172.5 84q108 10 207 -8q102 -20 161.5 -95.5t61.5 -180.5v-502q0 -49 -1.5 -155t-1 -186.5t4.5 -154.5q4 -132 -89 -222.5t-216 -82.5zM387 182q61 4 88.5 32.5
t32.5 88.5v43l1 447q1 447 -1 448q0 74 -14 105q-10 23 -24.5 37t-35 18.5t-35.5 6t-42 0.5t-38 -1q-101 4 -126 -70q-13 -35 -13 -84v-456v-445q0 -46 2 -71q15 -85 99 -97q63 -7 106 -2zM543 1618q-58 23 -192.5 75t-205.5 81q-29 12 -35.5 28t3.5 45q3 13 16 47
q19 41 35.5 48.5t56.5 -7.5q76 -29 373 -145q17 -6 26.5 -11.5t17 -18.5t5.5 -31q-29 -75 -39 -93q-17 -33 -61 -18z" />
    <glyph glyph-name="Oacute" unicode="&#xd3;" horiz-adv-x="1046" 
d="M383 0q-17 1 -50 1t-50 1q-113 2 -192.5 77t-86.5 187q-4 78 -4 236v702q0 41 4 123q9 102 79.5 176t172.5 84q108 10 207 -8q102 -20 161.5 -95.5t61.5 -180.5v-502q0 -49 -1.5 -155t-1 -186.5t4.5 -154.5q4 -132 -89 -222.5t-216 -82.5zM387 182q61 4 88.5 32.5
t32.5 88.5v43l1 447q1 447 -1 448q0 74 -14 105q-10 23 -24.5 37t-35 18.5t-35.5 6t-42 0.5t-38 -1q-101 4 -126 -70q-13 -35 -13 -84v-456v-445q0 -46 2 -71q15 -85 99 -97q63 -7 106 -2zM209 1636q-44 -17 -60.5 -10t-35.5 51q-11 25 -17 39t-7.5 28t1.5 20.5t14 15.5
t24.5 15.5t39.5 16.5q53 21 159.5 62.5t159.5 62.5q33 13 62 21q4 -4 18.5 -13t20.5 -14q7 -7 10 -20q5 -13 13 -32.5t10.5 -27t4.5 -19.5t-2 -18t-13.5 -15t-26 -16.5t-41.5 -17.5q-65 -23 -181 -69t-153 -60z" />
    <glyph glyph-name="Ocircumflex" unicode="&#xd4;" horiz-adv-x="1046" 
d="M383 0q-17 1 -50 1t-50 1q-113 2 -192.5 77t-86.5 187q-4 78 -4 236v702q0 41 4 123q9 102 79.5 176t172.5 84q108 10 207 -8q102 -20 161.5 -95.5t61.5 -180.5v-502q0 -49 -1.5 -155t-1 -186.5t4.5 -154.5q4 -132 -89 -222.5t-216 -82.5zM387 182q61 4 88.5 32.5
t32.5 88.5v43l1 447q1 447 -1 448q0 74 -14 105q-10 23 -24.5 37t-35 18.5t-35.5 6t-42 0.5t-38 -1q-101 4 -126 -70q-13 -35 -13 -84v-456v-445q0 -46 2 -71q15 -85 99 -97q63 -7 106 -2zM178 1651q-8 3 -14.5 5t-7.5 3q-44 27 -63.5 43t-20 34.5t16.5 35t58 45.5
q44 30 154 110q30 21 47.5 21t48.5 -21q101 -70 217 -155q26 -20 26.5 -32t-22.5 -34q-4 -6 -12 -14q-43 -39 -65 -40t-72 34q-12 9 -36.5 26.5t-37.5 26.5q-28 19 -43 19t-43 -19q-15 -8 -40 -27t-29 -22q-44 -26 -62 -39z" />
    <glyph glyph-name="Otilde" unicode="&#xd5;" horiz-adv-x="1124" 
d="M383 0q-17 1 -50 1t-50 1q-113 2 -192.5 77t-86.5 187q-4 78 -4 236v702q0 41 4 123q9 102 79.5 176t172.5 84q108 10 207 -8q102 -20 161.5 -95.5t61.5 -180.5v-502q0 -49 -1.5 -155t-1 -186.5t4.5 -154.5q4 -132 -89 -222.5t-216 -82.5zM387 182q61 4 88.5 32.5
t32.5 88.5v43l1 447q1 447 -1 448q0 74 -14 105q-10 23 -24.5 37t-35 18.5t-35.5 6t-42 0.5t-38 -1q-101 4 -126 -70q-13 -35 -13 -84v-456v-445q0 -46 2 -71q15 -85 99 -97q63 -7 106 -2zM137 1677q-38 22 -121 88q-40 34 -2 76l31 31q37 36 56 37t59 -29q13 -9 35 -27
q42 -33 81 9q12 15 41 39q73 67 181 45q94 -19 192 -117q4 -4 11 -15.5t10 -15.5q-15 -31 -17 -33l-9 -9l-11.5 -11.5l-9.5 -9.5q-47 -41 -64 -41.5t-68 37.5q-51 36 -75.5 33.5t-69.5 -48.5q-60 -63 -118 -72.5t-132 33.5z" />
    <glyph glyph-name="Odieresis" unicode="&#xd6;" horiz-adv-x="1048" 
d="M383 0q-17 1 -50 1t-50 1q-113 2 -192.5 77t-86.5 187q-4 78 -4 236v702q0 41 4 123q9 102 79.5 176t172.5 84q108 10 207 -8q102 -20 161.5 -95.5t61.5 -180.5v-502q0 -49 -1.5 -155t-1 -186.5t4.5 -154.5q4 -132 -89 -222.5t-216 -82.5zM387 182q61 4 88.5 32.5
t32.5 88.5v43l1 447q1 447 -1 448q0 74 -14 105q-10 23 -24.5 37t-35 18.5t-35.5 6t-42 0.5t-38 -1q-101 4 -126 -70q-13 -35 -13 -84v-456v-445q0 -46 2 -71q15 -85 99 -97q63 -7 106 -2zM168 1739q-44 1 -73 31.5t-29 74.5q2 46 31 74t75 27q45 -1 73.5 -30.5t28.5 -74.5
q-1 -43 -33 -73.5t-73 -28.5zM541 1739q-44 2 -73 32t-28 74q0 46 29.5 74.5t75.5 26.5q44 0 73 -30t29 -75q0 -41 -32.5 -72.5t-73.5 -29.5z" />
    <glyph glyph-name="multiply" unicode="&#xd7;" horiz-adv-x="1083" 
d="M59 467q-7 3 -10 10q-47 44 -47.5 65.5t43.5 65.5l148 148q26 28 26 42t-26 42l-78 78t-78 79q-35 35 -35 54.5t35 56.5l31 31q24 19 41.5 19t40.5 -23q12 -11 137 -136q12 -11 37.5 -33t40.5 -36q23 22 65.5 63.5t63.5 61.5q57 57 86 84q34 34 77 2l31 -31
q37 -38 36.5 -58.5t-38.5 -58.5q-90 -90 -135 -137q-43 -41 -42.5 -58.5t44.5 -60.5q114 -114 135 -137q37 -38 37 -56.5t-35 -56.5l-10 -10q-43 -41 -61.5 -41.5t-59.5 39.5q-24 22 -68.5 68.5t-68.5 68.5q-41 40 -58 40t-57 -38l-147 -147q-34 -31 -51.5 -31t-49.5 31z
" />
    <glyph glyph-name="Oslash" unicode="&#xd8;" horiz-adv-x="1044" 
d="M254 4q-107 11 -179 88.5t-73 186.5v514h-2q0 329 2 493q0 130 70.5 210.5t197.5 92.5q94 9 193 -10q93 -17 153.5 -88.5t65.5 -167.5q4 -119 4 -358v-586q0 -41 -4 -115q-6 -103 -77 -177t-173 -83q-89 -9 -178 0zM256 188q93 -9 176 5q19 3 38.5 22t23.5 39
q40 118 -19 205q-104 142 -239 329q-4 6 -10.5 12.5t-18.5 17.5t-21 20q-8 -82 -8 -90q-1 -60 -1 -127t0.5 -149t0.5 -126q0 -47 4 -72q14 -78 74 -86zM481 766q3 0 9.5 1t9.5 1q6 75 6 76q2 135 2 407q-1 9 -2 28.5t-2 29.5q-15 94 -111 100q-89 0 -106 -2q-41 -2 -69 -24
t-34 -60q-22 -132 35 -205q34 -44 71 -95t81 -113t69 -97q7 -9 23 -27t18 -20z" />
    <glyph glyph-name="Ugrave" unicode="&#xd9;" horiz-adv-x="1048" 
d="M236 8q-102 19 -167 96.5t-67 182.5v608h-2q0 397 2 596q0 5 -1 17t-0.5 19.5t2 16.5t7.5 15t15 8q15 3 33.5 3.5t31 0t35.5 -2t33 -1.5q4 -1 10 -13.5t8 -23.5q2 -20 2 -64v-1087q0 -60 8 -107q17 -79 101 -88q59 -6 121 0q40 4 65.5 32t30.5 69q2 31 2 92v1053v36
q0 78 33.5 103.5t109.5 3.5q19 -5 37 -37q3 -5 3.5 -12t-0.5 -17t-1 -14v-1190q0 -111 -64 -192.5t-169 -100.5q-115 -19 -219 -2zM584 1618q-58 23 -192.5 75t-205.5 81q-29 12 -35.5 28t3.5 45q3 13 16 47q19 41 35.5 48.5t56.5 -7.5q76 -29 373 -145q17 -6 26.5 -11.5
t17 -18.5t5.5 -31q-29 -75 -39 -93q-17 -33 -61 -18z" />
    <glyph glyph-name="Uacute" unicode="&#xda;" horiz-adv-x="1048" 
d="M236 8q-102 19 -167 96.5t-67 182.5v608h-2q0 397 2 596q0 5 -1 17t-0.5 19.5t2 16.5t7.5 15t15 8q15 3 33.5 3.5t31 0t35.5 -2t33 -1.5q4 -1 10 -13.5t8 -23.5q2 -20 2 -64v-1087q0 -60 8 -107q17 -79 101 -88q59 -6 121 0q40 4 65.5 32t30.5 69q2 31 2 92v1053v36
q0 78 33.5 103.5t109.5 3.5q19 -5 37 -37q3 -5 3.5 -12t-0.5 -17t-1 -14v-1190q0 -111 -64 -192.5t-169 -100.5q-115 -19 -219 -2zM244 1636q-44 -17 -61 -10t-36 51q-22 48 -23.5 68.5t14 33.5t65.5 33q53 21 159.5 62.5t159.5 62.5q33 13 62 21q4 -4 18.5 -13t20.5 -14
q7 -7 10 -20q5 -13 13 -32.5t10.5 -27t4.5 -19.5t-2 -18t-13.5 -15t-26 -16.5t-41.5 -17.5q-65 -23 -181 -69t-153 -60z" />
    <glyph glyph-name="Ucircumflex" unicode="&#xdb;" horiz-adv-x="1048" 
d="M236 8q-102 19 -167 96.5t-67 182.5v608h-2q0 397 2 596q0 5 -1 17t-0.5 19.5t2 16.5t7.5 15t15 8q15 3 33.5 3.5t31 0t35.5 -2t33 -1.5q4 -1 10 -13.5t8 -23.5q2 -20 2 -64v-1087q0 -60 8 -107q17 -79 101 -88q59 -6 121 0q40 4 65.5 32t30.5 69q2 31 2 92v1053v36
q0 78 33.5 103.5t109.5 3.5q19 -5 37 -37q3 -5 3.5 -12t-0.5 -17t-1 -14v-1190q0 -111 -64 -192.5t-169 -100.5q-115 -19 -219 -2zM225 1651q-8 3 -14.5 5t-7.5 3q-44 27 -63 43t-19.5 34.5t16.5 35t58 45.5q26 18 153 110q30 21 47.5 21t48.5 -21q117 -80 218 -155
q26 -20 26.5 -32t-22.5 -34q-2 -3 -13 -14q-43 -39 -65 -40t-72 34q-13 9 -37.5 26.5t-36.5 26.5q-28 19 -43 19t-43 -19q-15 -8 -40 -27t-29 -22q-44 -26 -62 -39z" />
    <glyph glyph-name="Udieresis" unicode="&#xdc;" horiz-adv-x="1052" 
d="M236 8q-102 19 -167 96.5t-67 182.5v608h-2q0 397 2 596q0 5 -1 17t-0.5 19.5t2 16.5t7.5 15t15 8q15 3 33.5 3.5t31 0t35.5 -2t33 -1.5q4 -1 10 -13.5t8 -23.5q2 -20 2 -64v-1087q0 -60 8 -107q17 -79 101 -88q59 -6 121 0q40 4 65.5 32t30.5 69q2 31 2 92v1053v36
q0 78 33.5 103.5t109.5 3.5q19 -5 37 -37q3 -5 3.5 -12t-0.5 -17t-1 -14v-1190q0 -111 -64 -192.5t-169 -100.5q-115 -19 -219 -2zM215 1739q-44 1 -73 31.5t-29 74.5q2 46 31 74t75 27t74.5 -31t28.5 -74q-1 -43 -33.5 -73.5t-73.5 -28.5zM588 1739q-44 2 -73 32t-28 74
q0 46 29.5 74.5t75.5 26.5q44 0 73 -30t29 -75q0 -41 -32.5 -72.5t-73.5 -29.5z" />
    <glyph glyph-name="Yacute" unicode="&#xdd;" horiz-adv-x="1081" 
d="M424 12q-78 -29 -131 8q-12 8 -17 64q0 364 -2 436q0 94 -24 176q-44 156 -131 445t-105 350q-21 69 -10 84.5t82 15.5q63 0 77.5 -11t33.5 -71q22 -71 65 -214.5t64 -215.5q4 -12 28 -78q11 0 17 -2q4 14 13.5 37.5t12.5 32.5q22 72 64.5 216t64.5 216q3 17 7 30
t10 22.5t10.5 16t14.5 10.5t16.5 6t22.5 3t25 1t31.5 -0.5t36.5 -0.5q9 -3 16 -19.5t7 -29.5q-1 -15 -9 -42.5t-9 -33.5q-166 -548 -230 -774q-20 -64 -20 -139q-1 -77 -1 -229.5t-1 -229.5q0 -4 1 -17.5t0 -20t-3 -16t-9 -16t-18 -10.5zM209 1636q-44 -17 -60.5 -10
t-35.5 51q-11 25 -17 39t-7.5 28t1.5 20.5t14 15.5t24.5 15.5t39.5 16.5q53 21 159.5 62.5t159.5 62.5q33 13 62 21q4 -4 18.5 -13t20.5 -14q7 -7 10 -20q5 -13 13 -32.5t10.5 -27t4.5 -19.5t-2 -18t-13.5 -15t-26 -16.5t-41.5 -17.5q-65 -23 -181 -69t-153 -60z" />
    <glyph glyph-name="germandbls" unicode="&#xdf;" horiz-adv-x="1040" 
d="M98 -2q-69 -1 -83.5 12.5t-14.5 81.5v559h2q0 62 -1 176t-1 207t2 176q3 86 39 166q30 66 83 111.5t116 63t128.5 13t126 -37t101.5 -88.5q145 -195 47 -389q-47 -89 -96 -177q-54 -99 8 -194q50 -79 88 -148q49 -93 37.5 -187t-60 -171.5t-116.5 -116.5
q-76 -45 -158 -39q-29 3 -39.5 16t-7.5 42q7 54 25.5 85.5t70.5 47.5q60 17 89.5 87t7.5 132q-7 17 -24 48t-19 34q-50 81 -66 110q-82 149 -12 295q17 37 110 217q48 91 -28 199q-26 37 -77 49.5t-100.5 -7.5t-68.5 -68q-26 -73 -29 -160v-1026q0 -44 -2 -64
q-3 -34 -12.5 -43t-44.5 -12h-21z" />
    <glyph glyph-name="agrave" unicode="&#xe0;" 
d="M608 0q-53 -1 -75 18t-25 64q-2 28 -13 80.5t-12 60.5q-6 45 -53 45h-164q-50 0 -59 -51q-4 -24 -12.5 -73t-12.5 -74q-4 -18 -7.5 -29t-14 -21.5t-25.5 -13.5q-29 -9 -65 -8.5t-60 20.5q-8 7 -10 29.5t2 36.5q8 55 68 424q26 153 82.5 483.5t85.5 503.5q10 69 24 80.5
t84 11.5h29q41 -2 55 -13t21 -50q7 -36 18 -107t12 -78q35 -208 103.5 -623.5t103.5 -623.5q9 -59 -5 -75.5t-75 -16.5zM377 446q41 1 53 16t6 56q-9 56 -30.5 179t-32.5 188q-2 15 -9.5 43t-9.5 39h-14q-1 -3 -7 -20t-7 -25q-5 -31 -17.5 -110t-22.5 -135t-22 -108
q-11 -51 -10.5 -75.5t13 -36.5t40 -11.5t70.5 0.5zM524 1618q-57 23 -191 75t-206 81q-29 12 -36 28t3 45q1 5 17 47q19 41 35.5 48.5t56.5 -7.5q52 -19 372 -145q17 -6 26.5 -11.5t17.5 -18.5t6 -31q-29 -75 -39 -93q-17 -33 -62 -18z" />
    <glyph glyph-name="aacute" unicode="&#xe1;" 
d="M608 0q-53 -1 -75 18t-25 64q-2 28 -13 80.5t-12 60.5q-6 45 -53 45h-164q-50 0 -59 -51q-4 -24 -12.5 -73t-12.5 -74q-4 -18 -7.5 -29t-14 -21.5t-25.5 -13.5q-29 -9 -65 -8.5t-60 20.5q-8 7 -10 29.5t2 36.5q8 55 68 424q26 153 82.5 483.5t85.5 503.5q10 69 24 80.5
t84 11.5h29q41 -2 55 -13t21 -50q7 -36 18 -107t12 -78q35 -208 103.5 -623.5t103.5 -623.5q9 -59 -5 -75.5t-75 -16.5zM377 446q41 1 53 16t6 56q-9 56 -30.5 179t-32.5 188q-2 15 -9.5 43t-9.5 39h-14q-1 -3 -7 -20t-7 -25q-5 -31 -17.5 -110t-22.5 -135t-22 -108
q-11 -51 -10.5 -75.5t13 -36.5t40 -11.5t70.5 0.5zM172 1636q-44 -17 -60.5 -10t-35.5 51q-11 25 -17 39t-7.5 28t1.5 20.5t14 15.5t24.5 15.5t39.5 16.5q53 21 160 62.5t160 62.5q37 14 61 21q4 -4 18.5 -13t20.5 -14q7 -7 10 -20q5 -13 13 -32.5t10.5 -27t4.5 -19.5
t-2 -18t-13.5 -15t-26 -16.5t-41.5 -17.5q-65 -23 -181 -69t-153 -60z" />
    <glyph glyph-name="acircumflex" unicode="&#xe2;" 
d="M608 0q-53 -1 -75 18t-25 64q-2 28 -13 80.5t-12 60.5q-6 45 -53 45h-164q-50 0 -59 -51q-4 -24 -12.5 -73t-12.5 -74q-4 -18 -7.5 -29t-14 -21.5t-25.5 -13.5q-29 -9 -65 -8.5t-60 20.5q-8 7 -10 29.5t2 36.5q8 55 68 424q26 153 82.5 483.5t85.5 503.5q10 69 24 80.5
t84 11.5h29q41 -2 55 -13t21 -50q7 -36 18 -107t12 -78q35 -208 103.5 -623.5t103.5 -623.5q9 -59 -5 -75.5t-75 -16.5zM377 446q41 1 53 16t6 56q-9 56 -30.5 179t-32.5 188q-2 15 -9.5 43t-9.5 39h-14q-1 -3 -7 -20t-7 -25q-5 -31 -17.5 -110t-22.5 -135t-22 -108
q-11 -51 -10.5 -75.5t13 -36.5t40 -11.5t70.5 0.5zM168 1651q-8 3 -15 5t-8 3q-44 27 -63 43t-19.5 34.5t16.5 35t58 45.5q44 30 154 110q30 21 47.5 21t48.5 -21q101 -70 217 -155q26 -20 26.5 -32t-22.5 -34q-4 -6 -12 -14q-43 -39 -65 -40t-72 34q-12 9 -36.5 26.5
t-37.5 26.5q-28 19 -43 19t-43 -19q-11 -6 -23 -14.5t-25.5 -19t-21.5 -15.5q-37 -22 -61 -39z" />
    <glyph glyph-name="atilde" unicode="&#xe3;" horiz-adv-x="1073" 
d="M608 0q-53 -1 -75 18t-25 64q-2 28 -13 80.5t-12 60.5q-6 45 -53 45h-164q-50 0 -59 -51q-4 -24 -12.5 -73t-12.5 -74q-4 -18 -7.5 -29t-14 -21.5t-25.5 -13.5q-29 -9 -65 -8.5t-60 20.5q-8 7 -10 29.5t2 36.5q8 55 68 424q26 153 82.5 483.5t85.5 503.5q10 69 24 80.5
t84 11.5h29q41 -2 55 -13t21 -50q7 -36 18 -107t12 -78q35 -208 103.5 -623.5t103.5 -623.5q9 -59 -5 -75.5t-75 -16.5zM377 446q41 1 53 16t6 56q-9 56 -30.5 179t-32.5 188q-2 15 -9.5 43t-9.5 39h-14q-1 -3 -7 -20t-7 -25q-5 -31 -17.5 -110t-22.5 -135t-22 -108
q-11 -51 -10.5 -75.5t13 -36.5t40 -11.5t70.5 0.5zM141 1677q-38 22 -121 88q-40 34 -2 76l31 31q37 36 56 37t59 -29q13 -9 35 -27q42 -34 82 9q12 15 41 39q73 67 180 45q94 -19 192 -117q4 -4 11 -15.5t10 -15.5q-15 -31 -17 -33l-9 -9l-11.5 -11.5l-9.5 -9.5
q-47 -41 -63.5 -41.5t-67.5 37.5q-51 36 -76 33.5t-70 -48.5q-60 -63 -118 -72.5t-132 33.5z" />
    <glyph glyph-name="adieresis" unicode="&#xe4;" 
d="M608 0q-53 -1 -75 18t-25 64q-2 28 -13 80.5t-12 60.5q-6 45 -53 45h-164q-50 0 -59 -51q-4 -24 -12.5 -73t-12.5 -74q-4 -18 -7.5 -29t-14 -21.5t-25.5 -13.5q-29 -9 -65 -8.5t-60 20.5q-8 7 -10 29.5t2 36.5q8 55 68 424q26 153 82.5 483.5t85.5 503.5q10 69 24 80.5
t84 11.5h29q41 -2 55 -13t21 -50q7 -36 18 -107t12 -78q35 -208 103.5 -623.5t103.5 -623.5q9 -59 -5 -75.5t-75 -16.5zM377 446q41 1 53 16t6 56q-9 56 -30.5 179t-32.5 188q-2 15 -9.5 43t-9.5 39h-14q-1 -3 -7 -20t-7 -25q-5 -31 -17.5 -110t-22.5 -135t-22 -108
q-11 -51 -10.5 -75.5t13 -36.5t40 -11.5t70.5 0.5zM158 1739q-44 2 -73.5 32t-29.5 74q2 46 31.5 74t75.5 27q45 -1 73.5 -30.5t28.5 -74.5q-1 -43 -33 -73.5t-73 -28.5zM530 1739q-44 2 -72.5 32t-27.5 74q0 46 29.5 74.5t75.5 26.5q44 0 73 -30t29 -75q0 -41 -33 -72.5
t-74 -29.5z" />
    <glyph glyph-name="aring" unicode="&#xe5;" 
d="M608 0q-53 -1 -75 18t-25 64q-2 28 -13 80.5t-12 60.5q-6 45 -53 45h-164q-50 0 -59 -51q-4 -24 -12.5 -73t-12.5 -74q-4 -18 -7.5 -29t-14 -21.5t-25.5 -13.5q-29 -9 -65 -8.5t-60 20.5q-8 7 -10 29.5t2 36.5q8 55 68 424q26 153 82.5 483.5t85.5 503.5q10 69 24 80.5
t84 11.5h29q41 -2 55 -13t21 -50q7 -36 18 -107t12 -78q35 -208 103.5 -623.5t103.5 -623.5q9 -59 -5 -75.5t-75 -16.5zM377 446q41 1 53 16t6 56q-9 56 -30.5 179t-32.5 188q-2 15 -9.5 43t-9.5 39h-14q-1 -3 -7 -20t-7 -25q-5 -31 -17.5 -110t-22.5 -135t-22 -108
q-11 -51 -10.5 -75.5t13 -36.5t40 -11.5t70.5 0.5zM344 1624q-70 0 -116 46.5t-46 117.5q0 69 46.5 114.5t117.5 45.5q68 0 117 -49t47 -115q-1 -67 -49.5 -113.5t-116.5 -46.5zM342 1737q19 -1 35 13.5t18 33.5q0 19 -15 35t-34 16q-20 1 -34.5 -13t-14.5 -34
q-1 -20 12.5 -35.5t32.5 -15.5z" />
    <glyph glyph-name="ccedilla" unicode="&#xe7;" horiz-adv-x="1042" 
d="M586 78q-61 -53 -158 -71t-193 5t-153 80q-82 82 -82 184q0 699 2 1047q0 93 58 165t149 95q131 35 262 0q93 -23 150.5 -95t60.5 -169q1 -21 1 -45t-0.5 -57.5t-0.5 -55.5q-19 0 -46.5 -0.5t-48 -0.5t-38.5 1q-41 3 -41 47q-1 10 -1.5 43.5t-2.5 51.5q-4 54 -32.5 80.5
t-82.5 29.5q-59 3 -106 -2q-88 -6 -103 -92q-4 -23 -4 -72v-895q0 -43 4 -63q12 -90 96 -99q65 -6 130 0q84 9 96 99q4 31 4 92q3 53 55 53q30 -1 51 1t34.5 -3t21 -9.5t11 -18t4.5 -29t1 -43.5v-10q0 -157 -98 -244zM293 -502q-45 -9 -55 41v39q-11 61 51 86q41 17 57.5 40
t7.5 49t-45 52q-41 30 -50 68.5t-3 95.5q3 28 20 38.5t46 12.5q80 7 88 -38q12 -49 57 -105q89 -119 33 -242q-52 -109 -207 -137z" />
    <glyph glyph-name="egrave" unicode="&#xe8;" horiz-adv-x="968" 
d="M78 2q-49 0 -63.5 15.5t-14.5 66.5v715v702q0 60 12.5 73t71.5 15q287 0 430 -2q4 0 17 0.5t19 0t15.5 -2.5t15 -8t7.5 -16q8 -53 -6 -125q-1 -7 -21.5 -13t-36.5 -6q-78 -2 -235 -2h-58q-53 0 -53 -53q1 -72 1 -215t1 -215q0 -32 11.5 -42.5t44.5 -12.5q22 -1 65 0t64 0
q38 -3 51 -16t16 -50v-37q-1 -47 -15.5 -61.5t-60.5 -16.5h-108q-45 -2 -56.5 -14t-11.5 -57q-3 -191 0 -379q0 -43 12.5 -57t53.5 -15q28 -1 60 -1t71.5 0.5t60.5 0.5q54 0 66 -12.5t14 -65.5q0 -56 -14.5 -75t-61.5 -19q-182 -3 -364 0zM471 1618q-57 23 -191 75t-206 81
q-29 12 -36 28t3 45q3 13 16 47q19 41 36 48.5t57 -7.5q51 -19 372 -145q17 -6 26.5 -11.5t17 -18.5t5.5 -31q-29 -75 -39 -93q-17 -33 -61 -18z" />
    <glyph glyph-name="eacute" unicode="&#xe9;" horiz-adv-x="960" 
d="M78 2q-49 0 -63.5 15.5t-14.5 66.5v715v702q0 60 12.5 73t71.5 15q287 0 430 -2q4 0 17 0.5t19 0t15.5 -2.5t15 -8t7.5 -16q8 -53 -6 -125q-1 -7 -21.5 -13t-36.5 -6q-78 -2 -235 -2h-58q-53 0 -53 -53q1 -72 1 -215t1 -215q0 -32 11.5 -42.5t44.5 -12.5q22 -1 65 0t64 0
q38 -3 51 -16t16 -50v-37q-1 -47 -15.5 -61.5t-60.5 -16.5h-108q-45 -2 -56.5 -14t-11.5 -57q-3 -191 0 -379q0 -43 12.5 -57t53.5 -15q28 -1 60 -1t71.5 0.5t60.5 0.5q54 0 66 -12.5t14 -65.5q0 -56 -14.5 -75t-61.5 -19q-182 -3 -364 0zM152 1636q-44 -17 -61 -10t-36 51
q-22 48 -23.5 68.5t14 33.5t65.5 33q53 21 159.5 62.5t159.5 62.5q33 13 62 21q4 -4 17.5 -13t20.5 -14q8 -8 11 -20q5 -13 13 -32.5t10.5 -26.5t4 -20t-2.5 -18.5t-13.5 -14.5t-26 -16.5t-41.5 -17.5q-64 -23 -178.5 -68.5t-154.5 -60.5z" />
    <glyph glyph-name="ecircumflex" unicode="&#xea;" horiz-adv-x="980" 
d="M78 2q-49 0 -63.5 15.5t-14.5 66.5v715v702q0 60 12.5 73t71.5 15q287 0 430 -2q4 0 17 0.5t19 0t15.5 -2.5t15 -8t7.5 -16q8 -53 -6 -125q-1 -7 -21.5 -13t-36.5 -6q-78 -2 -235 -2h-58q-53 0 -53 -53q1 -72 1 -215t1 -215q0 -32 11.5 -42.5t44.5 -12.5q22 -1 65 0t64 0
q38 -3 51 -16t16 -50v-37q-1 -47 -15.5 -61.5t-60.5 -16.5h-108q-45 -2 -56.5 -14t-11.5 -57q-3 -191 0 -379q0 -43 12.5 -57t53.5 -15q28 -1 60 -1t71.5 0.5t60.5 0.5q54 0 66 -12.5t14 -65.5q0 -56 -14.5 -75t-61.5 -19q-182 -3 -364 0zM131 1651q-8 3 -14.5 5t-7.5 3
q-44 27 -63.5 43t-20 34.5t16.5 35t58 45.5q44 30 154 110q30 21 47.5 21t48.5 -21q101 -70 217 -155q26 -20 26.5 -32t-22.5 -34q-4 -6 -12 -14q-43 -39 -65 -40t-72 34q-13 9 -37.5 26.5t-36.5 26.5q-28 19 -43 19t-43 -19q-15 -8 -40 -27t-29 -22q-44 -26 -62 -39z" />
    <glyph glyph-name="edieresis" unicode="&#xeb;" horiz-adv-x="993" 
d="M78 2q-49 0 -63.5 15.5t-14.5 66.5v715v702q0 60 12.5 73t71.5 15q287 0 430 -2q4 0 17 0.5t19 0t15.5 -2.5t15 -8t7.5 -16q8 -53 -6 -125q-1 -7 -21.5 -13t-36.5 -6q-78 -2 -235 -2h-58q-53 0 -53 -53q1 -72 1 -215t1 -215q0 -32 11.5 -42.5t44.5 -12.5q22 -1 65 0t64 0
q38 -3 51 -16t16 -50v-37q-1 -47 -15.5 -61.5t-60.5 -16.5h-108q-45 -2 -56.5 -14t-11.5 -57q-3 -191 0 -379q0 -43 12.5 -57t53.5 -15q28 -1 60 -1t71.5 0.5t60.5 0.5q54 0 66 -12.5t14 -65.5q0 -56 -14.5 -75t-61.5 -19q-182 -3 -364 0zM123 1739q-44 2 -73.5 32t-29.5 74
q2 46 31.5 74t75.5 27q45 -1 73.5 -30.5t28.5 -74.5q-1 -43 -33 -73.5t-73 -28.5zM496 1739q-44 2 -73 32t-28 74q0 46 29.5 74.5t75.5 26.5q44 0 73 -30t29 -75q0 -41 -32.5 -72.5t-73.5 -29.5z" />
    <glyph glyph-name="igrave" unicode="&#xec;" horiz-adv-x="843" 
d="M184 4q-57 10 -57 59v66v674v665v52q3 46 15.5 57.5t56.5 13.5h51q32 -3 43 -14t12 -43q2 -14 2 -43v-1385q0 -69 -26 -91t-97 -11zM385 1618q-57 23 -191 75t-206 81q-29 12 -36 28t3 45q3 13 16 47q19 41 35.5 48.5t56.5 -7.5q76 -29 373 -145q17 -6 26.5 -11.5
t17 -18.5t5.5 -31q-29 -75 -39 -93q-17 -33 -61 -18z" />
    <glyph glyph-name="iacute" unicode="&#xed;" horiz-adv-x="845" 
d="M211 4q-57 10 -57 59v66v674v665v52q3 46 15 58t56 13h51q33 -3 44 -14t12 -43q2 -14 2 -43v-1385q0 -69 -26 -91t-97 -11zM70 1636q-44 -17 -61 -10t-36 51q-22 48 -23.5 68.5t14 33.5t65.5 33q53 21 159.5 62.5t159.5 62.5q33 13 62 21q4 -4 18.5 -13t20.5 -14
q7 -7 10 -20q5 -13 13 -32.5t10.5 -26.5t4 -20t-2.5 -18.5t-13.5 -14.5t-26 -16.5t-41.5 -17.5q-64 -23 -178.5 -68.5t-154.5 -60.5z" />
    <glyph glyph-name="icircumflex" unicode="&#xee;" horiz-adv-x="876" 
d="M211 4q-57 10 -57 59v66v674v665v52q3 46 15 58t56 13h51q33 -3 44 -14t12 -43q2 -14 2 -43v-1385q0 -69 -26 -91t-97 -11zM55 1651q-8 3 -14.5 5t-7.5 3q-44 27 -63 43t-19.5 34.5t16.5 35t58 45.5q25 18 153 110q30 21 47.5 21t48.5 -21q117 -80 218 -155
q26 -20 26.5 -32t-22.5 -34q-2 -3 -13 -14q-43 -39 -65 -40t-72 34q-13 9 -37.5 26.5t-36.5 26.5q-28 19 -43 19t-43 -19q-15 -8 -40 -27t-29 -22q-44 -26 -62 -39z" />
    <glyph glyph-name="idieresis" unicode="&#xef;" horiz-adv-x="888" 
d="M211 4q-57 10 -57 59v66v674v665v52q3 46 15 58t56 13h51q33 -3 44 -14t12 -43q2 -14 2 -43v-1385q0 -69 -26 -91t-97 -11zM51 1739q-44 1 -73 31.5t-29 74.5q2 46 31 74t75 27t74.5 -31t28.5 -74q-1 -43 -33.5 -73.5t-73.5 -28.5zM424 1739q-44 2 -72.5 32t-27.5 74
q0 46 29 74t75 27q44 0 73 -30t29 -75q0 -41 -32.5 -72.5t-73.5 -29.5z" />
    <glyph glyph-name="ntilde" unicode="&#xf1;" horiz-adv-x="1124" 
d="M121 4q-72 -10 -96.5 10.5t-24.5 91.5v1385v35q3 40 14.5 50.5t51.5 12.5q27 2 38.5 2.5t30.5 0t25 -0.5t18.5 -5t15.5 -7t11.5 -12.5t10.5 -16.5t8.5 -23.5t9.5 -29t10 -37.5q55 -196 200 -723q4 -15 9.5 -30.5t13 -36t12.5 -35.5q10 14 15.5 31t6 24.5t0 29t-0.5 23.5
q2 1 1 322l-1 321v95q1 82 17.5 97.5t94.5 10.5q40 -2 51.5 -12.5t14.5 -50.5v-49v-1362v-58q0 -48 -47 -51q-86 -4 -127 0q-28 3 -41.5 21t-20.5 49q-92 332 -112 399q-76 277 -101 365q-9 31 -28 78h-17q-1 -13 -4.5 -54t-3.5 -63v-697q0 -26 -4 -84q-6 -2 -24.5 -8.5
t-26.5 -7.5zM143 1677q-35 20 -120 88q-41 35 -3 76l31 31q37 36 56 37t59 -29q13 -9 35 -27q42 -34 82 9q12 15 41 39q73 67 180 45q94 -19 192 -117q4 -4 11 -15.5t10 -15.5q-15 -31 -17 -33l-9 -9l-11.5 -11.5l-9.5 -9.5q-47 -41 -63.5 -41.5t-67.5 37.5q-51 36 -76 33.5
t-70 -48.5q-60 -63 -118 -72.5t-132 33.5z" />
    <glyph glyph-name="ograve" unicode="&#xf2;" horiz-adv-x="1046" 
d="M383 0q-17 1 -50 1t-50 1q-113 2 -192.5 77t-86.5 187q-4 78 -4 236v702q0 41 4 123q9 102 79.5 176t172.5 84q108 10 207 -8q102 -20 161.5 -95.5t61.5 -180.5v-502q0 -49 -1.5 -155t-1 -186.5t4.5 -154.5q4 -132 -89 -222.5t-216 -82.5zM387 182q61 4 88.5 32.5
t32.5 88.5v43l1 447q1 447 -1 448q0 74 -14 105q-10 23 -24.5 37t-35 18.5t-35.5 6t-42 0.5t-38 -1q-101 4 -126 -70q-13 -35 -13 -84v-456v-445q0 -46 2 -71q15 -85 99 -97q63 -7 106 -2zM543 1618q-58 23 -192.5 75t-205.5 81q-29 12 -35.5 28t3.5 45q3 13 16 47
q19 41 35.5 48.5t56.5 -7.5q76 -29 373 -145q17 -6 26.5 -11.5t17 -18.5t5.5 -31q-29 -75 -39 -93q-17 -33 -61 -18z" />
    <glyph glyph-name="oacute" unicode="&#xf3;" horiz-adv-x="1046" 
d="M383 0q-17 1 -50 1t-50 1q-113 2 -192.5 77t-86.5 187q-4 78 -4 236v702q0 41 4 123q9 102 79.5 176t172.5 84q108 10 207 -8q102 -20 161.5 -95.5t61.5 -180.5v-502q0 -49 -1.5 -155t-1 -186.5t4.5 -154.5q4 -132 -89 -222.5t-216 -82.5zM387 182q61 4 88.5 32.5
t32.5 88.5v43l1 447q1 447 -1 448q0 74 -14 105q-10 23 -24.5 37t-35 18.5t-35.5 6t-42 0.5t-38 -1q-101 4 -126 -70q-13 -35 -13 -84v-456v-445q0 -46 2 -71q15 -85 99 -97q63 -7 106 -2zM209 1636q-44 -17 -60.5 -10t-35.5 51q-11 25 -17 39t-7.5 28t1.5 20.5t14 15.5
t24.5 15.5t39.5 16.5q53 21 159.5 62.5t159.5 62.5q33 13 62 21q4 -4 18.5 -13t20.5 -14q7 -7 10 -20q5 -13 13 -32.5t10.5 -27t4.5 -19.5t-2 -18t-13.5 -15t-26 -16.5t-41.5 -17.5q-65 -23 -181 -69t-153 -60z" />
    <glyph glyph-name="ocircumflex" unicode="&#xf4;" horiz-adv-x="1046" 
d="M383 0q-17 1 -50 1t-50 1q-113 2 -192.5 77t-86.5 187q-4 78 -4 236v702q0 41 4 123q9 102 79.5 176t172.5 84q108 10 207 -8q102 -20 161.5 -95.5t61.5 -180.5v-502q0 -49 -1.5 -155t-1 -186.5t4.5 -154.5q4 -132 -89 -222.5t-216 -82.5zM387 182q61 4 88.5 32.5
t32.5 88.5v43l1 447q1 447 -1 448q0 74 -14 105q-10 23 -24.5 37t-35 18.5t-35.5 6t-42 0.5t-38 -1q-101 4 -126 -70q-13 -35 -13 -84v-456v-445q0 -46 2 -71q15 -85 99 -97q63 -7 106 -2zM178 1651q-8 3 -14.5 5t-7.5 3q-44 27 -63.5 43t-20 34.5t16.5 35t58 45.5
q44 30 154 110q30 21 47.5 21t48.5 -21q101 -70 217 -155q26 -20 26.5 -32t-22.5 -34q-4 -6 -12 -14q-43 -39 -65 -40t-72 34q-12 9 -36.5 26.5t-37.5 26.5q-28 19 -43 19t-43 -19q-15 -8 -40 -27t-29 -22q-44 -26 -62 -39z" />
    <glyph glyph-name="otilde" unicode="&#xf5;" horiz-adv-x="1124" 
d="M383 0q-17 1 -50 1t-50 1q-113 2 -192.5 77t-86.5 187q-4 78 -4 236v702q0 41 4 123q9 102 79.5 176t172.5 84q108 10 207 -8q102 -20 161.5 -95.5t61.5 -180.5v-502q0 -49 -1.5 -155t-1 -186.5t4.5 -154.5q4 -132 -89 -222.5t-216 -82.5zM387 182q61 4 88.5 32.5
t32.5 88.5v43l1 447q1 447 -1 448q0 74 -14 105q-10 23 -24.5 37t-35 18.5t-35.5 6t-42 0.5t-38 -1q-101 4 -126 -70q-13 -35 -13 -84v-456v-445q0 -46 2 -71q15 -85 99 -97q63 -7 106 -2zM137 1677q-38 22 -121 88q-40 34 -2 76l31 31q37 36 56 37t59 -29q13 -9 35 -27
q42 -33 81 9q12 15 41 39q73 67 181 45q94 -19 192 -117q4 -4 11 -15.5t10 -15.5q-15 -31 -17 -33l-9 -9l-11.5 -11.5l-9.5 -9.5q-47 -41 -64 -41.5t-68 37.5q-51 36 -75.5 33.5t-69.5 -48.5q-60 -63 -118 -72.5t-132 33.5z" />
    <glyph glyph-name="odieresis" unicode="&#xf6;" horiz-adv-x="1048" 
d="M383 0q-17 1 -50 1t-50 1q-113 2 -192.5 77t-86.5 187q-4 78 -4 236v702q0 41 4 123q9 102 79.5 176t172.5 84q108 10 207 -8q102 -20 161.5 -95.5t61.5 -180.5v-502q0 -49 -1.5 -155t-1 -186.5t4.5 -154.5q4 -132 -89 -222.5t-216 -82.5zM387 182q61 4 88.5 32.5
t32.5 88.5v43l1 447q1 447 -1 448q0 74 -14 105q-10 23 -24.5 37t-35 18.5t-35.5 6t-42 0.5t-38 -1q-101 4 -126 -70q-13 -35 -13 -84v-456v-445q0 -46 2 -71q15 -85 99 -97q63 -7 106 -2zM168 1739q-44 1 -73 31.5t-29 74.5q2 46 31 74t75 27q45 -1 73.5 -30.5t28.5 -74.5
q-1 -43 -33 -73.5t-73 -28.5zM541 1739q-44 2 -73 32t-28 74q0 46 29.5 74.5t75.5 26.5q44 0 73 -30t29 -75q0 -41 -32.5 -72.5t-73.5 -29.5z" />
    <glyph glyph-name="divide" unicode="&#xf7;" horiz-adv-x="1110" 
d="M111 705q-49 0 -72 8q-27 9 -34 27t-3 48t2 41q-3 24 10.5 39t38.5 17q14 2 43 2h279h301q51 -2 63.5 -15t12.5 -65v-29q-2 -45 -13.5 -57.5t-56.5 -13.5q-37 -2 -221 -2h-350zM383 397q-48 -2 -79.5 28t-31.5 77q2 41 33 71.5t74 30.5t74 -29.5t32 -72.5t-28.5 -73
t-73.5 -32zM377 983q-40 0 -72.5 33t-32.5 74q0 43 31 73.5t74 30.5q43 2 75 -27t33 -73q2 -42 -32 -77t-76 -34z" />
    <glyph glyph-name="oslash" unicode="&#xf8;" horiz-adv-x="1095" 
d="M305 4q-107 11 -179 88.5t-73 186.5q-1 76 -1 161.5t0.5 190.5t0.5 162h-2q0 329 2 493q0 130 71 210.5t198 92.5q93 9 192 -10q93 -17 153.5 -88.5t65.5 -167.5q4 -119 4 -358v-586q0 -41 -4 -115q-6 -103 -77 -177t-173 -83q-89 -9 -178 0zM307 188q93 -9 176 5
q19 3 38.5 22t23.5 39q40 118 -19 205q-105 142 -239 329q-5 6 -11 12.5t-17.5 17.5t-20.5 20q-1 -15 -3.5 -34.5t-4 -32t-1.5 -23.5q-1 -60 -1 -127t0.5 -149t0.5 -126q0 -47 4 -72q14 -78 74 -86zM532 766q3 0 9.5 1t9.5 1q6 75 6 76q2 135 2 407q-1 9 -2 28.5t-2 29.5
q-15 94 -111 100q-88 0 -106 -2q-40 -2 -68 -24t-34 -60q-12 -50 -6 -106t40 -99q16 -21 222 -305q2 -3 40 -47z" />
    <glyph glyph-name="ugrave" unicode="&#xf9;" horiz-adv-x="1048" 
d="M236 8q-102 19 -167 96.5t-67 182.5v608h-2q0 397 2 596q0 5 -1 17t-0.5 19.5t2 16.5t7.5 15t15 8q15 3 33.5 3.5t31 0t35.5 -2t33 -1.5q4 -1 10 -13.5t8 -23.5q2 -20 2 -64v-1087q0 -60 8 -107q17 -79 101 -88q59 -6 121 0q40 4 65.5 32t30.5 69q2 31 2 92v1053v36
q0 78 33.5 103.5t109.5 3.5q19 -5 37 -37q3 -5 3.5 -12t-0.5 -17t-1 -14v-1190q0 -111 -64 -192.5t-169 -100.5q-115 -19 -219 -2zM584 1618q-58 23 -192.5 75t-205.5 81q-29 12 -35.5 28t3.5 45q3 13 16 47q19 41 35.5 48.5t56.5 -7.5q76 -29 373 -145q17 -6 26.5 -11.5
t17 -18.5t5.5 -31q-29 -75 -39 -93q-17 -33 -61 -18z" />
    <glyph glyph-name="uacute" unicode="&#xfa;" horiz-adv-x="1048" 
d="M236 8q-102 19 -167 96.5t-67 182.5v608h-2q0 397 2 596q0 5 -1 17t-0.5 19.5t2 16.5t7.5 15t15 8q15 3 33.5 3.5t31 0t35.5 -2t33 -1.5q4 -1 10 -13.5t8 -23.5q2 -20 2 -64v-1087q0 -60 8 -107q17 -79 101 -88q59 -6 121 0q40 4 65.5 32t30.5 69q2 31 2 92v1053v36
q0 78 33.5 103.5t109.5 3.5q19 -5 37 -37q3 -5 3.5 -12t-0.5 -17t-1 -14v-1190q0 -111 -64 -192.5t-169 -100.5q-115 -19 -219 -2zM244 1636q-44 -17 -61 -10t-36 51q-22 48 -23.5 68.5t14 33.5t65.5 33q53 21 159.5 62.5t159.5 62.5q33 13 62 21q4 -4 18.5 -13t20.5 -14
q7 -7 10 -20q5 -13 13 -32.5t10.5 -27t4.5 -19.5t-2 -18t-13.5 -15t-26 -16.5t-41.5 -17.5q-65 -23 -181 -69t-153 -60z" />
    <glyph glyph-name="ucircumflex" unicode="&#xfb;" horiz-adv-x="1048" 
d="M236 8q-102 19 -167 96.5t-67 182.5v608h-2q0 397 2 596q0 5 -1 17t-0.5 19.5t2 16.5t7.5 15t15 8q15 3 33.5 3.5t31 0t35.5 -2t33 -1.5q4 -1 10 -13.5t8 -23.5q2 -20 2 -64v-1087q0 -60 8 -107q17 -79 101 -88q59 -6 121 0q40 4 65.5 32t30.5 69q2 31 2 92v1053v36
q0 78 33.5 103.5t109.5 3.5q19 -5 37 -37q3 -5 3.5 -12t-0.5 -17t-1 -14v-1190q0 -111 -64 -192.5t-169 -100.5q-115 -19 -219 -2zM225 1651q-8 3 -14.5 5t-7.5 3q-44 27 -63 43t-19.5 34.5t16.5 35t58 45.5q26 18 153 110q30 21 47.5 21t48.5 -21q117 -80 218 -155
q26 -20 26.5 -32t-22.5 -34q-2 -3 -13 -14q-43 -39 -65 -40t-72 34q-13 9 -37.5 26.5t-36.5 26.5q-28 19 -43 19t-43 -19q-15 -8 -40 -27t-29 -22q-44 -26 -62 -39z" />
    <glyph glyph-name="udieresis" unicode="&#xfc;" horiz-adv-x="1052" 
d="M236 8q-102 19 -167 96.5t-67 182.5v608h-2q0 397 2 596q0 5 -1 17t-0.5 19.5t2 16.5t7.5 15t15 8q15 3 33.5 3.5t31 0t35.5 -2t33 -1.5q4 -1 10 -13.5t8 -23.5q2 -20 2 -64v-1087q0 -60 8 -107q17 -79 101 -88q59 -6 121 0q40 4 65.5 32t30.5 69q2 31 2 92v1053v36
q0 78 33.5 103.5t109.5 3.5q19 -5 37 -37q3 -5 3.5 -12t-0.5 -17t-1 -14v-1190q0 -111 -64 -192.5t-169 -100.5q-115 -19 -219 -2zM215 1739q-44 1 -73 31.5t-29 74.5q2 46 31 74t75 27t74.5 -31t28.5 -74q-1 -43 -33.5 -73.5t-73.5 -28.5zM588 1739q-44 2 -73 32t-28 74
q0 46 29.5 74.5t75.5 26.5q44 0 73 -30t29 -75q0 -41 -32.5 -72.5t-73.5 -29.5z" />
    <glyph glyph-name="yacute" unicode="&#xfd;" horiz-adv-x="1081" 
d="M424 12q-78 -29 -131 8q-12 8 -17 64q0 364 -2 436q0 94 -24 176q-44 156 -131 445t-105 350q-21 69 -10 84.5t82 15.5q63 0 77.5 -11t33.5 -71q22 -71 65 -214.5t64 -215.5q4 -12 28 -78q11 0 17 -2q4 14 13.5 37.5t12.5 32.5q22 72 64.5 216t64.5 216q3 17 7 30
t10 22.5t10.5 16t14.5 10.5t16.5 6t22.5 3t25 1t31.5 -0.5t36.5 -0.5q9 -3 16 -19.5t7 -29.5q-1 -15 -9 -42.5t-9 -33.5q-166 -548 -230 -774q-20 -64 -20 -139q-1 -77 -1 -229.5t-1 -229.5q0 -4 1 -17.5t0 -20t-3 -16t-9 -16t-18 -10.5zM209 1636q-44 -17 -60.5 -10
t-35.5 51q-11 25 -17 39t-7.5 28t1.5 20.5t14 15.5t24.5 15.5t39.5 16.5q53 21 159.5 62.5t159.5 62.5q33 13 62 21q4 -4 18.5 -13t20.5 -14q7 -7 10 -20q5 -13 13 -32.5t10.5 -27t4.5 -19.5t-2 -18t-13.5 -15t-26 -16.5t-41.5 -17.5q-65 -23 -181 -69t-153 -60z" />
    <glyph glyph-name="ydieresis" unicode="&#xff;" horiz-adv-x="1081" 
d="M424 12q-78 -29 -131 8q-12 8 -17 64q0 364 -2 436q0 94 -24 176q-44 156 -131 445t-105 350q-21 69 -10 84.5t82 15.5q63 0 77.5 -11t33.5 -71q22 -71 65 -214.5t64 -215.5q4 -12 28 -78q11 0 17 -2q4 14 13.5 37.5t12.5 32.5q22 72 64.5 216t64.5 216q3 17 7 30
t10 22.5t10.5 16t14.5 10.5t16.5 6t22.5 3t25 1t31.5 -0.5t36.5 -0.5q9 -3 16 -19.5t7 -29.5q-1 -15 -9 -42.5t-9 -33.5q-166 -548 -230 -774q-20 -64 -20 -139q-1 -77 -1 -229.5t-1 -229.5q0 -4 1 -17.5t0 -20t-3 -16t-9 -16t-18 -10.5zM186 1739q-44 1 -73 31.5t-29 74.5
q2 46 31 74t75 27t74.5 -31t28.5 -74q-1 -43 -33.5 -73.5t-73.5 -28.5zM559 1739q-44 2 -72.5 32t-27.5 74q0 46 29 74t75 27q44 0 73.5 -30.5t29.5 -74.5q0 -41 -33 -72.5t-74 -29.5z" />
    <glyph glyph-name="Wcircumflex" unicode="&#x174;" horiz-adv-x="1280" 
d="M246 0q-82 0 -121 2q-46 2 -62.5 17t-17.5 59q-12 472 -20 723q-3 109 -23 657v15q-3 83 15 101t100 15q40 -3 53 -16t14 -53q12 -378 21 -746q2 -69 7 -207.5t7 -208.5q0 -8 3.5 -24.5t4.5 -22.5q13 0 19 -2q49 221 53 244q16 69 42 196.5t32 153.5q11 51 56.5 72.5
t88.5 -6.5q22 -14 31 -60q14 -58 36.5 -165t30.5 -142q13 -67 46 -217q3 -12 10 -36.5t10 -37.5q3 0 9 1t9 1q1 11 6.5 68.5t6.5 87.5q8 267 20 831q4 148 10 222q1 41 14 53t56 14h21q61 0 74.5 -12.5t13.5 -71.5q-1 -50 -3.5 -150.5t-3.5 -150.5q-8 -324 -28 -930
q-4 -136 -8 -208q-3 -35 -16 -49t-46 -15q-92 -3 -184 0q-35 3 -49 18t-23 58q-13 57 -37 171t-37 171q-1 10 -7.5 30t-8.5 27q-13 -6 -21 -17t-10 -17t-4 -23.5t-2 -18.5q-14 -56 -63 -301q-15 -69 -34 -83.5t-91 -16.5zM338 1651q-8 3 -15 5t-8 3q-44 27 -63 43
t-19.5 34.5t16.5 35t58 45.5q44 30 154 110q30 21 47.5 21t48.5 -21q101 -70 217 -155q26 -20 26.5 -32t-22.5 -34q-4 -6 -12 -14q-43 -39 -65 -40t-72 34q-12 9 -37 26.5t-37 26.5q-28 19 -43 19t-43 -19q-11 -6 -23 -14.5t-25.5 -19t-21.5 -15.5q-37 -22 -61 -39z" />
    <glyph glyph-name="wcircumflex" unicode="&#x175;" horiz-adv-x="1280" 
d="M246 0q-82 0 -121 2q-46 2 -62.5 17t-17.5 59q-12 472 -20 723q-3 109 -23 657v15q-3 83 15 101t100 15q40 -3 53 -16t14 -53q12 -378 21 -746q2 -69 7 -207.5t7 -208.5q0 -8 3.5 -24.5t4.5 -22.5q13 0 19 -2q49 221 53 244q16 69 42 196.5t32 153.5q11 51 56.5 72.5
t88.5 -6.5q22 -14 31 -60q14 -58 36.5 -165t30.5 -142q13 -67 46 -217q3 -12 10 -36.5t10 -37.5q3 0 9 1t9 1q1 11 6.5 68.5t6.5 87.5q8 267 20 831q4 148 10 222q1 41 14 53t56 14h21q61 0 74.5 -12.5t13.5 -71.5q-1 -50 -3.5 -150.5t-3.5 -150.5q-8 -324 -28 -930
q-4 -136 -8 -208q-3 -35 -16 -49t-46 -15q-92 -3 -184 0q-35 3 -49 18t-23 58q-13 57 -37 171t-37 171q-1 10 -7.5 30t-8.5 27q-13 -6 -21 -17t-10 -17t-4 -23.5t-2 -18.5q-14 -56 -63 -301q-15 -69 -34 -83.5t-91 -16.5zM338 1651q-8 3 -15 5t-8 3q-44 27 -63 43
t-19.5 34.5t16.5 35t58 45.5q44 30 154 110q30 21 47.5 21t48.5 -21q101 -70 217 -155q26 -20 26.5 -32t-22.5 -34q-4 -6 -12 -14q-43 -39 -65 -40t-72 34q-12 9 -37 26.5t-37 26.5q-28 19 -43 19t-43 -19q-11 -6 -23 -14.5t-25.5 -19t-21.5 -15.5q-37 -22 -61 -39z" />
    <glyph glyph-name="Ycircumflex" unicode="&#x176;" horiz-adv-x="1081" 
d="M424 12q-78 -29 -131 8q-12 8 -17 64q0 364 -2 436q0 94 -24 176q-44 156 -131 445t-105 350q-21 69 -10 84.5t82 15.5q63 0 77.5 -11t33.5 -71q22 -71 65 -214.5t64 -215.5q4 -12 28 -78q11 0 17 -2q4 14 13.5 37.5t12.5 32.5q22 72 64.5 216t64.5 216q3 17 7 30
t10 22.5t10.5 16t14.5 10.5t16.5 6t22.5 3t25 1t31.5 -0.5t36.5 -0.5q9 -3 16 -19.5t7 -29.5q-1 -15 -9 -42.5t-9 -33.5q-166 -548 -230 -774q-20 -64 -20 -139q-1 -77 -1 -229.5t-1 -229.5q0 -4 1 -17.5t0 -20t-3 -16t-9 -16t-18 -10.5zM188 1651q-8 3 -14.5 5t-7.5 3
q-44 27 -63 43t-19.5 34.5t16.5 35t58 45.5q25 18 153 110q30 21 48 21t49 -21q101 -70 217 -155q26 -20 26.5 -32t-22.5 -34q-2 -3 -13 -14q-43 -39 -65 -40t-72 34q-13 9 -36.5 26.5t-36.5 26.5q-28 19 -43.5 19t-43.5 -19q-15 -8 -40 -27t-29 -22q-44 -26 -62 -39z" />
    <glyph glyph-name="ycircumflex" unicode="&#x177;" horiz-adv-x="1081" 
d="M424 12q-78 -29 -131 8q-12 8 -17 64q0 364 -2 436q0 94 -24 176q-44 156 -131 445t-105 350q-21 69 -10 84.5t82 15.5q63 0 77.5 -11t33.5 -71q22 -71 65 -214.5t64 -215.5q4 -12 28 -78q11 0 17 -2q4 14 13.5 37.5t12.5 32.5q22 72 64.5 216t64.5 216q3 17 7 30
t10 22.5t10.5 16t14.5 10.5t16.5 6t22.5 3t25 1t31.5 -0.5t36.5 -0.5q9 -3 16 -19.5t7 -29.5q-1 -15 -9 -42.5t-9 -33.5q-166 -548 -230 -774q-20 -64 -20 -139q-1 -77 -1 -229.5t-1 -229.5q0 -4 1 -17.5t0 -20t-3 -16t-9 -16t-18 -10.5zM188 1651q-8 3 -14.5 5t-7.5 3
q-44 27 -63 43t-19.5 34.5t16.5 35t58 45.5q25 18 153 110q30 21 48 21t49 -21q101 -70 217 -155q26 -20 26.5 -32t-22.5 -34q-2 -3 -13 -14q-43 -39 -65 -40t-72 34q-13 9 -36.5 26.5t-36.5 26.5q-28 19 -43.5 19t-43.5 -19q-15 -8 -40 -27t-29 -22q-44 -26 -62 -39z" />
    <glyph glyph-name="Ydieresis" unicode="&#x178;" horiz-adv-x="1081" 
d="M424 12q-78 -29 -131 8q-12 8 -17 64q0 364 -2 436q0 94 -24 176q-44 156 -131 445t-105 350q-21 69 -10 84.5t82 15.5q63 0 77.5 -11t33.5 -71q22 -71 65 -214.5t64 -215.5q4 -12 28 -78q11 0 17 -2q4 14 13.5 37.5t12.5 32.5q22 72 64.5 216t64.5 216q3 17 7 30
t10 22.5t10.5 16t14.5 10.5t16.5 6t22.5 3t25 1t31.5 -0.5t36.5 -0.5q9 -3 16 -19.5t7 -29.5q-1 -15 -9 -42.5t-9 -33.5q-166 -548 -230 -774q-20 -64 -20 -139q-1 -77 -1 -229.5t-1 -229.5q0 -4 1 -17.5t0 -20t-3 -16t-9 -16t-18 -10.5zM186 1739q-44 1 -73 31.5t-29 74.5
q2 46 31 74t75 27t74.5 -31t28.5 -74q-1 -43 -33.5 -73.5t-73.5 -28.5zM559 1739q-44 2 -72.5 32t-27.5 74q0 46 29 74t75 27q44 0 73.5 -30.5t29.5 -74.5q0 -41 -33 -72.5t-74 -29.5z" />
    <glyph glyph-name="gravecomb" unicode="&#x300;" horiz-adv-x="0" 
d="M-459 1618q-57 23 -191 75t-206 81q-29 12 -36 28t3 45q1 5 17 47q19 41 35.5 48.5t56.5 -7.5q51 -19 372 -145q17 -6 26.5 -11.5t17.5 -18.5t6 -31q-29 -75 -39 -93q-17 -33 -62 -18z" />
    <glyph glyph-name="acutecomb" unicode="&#x301;" horiz-adv-x="0" 
d="M-776 1636q-44 -17 -60.5 -10t-35.5 51q-11 25 -17 39t-7.5 28t1.5 20.5t14 15.5t24.5 15.5t39.5 16.5q53 21 159.5 62.5t159.5 62.5q33 13 62 21q4 -4 18.5 -13t20.5 -14q7 -7 10 -20q5 -13 13 -32.5t10.5 -27t4.5 -19.5t-2 -18t-13.5 -15t-26 -16.5t-41.5 -17.5
q-65 -23 -181 -69t-153 -60z" />
    <glyph glyph-name="uni0302" unicode="&#x302;" horiz-adv-x="0" 
d="M-821 1651q-8 3 -15 5t-8 3q-44 27 -63 43t-19.5 34.5t16.5 35t58 45.5q44 30 154 110q30 21 47.5 21t48.5 -21q101 -70 217 -155q26 -20 26.5 -32t-22.5 -34q-4 -6 -12 -14q-43 -39 -65 -40t-72 34q-12 9 -37 26.5t-37 26.5q-28 19 -43 19t-43 -19q-11 -6 -23 -14.5
t-25.5 -19t-21.5 -15.5q-37 -22 -61 -39z" />
    <glyph glyph-name="tildecomb" unicode="&#x303;" horiz-adv-x="0" 
d="M-932 1677q-38 22 -121 88q-40 34 -2 76l31 31q37 36 56 37t59 -29q13 -9 35 -27q42 -33 81 9q12 15 41 39q73 67 181 45q94 -19 192 -117q4 -4 11 -15.5t10 -15.5q-15 -31 -17 -33q-5 -6 -16.5 -16.5t-14.5 -13.5q-47 -41 -63.5 -41.5t-67.5 37.5q-51 36 -75.5 33.5
t-69.5 -48.5q-60 -63 -118 -72.5t-132 33.5z" />
    <glyph glyph-name="uni0307" unicode="&#x307;" horiz-adv-x="0" 
d="M-465 1739q-44 2 -72.5 32t-27.5 74q0 46 29 74t75 27q46 -2 75 -31.5t28 -73.5q-1 -43 -33.5 -73.5t-73.5 -28.5z" />
    <glyph glyph-name="uni0308" unicode="&#x308;" horiz-adv-x="0" 
d="M-838 1739q-44 1 -73 31.5t-29 74.5q2 46 31 74t75 27t74.5 -31t28.5 -74q-1 -43 -33.5 -73.5t-73.5 -28.5zM-465 1739q-44 2 -72.5 32t-27.5 74q0 46 29 74t75 27q44 0 73.5 -30.5t29.5 -74.5q0 -41 -33 -72.5t-74 -29.5z" />
    <glyph glyph-name="uni030A" unicode="&#x30a;" horiz-adv-x="0" 
d="M-524 1624q-70 0 -116 46.5t-46 117.5q0 69 46.5 114.5t117.5 45.5q68 0 117 -49t47 -115q-1 -67 -49.5 -113.5t-116.5 -46.5zM-526 1737q19 -1 35 13.5t18 33.5q0 19 -15 35t-34 16q-20 1 -34.5 -13t-14.5 -34q-1 -20 12.5 -35.5t32.5 -15.5z" />
    <glyph glyph-name="uni0327" unicode="&#x327;" horiz-adv-x="0" 
d="M-586 -502q-45 -9 -55 41q-1 5 -1 12.5t0.5 15.5t0.5 11q-11 61 51 86q41 17 58 40t8 49t-45 52q-41 30 -50.5 68.5t-3.5 95.5q3 28 20 38.5t46 12.5q80 7 88 -38q12 -49 57 -105q89 -119 33 -242q-52 -109 -207 -137z" />
    <glyph glyph-name="Wgrave" unicode="&#x1e80;" horiz-adv-x="1280" 
d="M246 0q-82 0 -121 2q-46 2 -62.5 17t-17.5 59q-12 472 -20 723q-3 109 -23 657v15q-3 83 15 101t100 15q40 -3 53 -16t14 -53q12 -378 21 -746q2 -69 7 -207.5t7 -208.5q0 -8 3.5 -24.5t4.5 -22.5q13 0 19 -2q49 221 53 244q16 69 42 196.5t32 153.5q11 51 56.5 72.5
t88.5 -6.5q22 -14 31 -60q14 -58 36.5 -165t30.5 -142q13 -67 46 -217q3 -12 10 -36.5t10 -37.5q3 0 9 1t9 1q1 11 6.5 68.5t6.5 87.5q8 267 20 831q4 148 10 222q1 41 14 53t56 14h21q61 0 74.5 -12.5t13.5 -71.5q-1 -50 -3.5 -150.5t-3.5 -150.5q-8 -324 -28 -930
q-4 -136 -8 -208q-3 -35 -16 -49t-46 -15q-92 -3 -184 0q-35 3 -49 18t-23 58q-13 57 -37 171t-37 171q-1 10 -7.5 30t-8.5 27q-13 -6 -21 -17t-10 -17t-4 -23.5t-2 -18.5q-14 -56 -63 -301q-15 -69 -34 -83.5t-91 -16.5zM694 1618q-57 23 -191 75t-206 81q-29 12 -36 28
t3 45q1 5 17 47q19 41 35.5 48.5t56.5 -7.5q51 -19 372 -145q17 -6 26.5 -11.5t17.5 -18.5t6 -31q-29 -75 -39 -93q-17 -33 -62 -18z" />
    <glyph glyph-name="wgrave" unicode="&#x1e81;" horiz-adv-x="1280" 
d="M246 0q-82 0 -121 2q-46 2 -62.5 17t-17.5 59q-12 472 -20 723q-3 109 -23 657v15q-3 83 15 101t100 15q40 -3 53 -16t14 -53q12 -378 21 -746q2 -69 7 -207.5t7 -208.5q0 -8 3.5 -24.5t4.5 -22.5q13 0 19 -2q49 221 53 244q16 69 42 196.5t32 153.5q11 51 56.5 72.5
t88.5 -6.5q22 -14 31 -60q14 -58 36.5 -165t30.5 -142q13 -67 46 -217q3 -12 10 -36.5t10 -37.5q3 0 9 1t9 1q1 11 6.5 68.5t6.5 87.5q8 267 20 831q4 148 10 222q1 41 14 53t56 14h21q61 0 74.5 -12.5t13.5 -71.5q-1 -50 -3.5 -150.5t-3.5 -150.5q-8 -324 -28 -930
q-4 -136 -8 -208q-3 -35 -16 -49t-46 -15q-92 -3 -184 0q-35 3 -49 18t-23 58q-13 57 -37 171t-37 171q-1 10 -7.5 30t-8.5 27q-13 -6 -21 -17t-10 -17t-4 -23.5t-2 -18.5q-14 -56 -63 -301q-15 -69 -34 -83.5t-91 -16.5zM694 1618q-57 23 -191 75t-206 81q-29 12 -36 28
t3 45q1 5 17 47q19 41 35.5 48.5t56.5 -7.5q51 -19 372 -145q17 -6 26.5 -11.5t17.5 -18.5t6 -31q-29 -75 -39 -93q-17 -33 -62 -18z" />
    <glyph glyph-name="Wacute" unicode="&#x1e82;" horiz-adv-x="1280" 
d="M246 0q-82 0 -121 2q-46 2 -62.5 17t-17.5 59q-12 472 -20 723q-3 109 -23 657v15q-3 83 15 101t100 15q40 -3 53 -16t14 -53q12 -378 21 -746q2 -69 7 -207.5t7 -208.5q0 -8 3.5 -24.5t4.5 -22.5q13 0 19 -2q49 221 53 244q16 69 42 196.5t32 153.5q11 51 56.5 72.5
t88.5 -6.5q22 -14 31 -60q14 -58 36.5 -165t30.5 -142q13 -67 46 -217q3 -12 10 -36.5t10 -37.5q3 0 9 1t9 1q1 11 6.5 68.5t6.5 87.5q8 267 20 831q4 148 10 222q1 41 14 53t56 14h21q61 0 74.5 -12.5t13.5 -71.5q-1 -50 -3.5 -150.5t-3.5 -150.5q-8 -324 -28 -930
q-4 -136 -8 -208q-3 -35 -16 -49t-46 -15q-92 -3 -184 0q-35 3 -49 18t-23 58q-13 57 -37 171t-37 171q-1 10 -7.5 30t-8.5 27q-13 -6 -21 -17t-10 -17t-4 -23.5t-2 -18.5q-14 -56 -63 -301q-15 -69 -34 -83.5t-91 -16.5zM365 1636q-44 -17 -61 -10t-36 51
q-22 48 -23.5 68.5t14 33.5t65.5 33q53 21 159.5 62.5t159.5 62.5q33 13 62 21q4 -4 18 -13t20 -14q8 -8 11 -20q5 -13 13 -32.5t10.5 -26.5t4 -20t-2.5 -18.5t-13.5 -14.5t-26 -16.5t-41.5 -17.5q-64 -23 -178.5 -68.5t-154.5 -60.5z" />
    <glyph glyph-name="wacute" unicode="&#x1e83;" horiz-adv-x="1280" 
d="M246 0q-82 0 -121 2q-46 2 -62.5 17t-17.5 59q-12 472 -20 723q-3 109 -23 657v15q-3 83 15 101t100 15q40 -3 53 -16t14 -53q12 -378 21 -746q2 -69 7 -207.5t7 -208.5q0 -8 3.5 -24.5t4.5 -22.5q13 0 19 -2q49 221 53 244q16 69 42 196.5t32 153.5q11 51 56.5 72.5
t88.5 -6.5q22 -14 31 -60q14 -58 36.5 -165t30.5 -142q13 -67 46 -217q3 -12 10 -36.5t10 -37.5q3 0 9 1t9 1q1 11 6.5 68.5t6.5 87.5q8 267 20 831q4 148 10 222q1 41 14 53t56 14h21q61 0 74.5 -12.5t13.5 -71.5q-1 -50 -3.5 -150.5t-3.5 -150.5q-8 -324 -28 -930
q-4 -136 -8 -208q-3 -35 -16 -49t-46 -15q-92 -3 -184 0q-35 3 -49 18t-23 58q-13 57 -37 171t-37 171q-1 10 -7.5 30t-8.5 27q-13 -6 -21 -17t-10 -17t-4 -23.5t-2 -18.5q-14 -56 -63 -301q-15 -69 -34 -83.5t-91 -16.5zM365 1636q-44 -17 -61 -10t-36 51
q-22 48 -23.5 68.5t14 33.5t65.5 33q53 21 159.5 62.5t159.5 62.5q33 13 62 21q4 -4 18 -13t20 -14q8 -8 11 -20q5 -13 13 -32.5t10.5 -26.5t4 -20t-2.5 -18.5t-13.5 -14.5t-26 -16.5t-41.5 -17.5q-64 -23 -178.5 -68.5t-154.5 -60.5z" />
    <glyph glyph-name="Wdieresis" unicode="&#x1e84;" horiz-adv-x="1280" 
d="M246 0q-82 0 -121 2q-46 2 -62.5 17t-17.5 59q-12 472 -20 723q-3 109 -23 657v15q-3 83 15 101t100 15q40 -3 53 -16t14 -53q12 -378 21 -746q2 -69 7 -207.5t7 -208.5q0 -8 3.5 -24.5t4.5 -22.5q13 0 19 -2q49 221 53 244q16 69 42 196.5t32 153.5q11 51 56.5 72.5
t88.5 -6.5q22 -14 31 -60q14 -58 36.5 -165t30.5 -142q13 -67 46 -217q3 -12 10 -36.5t10 -37.5q3 0 9 1t9 1q1 11 6.5 68.5t6.5 87.5q8 267 20 831q4 148 10 222q1 41 14 53t56 14h21q61 0 74.5 -12.5t13.5 -71.5q-1 -50 -3.5 -150.5t-3.5 -150.5q-8 -324 -28 -930
q-4 -136 -8 -208q-3 -35 -16 -49t-46 -15q-92 -3 -184 0q-35 3 -49 18t-23 58q-13 57 -37 171t-37 171q-1 10 -7.5 30t-8.5 27q-13 -6 -21 -17t-10 -17t-4 -23.5t-2 -18.5q-14 -56 -63 -301q-15 -69 -34 -83.5t-91 -16.5zM326 1739q-44 2 -73.5 32t-29.5 74q2 46 31.5 74
t75.5 27q45 -1 73.5 -30.5t28.5 -74.5q-1 -43 -33 -73.5t-73 -28.5zM698 1739q-44 2 -72.5 32t-27.5 74q0 46 29 74t75 27q44 0 73.5 -30.5t29.5 -74.5q0 -41 -33 -72.5t-74 -29.5z" />
    <glyph glyph-name="wdieresis" unicode="&#x1e85;" horiz-adv-x="1280" 
d="M246 0q-82 0 -121 2q-46 2 -62.5 17t-17.5 59q-12 472 -20 723q-3 109 -23 657v15q-3 83 15 101t100 15q40 -3 53 -16t14 -53q12 -378 21 -746q2 -69 7 -207.5t7 -208.5q0 -8 3.5 -24.5t4.5 -22.5q13 0 19 -2q49 221 53 244q16 69 42 196.5t32 153.5q11 51 56.5 72.5
t88.5 -6.5q22 -14 31 -60q14 -58 36.5 -165t30.5 -142q13 -67 46 -217q3 -12 10 -36.5t10 -37.5q3 0 9 1t9 1q1 11 6.5 68.5t6.5 87.5q8 267 20 831q4 148 10 222q1 41 14 53t56 14h21q61 0 74.5 -12.5t13.5 -71.5q-1 -50 -3.5 -150.5t-3.5 -150.5q-8 -324 -28 -930
q-4 -136 -8 -208q-3 -35 -16 -49t-46 -15q-92 -3 -184 0q-35 3 -49 18t-23 58q-13 57 -37 171t-37 171q-1 10 -7.5 30t-8.5 27q-13 -6 -21 -17t-10 -17t-4 -23.5t-2 -18.5q-14 -56 -63 -301q-15 -69 -34 -83.5t-91 -16.5zM326 1739q-44 2 -73.5 32t-29.5 74q2 46 31.5 74
t75.5 27q45 -1 73.5 -30.5t28.5 -74.5q-1 -43 -33 -73.5t-73 -28.5zM698 1739q-44 2 -72.5 32t-27.5 74q0 46 29 74t75 27q44 0 73.5 -30.5t29.5 -74.5q0 -41 -33 -72.5t-74 -29.5z" />
    <glyph glyph-name="Ygrave" unicode="&#x1ef2;" horiz-adv-x="1081" 
d="M424 12q-78 -29 -131 8q-12 8 -17 64q0 364 -2 436q0 94 -24 176q-44 156 -131 445t-105 350q-21 69 -10 84.5t82 15.5q63 0 77.5 -11t33.5 -71q22 -71 65 -214.5t64 -215.5q4 -12 28 -78q11 0 17 -2q4 14 13.5 37.5t12.5 32.5q22 72 64.5 216t64.5 216q3 17 7 30
t10 22.5t10.5 16t14.5 10.5t16.5 6t22.5 3t25 1t31.5 -0.5t36.5 -0.5q9 -3 16 -19.5t7 -29.5q-1 -15 -9 -42.5t-9 -33.5q-166 -548 -230 -774q-20 -64 -20 -139q-1 -77 -1 -229.5t-1 -229.5q0 -4 1 -17.5t0 -20t-3 -16t-9 -16t-18 -10.5zM555 1618q-57 23 -191 75t-206 81
q-29 12 -36 28t3 45q3 13 16 47q19 41 35.5 48.5t56.5 -7.5q76 -29 373 -145q17 -6 26.5 -11.5t17 -18.5t5.5 -31q-29 -75 -39 -93q-17 -33 -61 -18z" />
    <glyph glyph-name="ygrave" unicode="&#x1ef3;" horiz-adv-x="1081" 
d="M424 12q-78 -29 -131 8q-12 8 -17 64q0 364 -2 436q0 94 -24 176q-44 156 -131 445t-105 350q-21 69 -10 84.5t82 15.5q63 0 77.5 -11t33.5 -71q22 -71 65 -214.5t64 -215.5q4 -12 28 -78q11 0 17 -2q4 14 13.5 37.5t12.5 32.5q22 72 64.5 216t64.5 216q3 17 7 30
t10 22.5t10.5 16t14.5 10.5t16.5 6t22.5 3t25 1t31.5 -0.5t36.5 -0.5q9 -3 16 -19.5t7 -29.5q-1 -15 -9 -42.5t-9 -33.5q-166 -548 -230 -774q-20 -64 -20 -139q-1 -77 -1 -229.5t-1 -229.5q0 -4 1 -17.5t0 -20t-3 -16t-9 -16t-18 -10.5zM555 1618q-57 23 -191 75t-206 81
q-29 12 -36 28t3 45q3 13 16 47q19 41 35.5 48.5t56.5 -7.5q76 -29 373 -145q17 -6 26.5 -11.5t17 -18.5t5.5 -31q-29 -75 -39 -93q-17 -33 -61 -18z" />
    <glyph glyph-name="endash" unicode="&#x2013;" horiz-adv-x="927" 
d="M82 707q-56 0 -69 13.5t-13 70.5v28q3 40 15 52t51 12q264 3 528 0q41 0 53.5 -14t14.5 -56v-43q-3 -39 -15 -50.5t-51 -12.5h-264h-250z" />
    <glyph glyph-name="emdash" unicode="&#x2014;" horiz-adv-x="1163" 
d="M86 698q-61 0 -73.5 12.5t-12.5 71.5v43q3 46 49 49q9 0 28.5 1.5t28.5 1.5h687q22 0 43 -3q37 -2 48.5 -12.5t12.5 -46.5q1 -87 -11 -102t-81 -15h-19h-342h-358z" />
    <glyph glyph-name="quoteleft" unicode="&#x2018;" horiz-adv-x="520" 
d="M80 1133q-51 0 -65 11.5t-15 57.5v158v166q1 42 17 53.5t69 11.5q46 -2 60 -14.5t14 -54.5q3 -159 0 -322q0 -44 -14 -55.5t-66 -11.5z" />
    <glyph glyph-name="quoteright" unicode="&#x2019;" horiz-adv-x="520" 
d="M80 1133q-51 0 -65 11.5t-15 57.5v158v166q1 42 17 53.5t69 11.5q46 -2 60 -14.5t14 -54.5q3 -159 0 -322q0 -44 -14 -55.5t-66 -11.5z" />
    <glyph glyph-name="quotedblleft" unicode="&#x201c;" horiz-adv-x="817" 
d="M57 1133q-33 3 -44 13.5t-11 41.5q-2 59 -2 180v150q2 47 15.5 60t62.5 13h20q37 -3 49 -14t13 -47q2 -35 2 -107v-215q-1 -51 -15 -63t-67 -12h-23zM377 1133q-51 0 -65 12t-15 59v156v166q1 42 17 53.5t69 11.5q46 -2 60 -14.5t14 -54.5q3 -159 0 -322q0 -44 -14 -55.5
t-66 -11.5z" />
    <glyph glyph-name="quotedblright" unicode="&#x201d;" horiz-adv-x="817" 
d="M57 1133q-33 3 -44 13.5t-11 41.5q-2 59 -2 180v150q2 47 15.5 60t62.5 13h20q37 -3 49 -14t13 -47q2 -35 2 -107v-215q-1 -51 -15 -63t-67 -12h-23zM377 1133q-51 0 -65 12t-15 59v156v166q1 42 17 53.5t69 11.5q46 -2 60 -14.5t14 -54.5q3 -159 0 -322q0 -44 -14 -55.5
t-66 -11.5z" />
    <glyph glyph-name="guilsinglleft" unicode="&#x2039;" horiz-adv-x="919" 
d="M465 334q-13 -10 -51 4q-5 2 -10.5 6.5t-11.5 12t-9 10.5q-229 245 -350 376q-33 37 -33.5 53t31.5 50q60 66 362 393q8 7 26.5 21t26.5 20q22 -21 60 -55.5t55 -50.5q-18 -34 -42.5 -64t-60.5 -67t-48 -50q-41 -47 -127 -137q-37 -41 -37 -59.5t37 -59.5
q35 -38 104.5 -112.5t104.5 -112.5q29 -32 63 -74q-2 -11 -6 -20.5t-11 -19t-11.5 -15t-15 -14t-14 -11.5t-17 -12.5t-15.5 -11.5z" />
    <glyph glyph-name="guilsinglright" unicode="&#x203a;" horiz-adv-x="907" 
d="M45 381l-10 10q-33 33 -33.5 50t29.5 51q41 44 121.5 132t121.5 132q21 28 41 53q-21 31 -41 53q-117 129 -237 258q-37 41 -36 58t42 57l20 20q32 28 50 27.5t47 -31.5q26 -27 55.5 -58.5t65 -70t55.5 -59.5q29 -32 87.5 -95t86.5 -94q39 -43 38.5 -66.5t-40.5 -66.5
q-217 -233 -330 -356q-43 -47 -64.5 -47.5t-68.5 43.5z" />
    <glyph glyph-name="fraction" unicode="&#x2044;" horiz-adv-x="1081" 
d="M82 0q-25 0 -35 2q-35 3 -43 14t2 45q9 29 35 101q79 219 236.5 658.5t236.5 658.5q1 2 2 7t2 7q49 128 178 88q33 -10 27 -43q-3 -23 -16 -53q-106 -299 -502 -1399q-22 -63 -38.5 -74.5t-84.5 -11.5z" />
    <glyph glyph-name="Euro" unicode="&#x20ac;" horiz-adv-x="1169" 
d="M547 2q-111 -4 -164 0q-106 8 -180.5 85.5t-77.5 184.5v222q-2 56 -11 68t-61 22q-36 7 -45.5 20t-7.5 55q2 35 11.5 45.5t47.5 16.5q45 8 62.5 46t-8.5 75q-6 9 -50 20q-40 7 -50.5 19t-12.5 49q0 43 10 56t49 20q42 8 53 19.5t11 53.5q1 35 1 104.5t1 104.5
q0 124 67.5 204t188.5 95q101 12 207 -10q112 -22 175 -118.5t44 -211.5q-6 -42 -45 -45h-43q-61 0 -72.5 10.5t-15.5 71.5q-6 66 -37.5 94.5t-97.5 28.5l-40 1q-40 0 -40 -1q-51 -3 -78.5 -29t-34.5 -78q0 -3 -1 -9.5t-1 -10.5v-100v-86q0 -61 13.5 -73.5t78.5 -14.5
q83 0 101 -2q32 -1 42.5 -15t10.5 -51q2 -39 -10 -56t-45 -18q-25 -2 -68 -1.5t-68 -0.5q-34 -1 -44.5 -13.5t-10.5 -49.5q-2 -42 9.5 -58.5t43.5 -17.5q25 -2 67.5 -1.5t67.5 -0.5q35 -1 46.5 -14t11.5 -50q2 -40 -9 -55t-44 -18q-21 -1 -64 -1t-65 -1q-39 -3 -51 -15
t-13 -51q-3 -119 2 -215q3 -108 113 -123q6 -1 18.5 -1t18.5 -1q108 -4 145.5 39t32.5 131q-5 19 -0.5 42.5t28.5 31.5q78 25 132 -6q9 -3 14 -23q8 -92 -1.5 -157.5t-55.5 -122.5q-81 -100 -201 -109z" />
    <glyph glyph-name="trademark" unicode="&#x2122;" horiz-adv-x="972" 
d="M139 0q-15 1 -20.5 8t-7.5 23v110v181v276q0 23 -5 28t-30 5q-35 0 -51 2q-25 0 -25 24v7q0 34 6.5 40.5t40.5 6.5h219q33 0 37 -13q2 -21 -6 -57q0 -8 -21 -8q-20 -2 -59 -2q-25 0 -22 -23v-30v-529q0 -33 -11.5 -42.5t-44.5 -6.5zM768 2q-25 0 -32 7t-7 32v369
q0 21 -4 71q-4 0 -6 2q-1 -6 -6 -25.5t-6 -29.5q-4 -19 -11.5 -59.5t-11.5 -59.5q-3 -23 -9 -28t-30 -7h-43q-19 2 -24.5 6.5t-8.5 22.5q-8 37 -26 139q-1 6 -4 18.5t-4 18.5h-9q-4 -32 -4 -47v-356v-27q0 -32 -17 -43.5t-46 0.5q-10 3 -15 19q-2 8 -2 28v621q0 35 6.5 41
t43.5 6h40q25 0 31.5 -5t9.5 -28q5 -26 14.5 -78.5t14.5 -77.5q3 -17 9.5 -49t9.5 -49h10q1 5 4 19t4 22q22 114 39 215q5 22 10.5 26.5t28.5 4.5q7 0 19 0.5t23 0.5t21 -1q17 0 22 -5t7 -22v-24v-615v-12q0 -26 -7.5 -33.5t-33.5 -7.5z" />
    <glyph glyph-name="minus" unicode="&#x2212;" horiz-adv-x="866" 
d="M254 698q-130 0 -193 2q-37 0 -47.5 10.5t-13.5 47.5v37q0 55 13 67.5t69 14.5h344q57 -1 69.5 -14t12.5 -68v-43q0 -54 -53 -54q-68 2 -201 2v-2z" />
    </font>
</defs>
</svg>
