<svg xmlns="http://www.w3.org/2000/svg" viewBox="0 0 492.7 219.8"><path d="M200.6,210.6c-5.5,0-10.1,2.1-13.7,7.6l-15-87.9,1.2-.6c19.8,30.2,50.7,48.8,77.5,48.8,19.5,0,32.4-7.9,32.4-21.4,0-13.7-18-20.5-46.7-30.2-27.2-9.8-60.7-24.7-60.7-64.1C175.6,27.4,208-.1,253.1-.1c25,0,36.9,7,45.5,7,4.9,0,8.2-1.5,11.6-5.8L320,78.9l-1.2.6c-14.7-24.7-39.4-39.1-65-39.1-20.2,0-33.6,9.2-33.6,21.4,0,13.7,17.7,19.5,36.3,26.9,32.1,11,72,26.3,71.7,67.8,0,36.6-32.1,63.2-74.8,63.2-26.3.1-43.4-9.1-52.8-9.1" fill="#000"></path><polygon points="379.4 1.1 437 108.9 378.8 217.7 435.5 217.7 492.7 108.9 436.5 1.1 379.4 1.1" fill="#000"></polygon><polygon points="113.4 217.7 55.7 109.9 113.9 1.1 57.2 1.1 0 109.9 56.2 217.7 113.4 217.7" fill="#000"></polygon></svg>